<svg height="512pt" viewBox="-12 0 511 512" width="512pt" xmlns="http://www.w3.org/2000/svg"><path d="m243.972656 344.546875 70.226563-105.425781 10.417969-176.320313h-161.292969l23.84375 181.945313zm0 0" fill="#fff"/><path d="m243.972656 344.546875-56.804687-99.800781v-63.507813l-146.554688-118.4375c-18.015625 0-32.613281 14.597657-32.613281 32.609375v376.476563c0 18.015625 14.597656 32.613281 32.613281 32.613281h174.125l45.027344-87.035156zm0 0" fill="#75b8db"/><path d="m214.738281 504.5 45.027344-87.035156-15.792969-72.914063-16.609375-29.183593-6.5625 9.851562-13.910156 13.429688c-14.078125 13.59375-22.152344 32.613281-22.152344 52.183593v113.667969zm0 0" fill="#66a9cc"/><path d="m214.738281 244.746094-27.570312-63.507813-25.625 7.925781-26.359375 28.363282c-6.742188 7.253906-6.363282 18.585937.84375 25.375l107.945312 101.644531zm0 0" fill="#96ccec"/><path d="m214.738281 244.746094-174.128906-181.945313h122.714844zm0 0" fill="#b4dbf3"/><path d="m447.332031 62.800781-104.234375 48.210938-35.851562 78.152343 6.953125 49.957032-70.226563 105.425781-16.246094 15.683594c-8.300781 8.015625-12.988281 19.0625-12.988281 30.601562v113.667969h232.59375c18.011719 0 32.609375-14.601562 32.609375-32.609375v-376.480469c0-18.011718-14.59375-32.609375-32.609375-32.609375zm0 0" fill="#75b8db"/><path d="m352.757812 217.527344-26.359374-28.363282-10.484376-18.898437-42.707031 74.480469-29.234375 99.800781 107.941406-101.644531c7.207032-6.789063 7.585938-18.121094.84375-25.375zm0 0" fill="#96ccec"/><path d="m273.207031 244.746094 174.125-181.945313h-122.714843zm0 0" fill="#b4dbf3"/><path d="m266.4375 81.972656s75.992188 86.164063 75.992188-20.839844c0-107-75.992188-20.839843-75.992188-20.839843zm0 0" fill="#e36263"/><path d="m221.507812 81.972656s-75.992187 86.164063-75.992187-20.839844c0-107 75.992187-20.839843 75.992187-20.839843zm0 0" fill="#e36263"/><path d="m249.15625 34.058594h-10.371094c-14.949218 0-27.070312 12.121094-27.070312 27.074218 0 14.953126 12.121094 27.074219 27.070312 27.074219h10.371094c14.953125 0 27.074219-12.121093 27.074219-27.074219 0-14.953124-12.121094-27.074218-27.074219-27.074218zm0 0" fill="#fd747f"/><path d="m256.386719 203.675781c0 6.855469-5.558594 12.414063-12.414063 12.414063-6.859375 0-12.417968-5.558594-12.417968-12.414063 0-6.859375 5.558593-12.417969 12.417968-12.417969 6.855469 0 12.414063 5.558594 12.414063 12.417969zm0 0" fill="#606673"/><path d="m256.386719 141.359375c0 6.855469-5.558594 12.414063-12.414063 12.414063-6.859375 0-12.417968-5.558594-12.417968-12.414063 0-6.859375 5.558593-12.417969 12.417968-12.417969 6.855469 0 12.414063 5.558594 12.414063 12.417969zm0 0" fill="#606673"/><path d="m256.386719 203.675781c0 6.855469-5.558594 12.414063-12.414063 12.414063-6.859375 0-12.417968-5.558594-12.417968-12.414063 0-6.859375 5.558593-12.417969 12.417968-12.417969 6.855469 0 12.414063 5.558594 12.414063 12.417969zm0 0"/><path d="m256.386719 141.359375c0 6.855469-5.558594 12.414063-12.414063 12.414063-6.859375 0-12.417968-5.558594-12.417968-12.414063 0-6.859375 5.558593-12.417969 12.417968-12.417969 6.855469 0 12.414063 5.558594 12.414063 12.417969zm0 0"/><path d="m447.332031 55.300781h-97.488281c-.472656-17.660156-3.136719-30.773437-8.125-39.9375-6.90625-12.699219-16.972656-15.363281-24.203125-15.363281-20.058594 0-42.632813 20.699219-52.246094 30.558594-4.816406-2.546875-10.296875-4-16.113281-4h-10.371094c-5.816406 0-11.300781 1.453125-16.117187 4-9.621094-9.851563-32.226563-30.558594-52.242188-30.558594-7.230469 0-17.296875 2.664062-24.203125 15.359375-4.988281 9.164063-7.652344 22.277344-8.121094 39.941406 0 0-97.492187 0-97.5 0-22.113281.003907-40.101562 17.996094-40.101562 40.109375v86.519532c0 4.140624 3.359375 7.5 7.5 7.5 4.144531 0 7.5-3.359376 7.5-7.5v-86.519532c0-12.816406 9.660156-23.425781 22.082031-24.925781l113.652344 118.757813-21.542969 23.179687c-9.511718 10.238281-8.976562 26.359375 1.199219 35.941406l102.214844 96.253907-10.585938 10.21875c-9.710937 9.378906-15.28125 22.5-15.28125 36v106.164062h-166.628906c-13.84375 0-25.109375-11.265625-25.109375-25.109375v-259.960937c0-4.140626-3.359375-7.5-7.5-7.5s-7.5 3.359374-7.5 7.5v259.960937c0 22.117187 17.992188 40.109375 40.109375 40.109375h406.722656c22.117188 0 40.109375-17.992188 40.109375-40.109375v-56.960937c0-4.140626-3.355468-7.5-7.5-7.5-4.140625 0-7.5 3.359374-7.5 7.5v56.960937c0 13.84375-11.265625 25.109375-25.109375 25.109375h-225.09375v-106.167969c0-9.453125 3.898438-18.640625 10.699219-25.203125l124.117188-117.265625c9.96875-9.386719 10.535156-25.894531 1.199218-35.941406l-21.542968-23.179687 113.652343-118.761719c12.421875 1.503906 22.078125 12.109375 22.078125 24.929687v289.519532c0 4.140624 3.359375 7.5 7.5 7.5 4.144532 0 7.5-3.359376 7.5-7.5v-289.519532c0-22.109375-17.980468-40.097656-40.109375-40.109375zm-129.816406-40.300781c7.945313 0 17.410156 8.003906 17.410156 46.132812 0 12.164063-.320312 25.789063-5.582031 37.019532-3.0625 6.355468-10.289062 10.230468-17.242188 8.304687-12.277343-3.351562-27.007812-16.148437-35.347656-24.492187 2.066406-2.730469 3.699219-5.746094 4.871094-8.945313.003906-.011719.007812-.023437.011719-.03125 2.769531-7.601562 2.773437-16.097656.003906-23.699219-.003906-.015624-.011719-.035156-.019531-.050781-1.171875-3.203125-2.808594-6.21875-4.875-8.949219 9.863281-9.917968 27.890625-25.289062 40.769531-25.289062zm-98.183594 44.265625c.890625-9.835937 9.480469-17.707031 19.453125-17.707031h10.371094c8.078125 0 15.023438 4.921875 18.011719 11.917968.011719.023438.019531.046876.03125.074219 2.019531 4.753907 2.007812 10.410157 0 15.167969-.011719.023438-.019531.042969-.027344.066406-3.066406 7.136719-10.234375 11.921875-18.015625 11.921875 0 0-10.367188 0-10.371094 0-7.769531 0-14.96875-4.78125-18.011718-11.921875-.007813-.023437-.019532-.042968-.027344-.066406-1.226563-2.957031-1.707032-6.246094-1.414063-9.453125zm-48.90625-44.265625c12.882813 0 30.90625 15.367188 40.769531 25.289062-2.066406 2.734376-3.703124 5.75-4.875 8.953126-.003906.015624-.011718.03125-.015624.046874-2.839844 7.566407-2.734376 16.117188 0 23.695313.007812.011719.011718.027344.015624.039063 1.167969 3.191406 2.796876 6.195312 4.855469 8.921874-7.386719 7.398438-22.1875 20.875-35.246093 24.480469-.089844.023438-.175782.050781-.265626.078125-22.570312 5.992188-22.648437-32.382812-22.648437-45.371094 0-38.128906 9.46875-46.132812 17.410156-46.132812zm-112.257812 55.300781h80.042969c.011718.195313.023437.382813.03125.578125.507812 10.699219 1.746093 21.570313 5.867187 31.550782 4.664063 11.292968 15.488281 20.558593 28.207031 19.773437l27.011719 95.597656zm83.003906 167.140625c-4.113281-3.875-4.359375-10.652344-.492187-14.808594l20.945312-22.535156 46.429688 48.515625 20.957031 71.546875zm102.800781 80.425782-57.144531-199.464844c1.359375-.59375 2.707031-1.261719 4.046875-1.957032 11.929688-6.195312 22.4375-15.160156 31.789062-24.734374.085938.046874.175782.082031.265626.128906 4.875 2.511718 10.320312 3.863281 15.808593 3.863281h.046875 10.371094.042969c5.5 0 10.9375-1.367187 15.828125-3.871094.082031-.042969.164062-.078125.246094-.121093 6.570312 6.738281 19.1875 18.519531 32.921874 25.320312.960938.472656 1.933594.941406 2.914063 1.371094zm103.292969-95.234376c3.847656 4.140626 3.609375 10.945313-.496094 14.8125l-87.839843 82.714844 20.960937-71.546875 46.429687-48.515625s20.925782 22.515625 20.945313 22.535156zm-58.652344-4.832031 27.011719-95.597656c.628906.039063 1.261719.0625 1.898438.0625 24.777343 0 30.738281-28.980469 32.003906-48.335937.078125-1.210938.148437-2.417969.203125-3.628907h80.042969zm0 0"/></svg>