<svg height="512pt" viewBox="-32 0 512 512" width="512pt" xmlns="http://www.w3.org/2000/svg"><path d="m427.5 284.5v200c0 6.351562-2.960938 12.011719-7.578125 15.671875-3.410156 2.707031-7.730469 4.328125-12.421875 4.328125h-380c-4.691406 0-9.011719-1.621094-12.421875-4.328125-4.617187-3.660156-7.578125-9.320313-7.578125-15.671875v-200c0-6.351562 2.960938-12.011719 7.578125-15.671875 3.410156-2.707031 7.730469-4.328125 12.421875-4.328125h380c4.691406 0 9.011719 1.621094 12.421875 4.328125 4.617187 3.660156 7.578125 9.320313 7.578125 15.671875zm0 0" fill="#50536e"/><path d="m60 47.121094h315v402.378906h-315zm0 0" fill="#d8d5ed"/><path d="m345 47.121094h30v402.378906h-30zm0 0" fill="#bebade"/><path d="m427.5 284.5v200c0 6.351562-2.960938 12.011719-7.578125 15.671875-3.410156 2.707031-7.730469 4.328125-12.421875 4.328125h-380c-4.691406 0-9.011719-1.621094-12.421875-4.328125l404.84375-231.34375c4.617187 3.660156 7.578125 9.320313 7.578125 15.671875zm0 0" fill="#ffbd54"/><path d="m419.921875 500.171875c-3.410156 2.707031-7.730469 4.328125-12.421875 4.328125h-380c-4.691406 0-9.011719-1.621094-12.421875-4.328125-4.617187-3.660156-7.578125-9.320313-7.578125-15.671875v-200c0-6.351562 2.960938-12.011719 7.578125-15.671875zm0 0" fill="#ffd659"/><path d="m330.546875 213.941406-111.394531 57.015625-54.359375-54.363281 57.011719-111.390625c.691406-1.347656 2.496093-1.632813 3.566406-.5625l105.738281 105.734375c1.070313 1.070312.785156 2.878906-.5625 3.566406zm0 0" fill="#ffd659"/><path d="m176.0625 303.527344-2.828125 2.828125c-12.105469 12.105469-31.734375 12.105469-43.839844 0-12.105469-12.109375-12.105469-31.734375 0-43.84375l2.828125-2.828125zm0 0" fill="#ff2c5c"/><path d="m245.46875 334.53125c-5.859375 5.859375-15.355469 5.859375-21.214844 0l-61.515625-61.519531 21.210938-21.210938 61.519531 61.515625c5.855469 5.859375 5.855469 15.355469 0 21.214844zm0 0" fill="#50536e"/><path d="m221.804688 105.203125-12.964844 25.332031 96.375 96.371094 25.332031-12.964844c1.347656-.6875 1.632813-2.496094.5625-3.566406l-105.738281-105.734375c-1.070313-1.070313-2.875-.785156-3.566406.5625zm0 0" fill="#ffbd54"/><path d="m221.300781 273.84375-36.519531 36.519531c-1.628906 1.632813-4.273438 1.632813-5.90625 0l-53.488281-53.488281c-1.632813-1.632812-1.632813-4.277344 0-5.90625l36.515625-36.519531c1.632812-1.632813 4.277344-1.632813 5.910156 0l53.488281 53.488281c1.632813 1.632812 1.632813 4.277344 0 5.90625zm0 0" fill="#4fc6f5"/><path d="m161.902344 214.449219-21.210938 21.210937c1.628906-1.628906 4.277344-1.628906 5.90625 0l53.492188 53.492188c1.628906 1.628906 1.628906 4.273437 0 5.90625l21.210937-21.214844c1.632813-1.628906 1.632813-4.273438 0-5.90625l-53.488281-53.488281c-1.632812-1.632813-4.277344-1.632813-5.910156 0zm0 0" fill="#3bb3e3"/><path d="m439.5 77.5c0 6.015625-6.296875 11.125-7.777344 16.675781-1.535156 5.738281 1.316406 13.304688-1.589844 18.332031-2.953124 5.097657-10.957031 6.390626-15.09375 10.527344-4.140624 4.140625-5.433593 12.144532-10.53125 15.09375-5.027343 2.910156-12.59375.058594-18.332031 1.589844-5.550781 1.484375-10.660156 7.78125-16.675781 7.78125s-11.125-6.296875-16.675781-7.78125c-5.738281-1.535156-13.304688 1.320312-18.332031-1.589844-5.097657-2.949218-6.390626-10.953125-10.527344-15.09375-4.140625-4.136718-12.144532-5.429687-15.09375-10.527344-2.910156-5.027343-.058594-12.59375-1.589844-18.332031-1.484375-5.550781-7.78125-10.660156-7.78125-16.675781s6.296875-11.125 7.777344-16.675781c1.535156-5.738281-1.316406-13.304688 1.589844-18.332031 2.953124-5.097657 10.957031-6.390626 15.09375-10.527344 4.140624-4.140625 5.433593-12.144532 10.53125-15.09375 5.027343-2.910156 12.59375-.058594 18.332031-1.589844 5.550781-1.484375 10.660156-7.78125 16.675781-7.78125s11.125 6.296875 16.675781 7.777344c5.738281 1.535156 13.304688-1.316406 18.332031 1.589844 5.097657 2.953124 6.390626 10.957031 10.527344 15.09375 4.140625 4.140624 12.144532 5.433593 15.09375 10.53125 2.910156 5.027343.058594 12.59375 1.589844 18.332031 1.484375 5.550781 7.78125 10.660156 7.78125 16.675781zm0 0" fill="#ff2c5c"/><path d="m424.585938 262.957031c-.015626-.011719-.03125-.019531-.046876-.03125-.089843-.070312-.179687-.132812-.269531-.199219-4.785156-3.6875-10.71875-5.726562-16.769531-5.726562h-25v-17.5c0-4.144531-3.355469-7.5-7.5-7.5s-7.5 3.355469-7.5 7.5v50.644531l-150 85.714844-150-85.714844v-162.476562c0-4.144531-3.359375-7.5-7.5-7.5s-7.5 3.355469-7.5 7.5v129.332031h-25c-6.066406 0-12.011719 2.046875-16.792969 5.742188-.078125.058593-.160156.113281-.238281.175781-.015625.011719-.03125.023437-.046875.03125-6.621094 5.25-10.421875 13.105469-10.421875 21.550781v200c0 8.445312 3.800781 16.300781 10.414062 21.542969 4.835938 3.839843 10.902344 5.957031 17.085938 5.957031h380c6.078125 0 12.039062-2.054688 16.828125-5.769531.058594-.042969.121094-.085938.179687-.132813.023438-.015625.046876-.03125.070313-.050781 6.621094-5.246094 10.421875-13.101563 10.421875-21.546875v-200c0-8.445312-3.800781-16.300781-10.414062-21.542969zm-42.085938 9.042969h16.757812l-16.757812 9.574219zm-330 9.574219-16.757812-9.574219h16.757812zm-32.761719 212.714843c-3.011719-2.382812-4.738281-5.953124-4.738281-9.789062v-200c0-2.195312.582031-4.296875 1.632812-6.144531l288.707032 164.976562c1.171875.671875 2.449218.988281 3.710937.988281 2.605469 0 5.136719-1.355468 6.519531-3.78125 2.058594-3.59375.808594-8.175781-2.789062-10.230468l-80.164062-45.808594 185.75-106.144531c1.050781 1.847656 1.632812 3.949219 1.632812 6.144531v200c0 2.195312-.582031 4.296875-1.632812 6.144531l-77.820313-44.46875c-3.597656-2.054687-8.179687-.804687-10.230469 2.792969-2.054687 3.59375-.808594 8.175781 2.789063 10.230469l66.152343 37.800781h-371.757812c-2.847656 0-5.53125-.933594-7.761719-2.710938zm0 0"/><path d="m441.636719 91.355469c2.390625-3.632813 5.363281-8.148438 5.363281-13.855469s-2.976562-10.222656-5.363281-13.855469c-1.15625-1.753906-2.355469-3.570312-2.667969-4.757812-.355469-1.324219-.230469-3.582031-.109375-5.769531.238281-4.269532.535156-9.589844-2.238281-14.382813-2.800782-4.84375-7.59375-7.25-11.441406-9.183594-1.921876-.96875-3.914063-1.96875-4.835938-2.894531-.925781-.921875-1.925781-2.914062-2.894531-4.839844-1.933594-3.847656-4.339844-8.636718-9.1875-11.441406-4.789063-2.769531-10.109375-2.472656-14.382813-2.234375-2.183594.121094-4.441406.246094-5.769531-.109375-1.183594-.316406-3-1.511719-4.757813-2.667969-3.628906-2.386719-8.148437-5.363281-13.851562-5.363281s-10.222656 2.976562-13.855469 5.363281c-1.753906 1.15625-3.570312 2.355469-4.757812 2.667969-1.324219.355469-3.582031.230469-5.769531.109375-4.273438-.238281-9.59375-.535156-14.382813 2.238281-4.84375 2.800782-7.25 7.59375-9.183594 11.441406-.96875 1.921876-1.96875 3.914063-2.894531 4.835938-.921875.925781-2.914062 1.925781-4.839844 2.894531-3.847656 1.933594-8.636718 4.339844-11.441406 9.1875-.167969.289063-.324219.585938-.472656.882813h-241.902344c-4.140625 0-7.5 3.355468-7.5 7.5v48.878906c0 4.144531 3.359375 7.5 7.5 7.5s7.5-3.355469 7.5-7.5v-41.378906h232.71875c.078125 1.667968.089844 3.246094-.183594 4.269531-.316406 1.183594-1.511718 3-2.667968 4.757813-2.390626 3.628906-5.367188 8.148437-5.367188 13.851562 0 5.707031 2.976562 10.226562 5.367188 13.855469 1.15625 1.753906 2.351562 3.570312 2.667968 4.757812.351563 1.324219.226563 3.585938.105469 5.769531-.238281 4.273438-.535156 9.59375 2.238281 14.382813 1.402344 2.421875 3.300782 4.238281 5.332032 5.6875h-54.421876l-22.617187-22.617187c-2.195313-2.191407-5.332031-3.210938-8.398437-2.726563-3.058594.484375-5.730469 2.421875-7.136719 5.175781l-10.328125 20.164063h-89.308594c-4.140625 0-7.5 3.359375-7.5 7.5 0 4.144531 3.359375 7.5 7.5 7.5h81.632812l-10.75 21h-70.882812c-4.140625 0-7.5 3.359375-7.5 7.5 0 4.144531 3.359375 7.5 7.5 7.5h63.203125l-10.75 21h-52.453125c-4.140625 0-7.5 3.359375-7.5 7.5 0 4.144531 3.359375 7.5 7.5 7.5h41.316406c-.070312.066406-.144531.125-.214844.195312l-36.523437 36.519531c-4.511719 4.515626-4.542969 11.835938-.101563 16.398438-4.644531 6.476562-7.15625 14.226562-7.15625 22.367188 0 10.289062 4 19.957031 11.265626 27.222656 7.273437 7.273437 16.945312 11.277344 27.226562 11.277344 8.148438 0 15.902344-2.519532 22.371094-7.164063 2.261718 2.207031 5.203125 3.3125 8.144531 3.3125 2.992187 0 5.980469-1.136719 8.257813-3.414063l2.347656-2.347656 26.511718 26.515625c4.390626 4.386719 10.152344 6.578125 15.914063 6.578125s11.527344-2.191406 15.914063-6.578125c4.25-4.25 6.589843-9.902343 6.589843-15.910156s-2.339843-11.65625-6.589843-15.90625l-26.519532-26.519531 2.351563-2.351563c1.4375-1.441406 2.445312-3.191406 2.980469-5.101562l104.398437-53.4375c2.753906-1.417969 4.679687-4.09375 5.160156-7.152344.476563-3.058594-.542969-6.1875-2.730469-8.378906l-32.125-32.128907h27.210938c4.144531 0 7.5-3.355468 7.5-7.5 0-4.140624-3.355469-7.5-7.5-7.5h-42.210938l-21-21h55.257813c1.667969 2.863282 3.847656 5.742188 7.191406 7.675782 4.789063 2.769531 10.109375 2.472656 14.382813 2.234375 2.183594-.121094 4.441406-.246094 5.769531.105469 1.183594.316406 3 1.515624 4.757813 2.671874 3.195312 2.101563 7.078124 4.65625 11.851562 5.238282v53.128906c0 4.144531 3.359375 7.5 7.5 7.5 4.144531 0 7.5-3.355469 7.5-7.5v-57.804688c.289062-.1875.574219-.378906.855469-.5625 1.753906-1.15625 3.570312-2.351562 4.757812-2.667968 1.328125-.351563 3.585938-.226563 5.769531-.105469 4.273438.234375 9.59375.53125 14.382813-2.238281 4.84375-2.804688 7.253906-7.59375 9.1875-11.441406.964844-1.925782 1.964844-3.914063 2.890625-4.835938.925781-.925781 2.914062-1.925781 4.839844-2.894531 3.847656-1.933594 8.640625-4.339844 11.441406-9.1875 2.773438-4.789063 2.476562-10.109375 2.238281-14.382813-.125-2.183594-.25-4.441406.105469-5.769531.3125-1.183594 1.511719-3 2.667969-4.753906zm-306.945313 209.691406c-4.429687-4.433594-6.871094-10.332031-6.871094-16.617187 0-4.105469 1.046876-8.046876 2.996094-11.515626l32.007813 32.007813c-3.476563 1.960937-7.410157 3.011719-11.511719 3.011719-6.277344 0-12.179688-2.445313-16.621094-6.886719zm-1.65625-47.125 31.820313-31.820313 48.792969 48.789063-26.460938 26.460937c-.019531.019532-.039062.035157-.058594.054688-.023437.019531-.039062.042969-.058594.0625l-5.242187 5.242188zm107.132813 64.703125c1.417969 1.414062 2.195312 3.300781 2.195312 5.300781s-.777343 3.882813-2.199219 5.300781c-2.925781 2.925782-7.683593 2.925782-10.609374 0l-26.515626-26.511718 10.609376-10.609375zm-16.152344-58.578125-48.316406-48.316406 49.488281-96.667969 95.5 95.5zm205.089844-176.941406c-1.726563 2.625-3.6875 5.597656-4.632813 9.132812-.972656 3.640625-.769531 7.273438-.589844 10.476563.121094 2.160156.285157 5.121094-.246093 6.035156-.558594.96875-3.238281 2.3125-5.191407 3.296875-2.847656 1.429687-6.078124 3.054687-8.710937 5.6875-2.636719 2.636719-4.257813 5.863281-5.6875 8.710937-.984375 1.957032-2.328125 4.636719-3.296875 5.195313-.914062.527344-3.878906.363281-6.035156.242187-3.203125-.179687-6.835938-.378906-10.476563.59375-3.535156.945313-6.511719 2.902344-9.132812 4.628907-1.957031 1.289062-4.394531 2.894531-5.605469 2.894531s-3.648438-1.605469-5.605469-2.894531c-2.625-1.726563-5.597656-3.6875-9.132812-4.632813-2.164063-.574218-4.320313-.738281-6.390625-.738281-1.410156 0-2.785156.074219-4.085938.148437-2.160156.121094-5.125.285157-6.035156-.246093-.96875-.558594-2.3125-3.238281-3.296875-5.191407-1.429687-2.847656-3.054687-6.078124-5.6875-8.710937-2.636719-2.636719-5.863281-4.257813-8.710937-5.6875-1.957032-.984375-4.636719-2.328125-5.195313-3.296875-.527344-.914062-.363281-3.875-.242187-6.035156.179687-3.203125.378906-6.835938-.59375-10.476563-.945313-3.535156-2.902344-6.511719-4.628907-9.132812-1.289062-1.960938-2.894531-4.398438-2.894531-5.605469 0-1.210938 1.601562-3.648438 2.894531-5.605469 1.726563-2.625 3.683594-5.601562 4.628907-9.132812.972656-3.644531.773437-7.273438.59375-10.476563-.078126-1.375-.167969-3.070312-.09375-4.359375.003906-.035156.007812-.074219.011718-.109375.046875-.683594.144532-1.253906.324219-1.570312.5625-.964844 3.238281-2.3125 5.195313-3.292969 2.847656-1.433594 6.074218-3.054687 8.710937-5.6875 2.632813-2.636719 4.257813-5.863281 5.6875-8.710937.984375-1.957032 2.328125-4.636719 3.296875-5.195313.910156-.53125 3.875-.363281 6.035156-.242187 3.203125.179687 6.835938.378906 10.476563-.59375 3.535156-.945313 6.507812-2.902344 9.132812-4.632813 1.957031-1.285156 4.394531-2.890625 5.605469-2.890625s3.648438 1.605469 5.605469 2.894531c2.625 1.726563 5.597656 3.6875 9.132812 4.632813 3.644531.96875 7.269531.769531 10.476563.589844 2.160156-.121094 5.125-.285157 6.035156.246093.96875.558594 2.3125 3.238281 3.296875 5.191407 1.429687 2.847656 3.054687 6.078124 5.6875 8.710937 2.636719 2.636719 5.863281 4.257813 8.710937 5.6875 1.957032.984375 4.636719 2.328125 5.195313 3.296875.527344.914062.363281 3.875.242187 6.035156-.179687 3.203125-.378906 6.835938.59375 10.476563.945313 3.535156 2.902344 6.511719 4.628907 9.132812 1.289062 1.960938 2.894531 4.398438 2.894531 5.605469 0 1.210938-1.605469 3.648438-2.894531 5.605469zm0 0"/><path d="m354.636719 55.136719c0 4.140625-3.359375 7.5-7.5 7.5s-7.5-3.359375-7.5-7.5 3.359375-7.5 7.5-7.5 7.5 3.359375 7.5 7.5zm0 0"/><path d="m399.363281 99.863281c0 4.140625-3.359375 7.5-7.5 7.5s-7.5-3.359375-7.5-7.5 3.359375-7.5 7.5-7.5 7.5 3.359375 7.5 7.5zm0 0"/><path d="m386.90625 49.484375-45.421875 45.421875c-2.929687 2.929688-2.929687 7.679688 0 10.609375 1.464844 1.460937 3.386719 2.195313 5.304687 2.195313 1.917969 0 3.839844-.734376 5.304688-2.195313l45.421875-45.421875c2.929687-2.933594 2.929687-7.679688 0-10.609375-2.929687-2.925781-7.679687-2.925781-10.609375 0zm0 0"/></svg>