<svg height="511pt" viewBox="1 -73 511.99988 511" width="511pt" xmlns="http://www.w3.org/2000/svg"><path d="m351.039062 331.671875c88.671876-42.683594 150.960938-128.738281 150.960938-128.738281s-62.289062-86.058594-150.960938-128.742188" fill="#eaecf0"/><path d="m160.960938 74.191406c-88.671876 42.683594-150.960938 128.742188-150.960938 128.742188s62.289062 86.054687 150.960938 128.738281" fill="#eaecf0"/><path d="m488.238281 136.121094c-2.628906 0-5.207031-1.070313-7.070312-2.929688-1.859375-1.871094-2.929688-4.441406-2.929688-7.070312 0-.660156.070313-1.308594.203125-1.960938.117188-.640625.316406-1.269531.566406-1.867187.25-.601563.5625-1.183594.921876-1.730469.359374-.539062.78125-1.0625 1.238281-1.511719.460937-.46875.972656-.878906 1.523437-1.25.539063-.359375 1.117188-.667969 1.726563-.917969.601562-.25 1.230469-.441406 1.871093-.570312 1.289063-.261719 2.609376-.261719 3.902344 0 .636719.128906 1.269532.320312 1.878906.570312.597657.25 1.179688.558594 1.71875.917969.550782.371094 1.0625.78125 1.519532 1.25.460937.449219.882812.972657 1.25 1.511719.359375.550781.671875 1.128906.921875 1.730469.238281.597656.4375 1.226562.558593 1.867187.128907.652344.199219 1.300782.199219 1.960938 0 .648437-.070312 1.3125-.199219 1.949218-.121093.640626-.320312 1.273438-.558593 1.871094-.25.601563-.5625 1.191406-.921875 1.730469-.367188.539063-.789063 1.058594-1.25 1.519531-.457032.460938-.96875.878906-1.519532 1.238282-.539062.359374-1.121093.671874-1.71875.921874-.609374.25-1.242187.4375-1.878906.570313-.640625.128906-1.300781.199219-1.953125.199219zm0 0"/><path d="m22.503906 137.371094c-2.539062 0-5.078125-.960938-7.027344-2.882813-3.929687-3.882812-3.96875-10.214843-.085937-14.144531 27.359375-27.703125 71.046875-66.054688 123.78125-91.441406 39.160156-18.847656 78.46875-28.402344 116.828125-28.402344s77.664062 9.554688 116.824219 28.398438c26.078125 12.554687 52.316406 29.375 77.984375 49.988281 6.230468 5.007812 12.507812 10.304687 18.660156 15.746093 4.136719 3.65625 4.523438 9.976563.863281 14.113282-3.65625 4.136718-9.976562 4.523437-14.113281.867187-5.917969-5.234375-11.949219-10.324219-17.9375-15.132812-24.480469-19.664063-49.421875-35.664063-74.132812-47.558594-36.425782-17.53125-72.816407-26.421875-108.148438-26.421875s-71.722656 8.890625-108.15625 26.425781c-50.152344 24.144531-91.972656 60.894531-118.226562 87.472657-1.953126 1.980468-4.535157 2.972656-7.113282 2.972656zm0 0"/><path d="m415.976562 202.933594c0 52.777344-25.546874 99.589844-64.9375 128.738281-29.238281 14.070313-61.34375 23.429687-95.039062 23.429687s-65.800781-9.359374-95.039062-23.429687c-39.390626-29.148437-64.9375-75.960937-64.9375-128.738281 0-52.78125 25.546874-99.59375 64.9375-128.742188 29.238281-14.070312 61.34375-23.429687 95.039062-23.429687s65.800781 9.359375 95.039062 23.429687c39.390626 29.148438 64.9375 75.960938 64.9375 128.742188zm0 0" fill="#0082a0"/><path d="m510.101562 197.070312c-2.605468-3.597656-64.808593-88.601562-154.726562-131.890624-.007812-.003907-.019531-.007813-.03125-.015626-33.660156-16.195312-67.085938-24.402343-99.34375-24.402343s-65.679688 8.207031-99.34375 24.402343c-.011719.007813-.023438.011719-.035156.015626-89.914063 43.285156-152.117188 128.292968-154.722656 131.890624-2.53125 3.496094-2.53125 8.226563 0 11.726563 2.605468 3.597656 64.808593 88.601563 154.726562 131.886719.023438.011718.042969.023437.066406.03125 33.648438 16.183594 67.058594 24.390625 99.308594 24.390625s65.660156-8.207031 99.308594-24.390625c.023437-.011719.046875-.019532.070312-.03125 89.914063-43.285156 152.117188-128.289063 154.722656-131.886719 2.53125-3.5 2.53125-8.230469 0-11.726563zm-487.507812 5.859376c11.183594-14.199219 42.496094-51.621094 85.878906-84.492188-1.265625 2.199219-2.476562 4.425781-3.640625 6.679688-12.304687 23.871093-18.808593 50.78125-18.808593 77.816406 0 27.03125 6.503906 53.9375 18.808593 77.8125 1.15625 2.242187 2.363281 4.457031 3.621094 6.648437-43.332031-32.855469-74.671875-70.28125-85.859375-84.464843zm143.5625 120.144531c-37.671875-28.246094-60.132812-73.085938-60.132812-120.140625 0-47.058594 22.460937-91.898438 60.132812-120.144532 30.648438-14.617187 60.871094-22.027343 89.84375-22.027343s59.195312 7.410156 89.84375 22.027343c37.671875 28.246094 60.132812 73.085938 60.132812 120.144532 0 47.054687-22.460937 91.894531-60.132812 120.140625-30.648438 14.617187-60.871094 22.03125-89.84375 22.03125s-59.195312-7.414063-89.84375-22.03125zm237.390625-35.679688c1.257813-2.191406 2.464844-4.40625 3.621094-6.648437 12.304687-23.875 18.808593-50.78125 18.808593-77.8125 0-27.035156-6.503906-53.941406-18.808593-77.816406-1.15625-2.242188-2.367188-4.460938-3.625-6.648438 43.332031 32.851562 74.667969 70.273438 85.859375 84.464844-11.195313 14.191406-42.53125 51.613281-85.855469 84.460937zm0 0"/><path d="m256 314.292969c-61.382812 0-111.320312-49.957031-111.320312-111.359375 0-61.40625 49.9375-111.363282 111.320312-111.363282s111.320312 49.957032 111.320312 111.363282c0 61.402344-49.9375 111.359375-111.320312 111.359375zm0 0" fill="#ffd36c"/><path d="m256 324.289062c-66.894531 0-121.320312-54.4375-121.320312-121.355468 0-66.917969 54.425781-121.363282 121.320312-121.363282s121.320312 54.445313 121.320312 121.363282c0 66.917968-54.421874 121.355468-121.320312 121.355468zm0-222.71875c-55.867188 0-101.320312 45.472657-101.320312 101.363282 0 55.886718 45.453124 101.355468 101.320312 101.355468s101.320312-45.46875 101.320312-101.355468c0-55.894532-45.453124-101.363282-101.320312-101.363282zm0 0"/><path d="m327.074219 202.933594c0-39.269532-31.820313-71.101563-71.074219-71.101563s-71.074219 31.832031-71.074219 71.101563c0 39.265625 31.820313 71.097656 71.074219 71.097656s71.074219-31.832031 71.074219-71.097656zm0 0" fill="#f4b74a"/><path d="m256 284.03125c-44.707031 0-81.074219-36.378906-81.074219-81.097656s36.367188-81.101563 81.074219-81.101563c44.703125 0 81.074219 36.382813 81.074219 81.101563s-36.371094 81.097656-81.074219 81.097656zm0-142.199219c-33.675781 0-61.074219 27.40625-61.074219 61.101563 0 33.6875 27.398438 61.097656 61.074219 61.097656s61.074219-27.410156 61.074219-61.097656c0-33.691406-27.398438-61.101563-61.074219-61.101563zm0 0"/><path d="m254.433594 237.941406c-12.074219-.402344-21.9375-6.644531-21.9375-13.085937 0-3.421875 3.019531-8.457031 6.84375-8.457031 4.226562 0 7.648437 5.941406 15.09375 7.25v-16.304688c-9.257813-3.523438-20.125-7.855469-20.125-20.738281 0-12.78125 9.457031-18.921875 20.125-20.429688v-2.820312c0-1.410157 1.609375-2.71875 3.824218-2.71875 1.910157 0 3.820313 1.308593 3.820313 2.71875v2.515625c6.238281.203125 18.011719 1.8125 18.011719 8.757812 0 2.71875-1.808594 8.253906-6.238282 8.253906-3.320312 0-5.230468-3.222656-11.773437-3.726562v14.695312c9.15625 3.421876 19.824219 8.15625 19.824219 21.742188 0 12.480469-8.050782 20.03125-19.824219 21.945312v2.917969c0 1.40625-1.910156 2.71875-3.820313 2.71875-2.214843 0-3.824218-1.308593-3.824218-2.71875zm1.003906-46.503906v-11.980469c-4.527344.90625-6.4375 3.222657-6.4375 5.640625 0 2.917969 2.617188 4.730469 6.4375 6.339844zm5.636719 18.621094v13.488281c3.421875-.804687 6.136719-2.71875 6.136719-6.34375 0-3.320313-2.515626-5.433594-6.136719-7.144531zm0 0"/></svg>