<?xml version="1.0" encoding="iso-8859-1"?>
<!-- Generator: Adobe Illustrator 19.0.0, SVG Export Plug-In . SVG Version: 6.00 Build 0)  -->
<svg version="1.1" id="Capa_1" xmlns="http://www.w3.org/2000/svg" xmlns:xlink="http://www.w3.org/1999/xlink" x="0px" y="0px"
	 viewBox="0 0 436.907 436.907" style="enable-background:new 0 0 436.907 436.907;" xml:space="preserve">
<path style="fill:#FFFFFF;" d="M238.933,331.093H42.274c-19.577,0-35.447-15.87-35.447-35.447V100.301
	c0-19.577,15.87-35.447,35.447-35.447h352.358c19.577,0,35.447,15.87,35.447,35.447v195.345c0,19.577-15.87,35.447-35.447,35.447
	h-97.386"/>
<g>
	<path style="fill:#602F75;" d="M394.633,337.92h-97.386c-3.77,0-6.827-3.057-6.827-6.827c0-3.77,3.057-6.827,6.827-6.827h97.386
		c15.78,0,28.621-12.839,28.621-28.621V100.301c0-15.78-12.839-28.621-28.621-28.621H42.274c-15.782,0-28.621,12.839-28.621,28.621
		v195.345c0,15.78,12.839,28.621,28.621,28.621h196.659c3.77,0,6.827,3.057,6.827,6.827c0,3.77-3.057,6.827-6.827,6.827H42.274
		C18.963,337.92,0,318.957,0,295.646V100.301c0-23.311,18.963-42.274,42.274-42.274h352.358c23.311,0,42.274,18.963,42.274,42.274
		v195.345C436.907,318.957,417.944,337.92,394.633,337.92z"/>
	<path style="fill:#602F75;" d="M116.053,112.64H47.787c-3.77,0-6.827-3.057-6.827-6.827c0-3.77,3.057-6.827,6.827-6.827h68.267
		c3.77,0,6.827,3.057,6.827,6.827C122.88,109.583,119.823,112.64,116.053,112.64z"/>
	<path style="fill:#602F75;" d="M395.947,146.773H259.413c-3.77,0-6.827-3.057-6.827-6.827s3.057-6.827,6.827-6.827h136.533
		c3.77,0,6.827,3.057,6.827,6.827S399.717,146.773,395.947,146.773z"/>
	<path style="fill:#602F75;" d="M334.507,112.64h-184.32c-3.77,0-6.827-3.057-6.827-6.827c0-3.77,3.057-6.827,6.827-6.827h184.32
		c3.77,0,6.827,3.057,6.827,6.827C341.333,109.583,338.277,112.64,334.507,112.64z"/>
	<path style="fill:#602F75;" d="M177.493,194.56H47.787c-3.77,0-6.827-3.057-6.827-6.827s3.057-6.827,6.827-6.827h129.707
		c3.77,0,6.827,3.057,6.827,6.827S181.263,194.56,177.493,194.56z"/>
	<path style="fill:#602F75;" d="M177.493,228.693H47.787c-3.77,0-6.827-3.057-6.827-6.827c0-3.77,3.057-6.827,6.827-6.827h129.707
		c3.77,0,6.827,3.057,6.827,6.827C184.32,225.637,181.263,228.693,177.493,228.693z"/>
	<path style="fill:#602F75;" d="M232.107,146.773H47.787c-3.77,0-6.827-3.057-6.827-6.827s3.057-6.827,6.827-6.827h184.32
		c3.77,0,6.827,3.057,6.827,6.827S235.877,146.773,232.107,146.773z"/>
</g>
<g>
	<polygon style="fill:#FFE600;" points="75.093,249.173 82.976,262.827 98.741,262.827 90.86,276.48 98.741,290.133 82.976,290.133 
		75.093,303.787 67.21,290.133 51.446,290.133 59.327,276.48 51.446,262.827 67.21,262.827 	"/>
	<path style="fill:#FFE600;" d="M75.093,310.613c-2.441,0-4.693-1.3-5.914-3.413l-5.91-10.24H51.446c-2.441,0-4.693-1.3-5.914-3.413
		c-1.217-2.109-1.217-4.714,0-6.827l5.91-10.24l-5.91-10.24c-1.217-2.113-1.217-4.717,0-6.827c1.22-2.113,3.473-3.413,5.914-3.413
		H63.27l5.91-10.24c2.441-4.227,9.387-4.227,11.827,0l5.91,10.24h11.824c2.441,0,4.693,1.3,5.914,3.413
		c1.217,2.109,1.217,4.714,0,6.827l-5.91,10.24l5.91,10.24c1.217,2.113,1.217,4.717,0,6.827c-1.22,2.113-3.473,3.413-5.914,3.413
		H86.917l-5.91,10.24C79.787,309.313,77.534,310.613,75.093,310.613z M63.27,283.307h3.941c2.441,0,4.693,1.3,5.914,3.413
		l1.97,3.413l1.969-3.413c1.22-2.113,3.473-3.413,5.914-3.413h3.941l-1.969-3.413c-1.217-2.113-1.217-4.714,0-6.827l1.969-3.413
		h-3.941c-2.441,0-4.693-1.3-5.914-3.413l-1.969-3.413l-1.969,3.413c-1.22,2.113-3.473,3.413-5.914,3.413H63.27l1.969,3.413
		c1.217,2.113,1.217,4.714,0,6.827L63.27,283.307z"/>
	<polygon style="fill:#FFE600;" points="150.187,249.173 158.07,262.827 173.834,262.827 165.953,276.48 173.834,290.133 
		158.07,290.133 150.187,303.787 142.304,290.133 126.539,290.133 134.42,276.48 126.539,262.827 142.304,262.827 	"/>
	<path style="fill:#FFE600;" d="M150.187,310.613c-2.441,0-4.693-1.3-5.914-3.413l-5.91-10.24h-11.824
		c-2.441,0-4.693-1.3-5.914-3.413c-1.217-2.109-1.217-4.714,0-6.827l5.91-10.24l-5.91-10.24c-1.217-2.113-1.217-4.717,0-6.827
		c1.22-2.113,3.473-3.413,5.914-3.413h11.824l5.91-10.24c2.441-4.227,9.387-4.227,11.827,0l5.91,10.24h11.824
		c2.441,0,4.693,1.3,5.914,3.413c1.217,2.109,1.217,4.714,0,6.827l-5.91,10.24l5.91,10.24c1.217,2.113,1.217,4.717,0,6.827
		c-1.22,2.113-3.473,3.413-5.914,3.413H162.01l-5.91,10.24C154.88,309.313,152.627,310.613,150.187,310.613z M138.363,283.307h3.941
		c2.441,0,4.693,1.3,5.914,3.413l1.969,3.413l1.969-3.413c1.22-2.113,3.473-3.413,5.914-3.413h3.941l-1.969-3.413
		c-1.217-2.113-1.217-4.714,0-6.827l1.969-3.413h-3.941c-2.441,0-4.693-1.3-5.914-3.413l-1.969-3.413l-1.969,3.413
		c-1.22,2.113-3.473,3.413-5.914,3.413h-3.941l1.969,3.413c1.217,2.113,1.217,4.714,0,6.827L138.363,283.307z"/>
</g>
<polygon style="fill:#EA3457;" points="341.333,256 273.067,256 273.067,372.053 307.2,344.747 341.333,372.053 "/>
<path style="fill:#602F75;" d="M341.333,378.88c-1.521,0-3.029-0.51-4.263-1.497L307.2,353.49l-29.87,23.893
	c-2.05,1.64-4.861,1.956-7.219,0.823c-2.367-1.137-3.871-3.529-3.871-6.153V256c0-3.77,3.057-6.827,6.827-6.827h68.267
	c3.77,0,6.827,3.057,6.827,6.827v116.053c0,2.623-1.504,5.016-3.871,6.153C343.351,378.656,342.34,378.88,341.333,378.88z
	 M307.2,337.92c1.51,0,3.017,0.5,4.263,1.497l23.043,18.434v-95.024h-54.613v95.024l23.043-18.434
	C304.183,338.42,305.69,337.92,307.2,337.92z"/>
<circle style="fill:#00E7FF;" cx="307.2" cy="221.867" r="61.44"/>
<path style="fill:#602F75;" d="M307.2,290.133c-37.644,0-68.267-30.623-68.267-68.267S269.556,153.6,307.2,153.6
	s68.267,30.623,68.267,68.267S344.844,290.133,307.2,290.133z M307.2,167.253c-30.114,0-54.613,24.499-54.613,54.613
	s24.499,54.613,54.613,54.613s54.613-24.499,54.613-54.613S337.314,167.253,307.2,167.253z"/>
<g>
</g>
<g>
</g>
<g>
</g>
<g>
</g>
<g>
</g>
<g>
</g>
<g>
</g>
<g>
</g>
<g>
</g>
<g>
</g>
<g>
</g>
<g>
</g>
<g>
</g>
<g>
</g>
<g>
</g>
</svg>
