<?xml version="1.0" encoding="iso-8859-1"?>
<!-- Generator: Adobe Illustrator 19.0.0, SVG Export Plug-In . SVG Version: 6.00 Build 0)  -->
<svg version="1.1" id="Capa_1" xmlns="http://www.w3.org/2000/svg" xmlns:xlink="http://www.w3.org/1999/xlink" x="0px" y="0px"
	 viewBox="0 0 512 512" style="enable-background:new 0 0 512 512;" xml:space="preserve">
<path style="fill:#F0A479;" d="M322.884,371.814c3.669-9.904,1.811-24.295-7.641-29.751l14.444,8.341
	c26.4,15.242,41.705-23.14,19.066-36.213l-26.584-15.345l12.183,7.021c10.54,6.076,26.011,2.454,32.089-8.089
	c6.075-10.541,3.424-22.954-7.121-29.029l-105.305-59.222l28.617-17.37l-70.491-8.774c-31.186-3.026-28.15-42.358-2.587-44.708
	L319.284,126.6c0.18-0.014,14.669-1.219,27.811,2.374v-0.004c31.067,8.309,25.675,11.522,73.316-16.001
	c20.03-11.564,29.06,3.768,29.256,4.111c31.222,55.305,19.771,35.244,50.467,88.42c8.521,14.763,3.161,26.573-5.874,31.682
	c0,0-3.563,2.075-3.576,2.083c-25.057,14.44-19.066,10.99-27.961,16.114c-27.672,15.947-9.278,41.829-43.707,61.664l-80.53,46.416
	l0.036,0.059L322.884,371.814z"/>
<path style="fill:#EA976E;" d="M222.395,158.517l109.731-12.076c0.18-0.014,14.669-1.219,27.811,2.374v-0.004
	c26.239,7.018,26.91,10.788,57.933-7.117c14.623-8.586,28.118-18.948,40.366-9.433l-8.57-15.181
	c-0.196-0.344-9.227-15.675-29.256-4.111c-0.747,0.432-1.44,0.773-2.105,1.073c-20.593,11.886-37.788,24.058-52.185,20.129
	c0,0-18.873-5.159-19.027-5.2v0.004c-13.142-3.593-27.631-2.388-27.811-2.374l-109.731,12.076
	c-22.507,2.068-27.537,32.794-7.136,42.178C202.366,170.269,209.518,159.699,222.395,158.517z"/>
<path style="fill:#D8825D;" d="M325.886,370.814c3.842-10.428-0.693-21.601-9.643-26.749l14.444,8.341
	c10.551,6.092,24.046,2.474,30.14-8.077c6.093-10.549,2.476-24.046-8.073-30.137l-26.584-15.345l12.183,7.021
	c10.54,6.076,24.01,2.454,30.088-8.089c6.074-10.541,2.423-23.955-8.122-30.029l-130.924-75.592l26.619-3.41l-41.874-5.363
	c-31.186-3.026-28.15-42.358-2.587-44.708l44.462-4.985c-61.706-6.917-73.039-9.651-91.081-4.718v-0.004
	c-23.111,6.141-26.297,10.849-53.064-4.307c-10.138-5.85-11.658-6.876-18.147-10.621c-0.665-0.299-1.358-0.641-2.105-1.073
	c-20.031-11.564-29.06,3.768-29.256,4.111c-35.955,63.685-18.51,32.95-50.468,88.42c-11.913,20.643,4.178,30.692,5.763,31.619
	c0.622,0.352-1.2-0.698,3.393,1.955c0.104,0.064,0.194,0.131,0.296,0.191c25.058,14.44,19.067,10.99,27.96,16.114
	c27.71,15.968,9.247,41.809,43.709,61.664l80.53,46.416l-0.036,0.059l63.869,36.874c10.542,6.086,24.027,2.473,30.115-8.067
	c6.086-10.544,2.474-24.028-8.069-30.111l34.758,20.066C305.807,388.993,321.027,383.903,325.886,370.814L325.886,370.814z"/>
<g>
	<path style="fill:#CE7657;" d="M251.698,387.195l-65.742-37.956l0.037-0.06l-82.893-47.777
		c-35.221-20.292-16.514-47.062-44.992-63.472c-9.154-5.274-2.987-1.724-28.781-16.588c-0.104-0.061-0.198-0.132-0.305-0.196
		c-3.525-2.038-3.376-1.947-3.376-1.947c-6.083-3.444-11.056-10.766-10.475-19.377c-2.873,4.976-3.281,5.679-3.281,5.679
		c-11.913,20.643,4.178,30.692,5.763,31.619c0.622,0.352-1.2-0.698,3.393,1.955c0.104,0.064,0.194,0.131,0.296,0.191
		c25.058,14.44,19.067,10.99,27.96,16.114c27.71,15.968,9.247,41.809,43.709,61.664l80.53,46.416l-0.036,0.059l63.869,36.874
		c11.581,6.686,26.483,1.611,31.498-10.92C263.276,390.959,257.11,390.32,251.698,387.195z"/>
	<path style="fill:#CE7657;" d="M166.296,285.016c-4.785-2.763-10.904-1.123-13.668,3.662c-2.763,4.786-1.123,10.905,3.663,13.668
		l141.101,81.456c9.401,3.576,20.193,0.301,25.978-8.11L166.296,285.016z"/>
	<path style="fill:#CE7657;" d="M189.456,247.405c-4.787-2.766-10.904-1.127-13.669,3.66c-2.764,4.785-1.125,10.904,3.661,13.668
		l154.433,89.188c9.403,3.585,20.2,0.313,25.993-8.097L189.456,247.405z"/>
	<path style="fill:#CE7657;" d="M214.045,210.686c-4.786-2.761-10.904-1.123-13.668,3.664c-2.763,4.786-1.123,10.904,3.664,13.668
		l137.453,79.342c9.406,3.606,20.216,0.328,26.003-8.097L214.045,210.686z"/>
</g>
<path d="M364.107,141.41c17.502,4.775,35.558-7.814,60.017-21.943c12.347-7.13,17.654-0.793,19.02,1.393l18.251,32.33
	c1.38,2.442,3.922,3.815,6.542,3.815c5.717,0,9.352-6.191,6.528-11.194l-18.321-32.451c-0.501-0.878-5.18-8.649-15.08-11.326
	c-9.409-2.547-18.065,0.62-26.548,5.508c-18.383,10.608-35.428,22.407-46.459,19.389c-3.996-1.091-8.124,1.266-9.215,5.264
	C357.751,136.193,360.107,140.318,364.107,141.41z"/>
<path d="M506.593,201.749l-14.772-25.587c-2.072-3.59-6.663-4.818-10.251-2.747c-3.589,2.072-4.819,6.662-2.747,10.251
	l14.771,25.586c5.927,10.269,3.22,17.835-3.159,21.446c-0.142,0.082-3.287,1.898-3.419,1.98c-0.908,0.549,3.696-2.113-28.083,16.201
	c-10.677,6.154-17.597,16.871-19.451,22.813c-11.125,35.473-4.955,27.728-68.338,64.26c0.704-8.099-1.939-16.668-8.049-23.061
	c20.381-10.714,21.213-39.962,0.937-51.64l-93.049-53.724l15.362-8.87c2.789-1.61,4.238-4.819,3.605-7.977
	c-0.634-3.156-3.211-5.557-6.404-5.966c-0.259-0.033-68.459-8.772-68.719-8.799c-21.62-2.097-19.907-27.716-2.476-29.781
	c116.599-13.071,108.575-12.569,117.764-12.118c4.133,0.201,7.66-2.987,7.864-7.127c0.204-4.139-2.987-7.659-7.126-7.864
	c-11.084-0.541-7.677-0.416-74.873,7.116c-68.031-7.625-63.123-7.25-69.449-7.25c-23.483,0-38.907,8.523-46.452,8.528
	c-9.002,0-21.37-7.451-29.319-12.037c-16.339-9.593-15.43-8.911-15.43-8.911c-18.169-10.489-33.465-3.721-39.543,6.921
	c-25.638,45.414-22.393,39.912-50.433,88.359c-11.001,19.064-3.525,35.064,8.684,41.967l0.001-0.001c0,0-0.259-0.126,31.481,18.166
	c23.612,13.609,6.462,40.204,43.708,61.664c156.676,90.302,148.327,87.307,159.111,87.307c16.25,0,29.457-13.181,29.583-29.272
	c12.649,7.303,17.557,11.162,27.23,11.162c11.533,0,21.875-6.753,26.616-16.684c6.542-3.777-2.743,1.491,90.955-52.513
	c15.917-9.171,22.306-20.891,24.698-27.061c0.138-0.358,6.211-19.75,6.326-20.117c0.36-0.92,3.883-9.415,12.682-14.486
	c29.938-17.255,31.484-18.168,31.484-18.168l0.001,0.001C508.07,237.972,518.717,222.754,506.593,201.749z M344.715,300.558
	c-2.066-0.689,5.666,3.621-126.957-72.933c-3.59-2.073-8.179-0.841-10.251,2.748c-2.072,3.589-0.841,8.179,2.748,10.25
	c6.132,3.539,131.922,76.15,138.708,80.067c9.662,5.577,9.686,19.499,0.121,25.128c-3.154,1.859-6.99,2.536-10.754,1.643
	c-3.106-0.731,7.628,5.119-145.16-83.119c-3.589-2.071-8.179-0.843-10.252,2.746c-2.073,3.589-0.843,8.179,2.746,10.252
	c136.265,78.696,129.341,73.813,132.071,78.5c7.435,12.624-6.835,27.452-19.84,19.943l-10.502-6.063l-0.001-0.001
	c-4.575-2.641-18.061-10.427-24.252-14.001c0,0-92.767-53.553-93.129-53.762c-3.589-2.074-8.179-0.843-10.251,2.747
	c-2.072,3.59-0.842,8.18,2.748,10.251l93.129,53.762c12.782,7.379,7.589,27.13-7.296,27.13c-5.562,0,3.993,4.388-151.617-85.303
	c-11.731-6.758-16.366-14.883-18.111-19.264c-0.052-0.168-6.153-19.624-6.21-19.79c-0.202-0.583-5.096-14.373-19.388-22.61
	c-50.631-29.181-10.37-5.967-31.5-18.18c-7.897-4.652-8.051-12.969-3.159-21.446c30.493-52.812,19.707-33.93,50.451-88.389
	c0.393-0.622,3.184-4.699,8.785-4.699c4.902,0,9.07,2.399,20.866,9.38c38.289,22.686,40.089,18.398,68.178,10.73
	c13.386-3.093,20.622-2.735,32.201-1.437c-22.542,12.59-20.464,52.526,14.426,56.003c6.016,0.77,4.15,0.532,8.597,1.101
	c-0.079,2.723,1.334,5.319,3.749,6.714c141.108,81.472,132.138,75.962,134.295,78.249
	C370.388,288.035,358.489,305.353,344.715,300.558z"/>
<g>
</g>
<g>
</g>
<g>
</g>
<g>
</g>
<g>
</g>
<g>
</g>
<g>
</g>
<g>
</g>
<g>
</g>
<g>
</g>
<g>
</g>
<g>
</g>
<g>
</g>
<g>
</g>
<g>
</g>
</svg>
