<svg xmlns="http://www.w3.org/2000/svg" height="512pt" version="1.1" viewBox="0 -15 512 512" width="512pt">
<g id="surface1">
<path d="M 466.875 0 L 45.125 0 C 20.203125 0 0 20.203125 0 45.125 L 0 295.285156 C 0 320.207031 20.203125 340.40625 45.125 340.40625 L 67.300781 340.40625 C 74.359375 340.40625 78.84375 347.964844 75.460938 354.15625 L 9.222656 475.492188 C 6.992188 479.574219 11.757812 483.890625 15.601562 481.273438 L 219.566406 342.453125 C 221.523438 341.121094 223.835938 340.40625 226.199219 340.40625 L 466.875 340.40625 C 491.796875 340.40625 512 320.203125 512 295.285156 L 512 45.125 C 512 20.203125 491.796875 0 466.875 0 Z M 466.875 0 " style=" stroke:none;fill-rule:nonzero;fill:rgb(94.901961%,94.901961%,94.901961%);fill-opacity:1;" />
<path d="M 319.328125 44.449219 L 154.230469 120.785156 L 101.03125 120.785156 C 92.40625 120.785156 85.417969 127.773438 85.417969 136.398438 L 85.417969 194.257812 C 85.417969 202.882812 92.40625 209.871094 101.03125 209.871094 L 154.230469 209.871094 L 319.328125 286.207031 C 323.746094 288.25 328.796875 285.023438 328.796875 280.15625 L 328.796875 50.5 C 328.796875 45.632812 323.75 42.40625 319.328125 44.449219 Z M 319.328125 44.449219 " style=" stroke:none;fill-rule:nonzero;fill:rgb(99.215686%,44.313725%,36.078431%);fill-opacity:1;" />
<path d="M 154.230469 153.195312 L 85.417969 153.195312 L 85.417969 194.257812 C 85.417969 202.882812 92.410156 209.871094 101.03125 209.871094 L 154.230469 209.871094 L 319.332031 286.207031 C 323.75 288.25 328.796875 285.023438 328.796875 280.15625 L 328.796875 233.804688 Z M 154.230469 153.195312 " style=" stroke:none;fill-rule:nonzero;fill:rgb(93.333333%,33.72549%,27.45098%);fill-opacity:1;" />
<path d="M 154.230469 209.871094 L 101.03125 209.871094 C 92.410156 209.871094 85.417969 202.882812 85.417969 194.257812 L 85.417969 136.394531 C 85.417969 127.773438 92.410156 120.78125 101.03125 120.78125 L 154.230469 120.78125 Z M 154.230469 209.871094 " style=" stroke:none;fill-rule:nonzero;fill:rgb(23.529412%,33.72549%,40%);fill-opacity:1;" />
<path d="M 96.003906 209.027344 C 96.257812 209.113281 96.515625 209.195312 96.773438 209.269531 C 98.128906 209.652344 99.554688 209.871094 101.03125 209.871094 L 154.230469 209.871094 L 154.230469 153.195312 L 85.417969 153.195312 L 85.417969 194.257812 C 85.417969 196.953125 86.101562 199.488281 87.304688 201.699219 C 89.160156 205.121094 92.269531 207.757812 96.003906 209.027344 Z M 96.003906 209.027344 " style=" stroke:none;fill-rule:nonzero;fill:rgb(9.803922%,26.666667%,31.764706%);fill-opacity:1;" />
<path d="M 426.582031 173.054688 L 378.773438 173.054688 C 374.507812 173.054688 371.050781 169.59375 371.050781 165.328125 C 371.050781 161.0625 374.507812 157.601562 378.773438 157.601562 L 426.582031 157.601562 C 430.847656 157.601562 434.308594 161.0625 434.308594 165.328125 C 434.308594 169.59375 430.847656 173.054688 426.582031 173.054688 Z M 426.582031 173.054688 " style=" stroke:none;fill-rule:nonzero;fill:rgb(23.529412%,33.72549%,40%);fill-opacity:1;" />
<path d="M 426.574219 274.460938 C 424.949219 274.460938 423.3125 273.949219 421.914062 272.894531 L 374.109375 236.675781 C 370.710938 234.101562 370.039062 229.253906 372.617188 225.851562 C 375.195312 222.449219 380.039062 221.78125 383.441406 224.359375 L 431.246094 260.574219 C 434.648438 263.152344 435.316406 268 432.738281 271.398438 C 431.21875 273.40625 428.910156 274.460938 426.574219 274.460938 Z M 426.574219 274.460938 " style=" stroke:none;fill-rule:nonzero;fill:rgb(23.529412%,33.72549%,40%);fill-opacity:1;" />
<path d="M 378.78125 107.863281 C 376.445312 107.863281 374.136719 106.808594 372.617188 104.804688 C 370.039062 101.402344 370.707031 96.554688 374.109375 93.980469 L 421.914062 57.761719 C 425.316406 55.183594 430.160156 55.855469 432.738281 59.253906 C 435.316406 62.65625 434.648438 67.503906 431.246094 70.078125 L 383.441406 106.296875 C 382.046875 107.351562 380.40625 107.863281 378.78125 107.863281 Z M 378.78125 107.863281 " style=" stroke:none;fill-rule:nonzero;fill:rgb(23.529412%,33.72549%,40%);fill-opacity:1;" />
<path d="M 154.230469 142.390625 L 122.179688 142.390625 C 117.910156 142.390625 114.453125 145.847656 114.453125 150.117188 C 114.453125 154.382812 117.910156 157.84375 122.179688 157.84375 L 154.230469 157.84375 Z M 154.230469 142.390625 " style=" stroke:none;fill-rule:nonzero;fill:rgb(85.882353%,85.098039%,81.960784%);fill-opacity:1;" />
<path d="M 154.230469 172.8125 L 122.179688 172.8125 C 117.910156 172.8125 114.453125 176.269531 114.453125 180.539062 C 114.453125 184.804688 117.910156 188.265625 122.179688 188.265625 L 154.230469 188.265625 Z M 154.230469 172.8125 " style=" stroke:none;fill-rule:nonzero;fill:rgb(85.882353%,85.098039%,81.960784%);fill-opacity:1;" />
<path d="M 466.875 0 L 458.273438 0 L 458.273438 286.160156 C 458.273438 296.425781 449.949219 304.75 439.683594 304.75 L 226.199219 304.75 C 223.835938 304.75 221.523438 305.460938 219.566406 306.792969 L 31.402344 434.859375 L 9.222656 475.492188 C 6.992188 479.574219 11.757812 483.890625 15.601562 481.273438 L 219.566406 342.453125 C 221.523438 341.121094 223.835938 340.40625 226.199219 340.40625 L 466.875 340.40625 C 491.796875 340.40625 512 320.203125 512 295.285156 L 512 45.125 C 512 20.203125 491.796875 0 466.875 0 Z M 466.875 0 " style=" stroke:none;fill-rule:nonzero;fill:rgb(85.882353%,85.098039%,81.960784%);fill-opacity:1;" />
</g>
</svg>