<svg id="_x33_0" enable-background="new 0 0 64 64" height="512" viewBox="0 0 64 64" width="512" xmlns="http://www.w3.org/2000/svg"><path d="m4 6c-1.1 0-2 .9-2 2v52c0 1.1.9 2 2 2h52c1.1 0 2-.9 2-2v-54z" fill="#d3a06c"/><path d="m28.4 35.6c.24.25.58.4.95.4 2.86 0 5.6-1.05 7.72-2.92.18-.16.36-.32.53-.49l.59-.59h8.81c.55 0 1 .45 1 1v20c0 .55-.45 1-1 1h-34c-.55 0-1-.45-1-1v-20c0-.55.45-1 1-1h15.31c-.21.86-.31 1.75-.31 2.65 0 .37.15.71.4.95z" fill="#e6e9ed"/><path d="m61.29 11.29c.46.46.71 1.07.71 1.71s-.25 1.25-.71 1.71l-3.29 3.29-3.29 3.29c-.46.46-1.07.71-1.71.71s-1.25-.25-1.71-.71l-1.19-1.19 3.5-3.5 6.5-6.5z" fill="#37bc9b"/><path d="m60.44 3.56c-.97-.96-2.3-1.56-3.77-1.56-.54 0-1.07.22-1.46.6l-3.4 3.4-4.4 4.41-16 15.99c-.17.17-.33.35-.49.53l.08.07 6 6 .07.08c.18-.16.36-.32.53-.49l.59-.59 11.91-11.9 3.5-3.5 6.5-6.5 1.3-1.31c.38-.39.6-.92.6-1.46 0-1.47-.6-2.8-1.56-3.77z" fill="#5cd6b3"/><path d="m28.31 32c.14-.62.34-1.23.58-1.82.49-1.18 1.17-2.28 2.03-3.25l.08.07 6 6 .07.08c-2.12 1.87-4.86 2.92-7.72 2.92-.37 0-.71-.15-.95-.4-.25-.24-.4-.58-.4-.95 0-.9.1-1.79.31-2.65z" fill="#aab2bd"/><path d="m36 6v10l-2-2-2 2-2-2-2 2-2-2-2 2v-10z" fill="#fcd770"/><path d="m17 37h6v2h-6z"/><path d="m17 45h14v2h-14z"/><path d="m17 41h26v2h-26z"/><path d="m33 49h2v2h-2z"/><path d="m37 49h2v2h-2z"/><path d="m41 49h2v2h-2z"/><path d="m35 45h8v2h-8z"/><path d="m61.505 10.091.599-.599c.578-.579.896-1.347.896-2.164 0-3.489-2.839-6.328-6.328-6.328-.818 0-1.587.318-2.164.896l-3.104 3.104h-47.404c-1.654 0-3 1.346-3 3v52c0 1.654 1.346 3 3 3h52c1.654 0 3-1.346 3-3v-41.586l3-3c.645-.646 1-1.503 1-2.414s-.355-1.769-1-2.414zm-5.583-6.78c.2-.201.466-.311.75-.311 2.387 0 4.328 1.941 4.328 4.328 0 .283-.11.55-.311.75l-7.099 7.099-4.767-4.767zm-18.831 28.366-4.768-4.768 15.086-15.086 4.767 4.767zm-6.077-3.249 4.558 4.558c-1.801 1.301-3.953 2.014-6.218 2.014-.195 0-.354-.158-.354-.354 0-2.265.712-4.417 2.014-6.218zm-3.867 7.011-1.854 1.854 1.414 1.414 1.854-1.854c.249.09.513.147.793.147 3.38 0 6.559-1.316 8.949-3.707l.293-.293h8.404v20h-34v-20h14.119c-.07.543-.119 1.09-.119 1.646 0 .28.057.544.147.793zm-2.147-28.439h10v6.586l-1-1-2 2-2-2-2 2-2-2-1 1zm32 53c0 .552-.449 1-1 1h-52c-.551 0-1-.448-1-1v-52c0-.552.449-1 1-1h19v11.414l3-3 2 2 2-2 2 2 2-2 3 3v-11.414h12.404l-18.697 18.697c-1.504 1.504-2.581 3.32-3.175 5.303h-14.532c-1.103 0-2 .897-2 2v20c0 1.103.897 2 2 2h34c1.103 0 2-.897 2-2v-20c0-1.103-.897-2-2-2h-6.404l9.495-9.495.494.495c.645.645 1.502 1 2.415 1s1.77-.355 2.414-1l1.586-1.586zm3.586-46-6.586 6.586c-.533.535-1.465.535-2 0l-.495-.495 8.586-8.586.494.495c.268.268.415.622.415 1s-.147.732-.414 1z"/></svg>