<svg height="511pt" viewBox="0 -2 511.99974 511" width="511pt" xmlns="http://www.w3.org/2000/svg"><path d="m504.351562 28.730469-1.398437 18.328125-32.296875 410.21875c-1.1875 15.078125-17.308594 24.117187-30.789062 17.261718l-420.664063-213.832031c-15.789063-8.023437-15.390625-30.714843.667969-38.183593l441.417968-205.261719 15.941407-7.371094c13.269531-6.128906 28.238281 4.265625 27.121093 18.839844zm0 0" fill="#e4f5f7"/><path d="m280.675781 393.273438 47.351563 24.097656-106.40625 82.558594-31.867188-152.902344 271.199219-289.503906zm0 0" fill="#bfdadd"/><path d="m500.519531 5.316406c-7.871093-5.46875-17.765625-6.335937-26.472656-2.316406l-15.960937 7.378906-441.414063 205.265625c-10.085937 4.6875-16.472656 14.511719-16.66796875 25.628907-.19531225 11.121093 5.84374975 21.160156 15.75781275 26.199218l42.160156 21.433594c3.734375 1.898438 8.304687.410156 10.203125-3.328125 1.902344-3.734375.414062-8.304687-3.324219-10.203125l-42.160156-21.433594c-4.765625-2.421875-7.554687-7.054687-7.460937-12.402344.09375-5.34375 3.042968-9.878906 7.890624-12.132812l441.402344-205.253906 15.941406-7.371094c3.765626-1.738281 8.042969-1.367188 11.445313 1 3.398437 2.359375 5.242187 6.238281 4.925781 10.371094l-1.398437 18.308594-32.296875 410.21875c-.363282 4.617187-2.890625 8.566406-6.929688 10.832031-4.042968 2.265625-8.726562 2.359375-12.855468.261719l-152.273438-77.746094 78.925781-146.992188c1.984375-3.695312.597657-8.292968-3.097656-10.277344-3.691406-1.980468-8.292969-.597656-10.277344 3.097657l-82.574219 153.789062-49.125 88.730469-26.894531-129.035156 228.816407-244.261719-56.640626 105.484375c-1.980468 3.691406-.59375 8.292969 3.097657 10.277344 3.691406 1.980468 8.292969.59375 10.277343-3.097656l84.097657-156.628907c1.804687-3.355469.835937-7.53125-2.257813-9.753906-3.097656-2.226563-7.359375-1.808594-9.964844.976563l-267.542968 285.601562-98.929688-50.292969c-3.738281-1.898437-8.304687-.410156-10.203125 3.328125-1.902343 3.734375-.414062 8.304688 3.324219 10.203125l101.089844 51.390625 31.039062 148.914063c.535156 2.5625 2.351563 4.667969 4.808594 5.570312.851562.316407 1.738281.46875 2.621094.46875 1.660156 0 3.300781-.546875 4.652344-1.59375l102.355468-79.417969 107.796875 54.796876c4.117188 2.09375 8.59375 3.136718 13.0625 3.136718 4.859375 0 9.714844-1.234375 14.09375-3.6875 8.410157-4.714844 13.882813-13.269531 14.640625-22.882812l32.296875-410.234375 1.398438-18.324219c.734375-9.558594-3.527344-18.53125-11.398438-23.996094zm-254.363281 465.972656 37.609375-67.925781 30.15625 15.347657zm0 0"/></svg>