<?xml version="1.0" encoding="iso-8859-1"?>
<!-- Generator: Adobe Illustrator 19.0.0, SVG Export Plug-In . SVG Version: 6.00 Build 0)  -->
<svg xmlns="http://www.w3.org/2000/svg" xmlns:xlink="http://www.w3.org/1999/xlink" version="1.1" id="Layer_1" x="0px" y="0px" viewBox="0 0 512 512" style="enable-background:new 0 0 512 512;" xml:space="preserve" width="512" height="512">
<g id="XMLID_2341_">
	<g id="XMLID_1325_">
		<g id="XMLID_2619_">
			<circle id="XMLID_2783_" style="fill:#72F2EB;" cx="146.343" cy="148.779" r="122.773"/>
			<g id="XMLID_1353_">
				<g id="XMLID_1385_">
					<g id="XMLID_1419_">
						<circle id="XMLID_1420_" style="fill:#F9B767;" cx="23.57" cy="179.922" r="16.07"/>
					</g>
				</g>
			</g>
			<g id="XMLID_1387_">
				<g id="XMLID_1391_">
					<g id="XMLID_2785_">
						<circle id="XMLID_2786_" style="fill:#F9B767;" cx="100.999" cy="102.494" r="16.07"/>
					</g>
				</g>
			</g>
			<g id="XMLID_1393_">
				<g id="XMLID_1397_">
					<g id="XMLID_2798_">
						<circle id="XMLID_2799_" style="fill:#F9B767;" cx="183.117" cy="184.613" r="16.07"/>
					</g>
				</g>
			</g>
			<g id="XMLID_1399_">
				<g id="XMLID_1403_">
					<g id="XMLID_2801_">
						<circle id="XMLID_2802_" style="fill:#F9B767;" cx="289.758" cy="77.972" r="16.07"/>
					</g>
				</g>
			</g>
			<g id="XMLID_1405_">
				<g id="XMLID_1409_">
					<g id="XMLID_2803_">
						<circle id="XMLID_2804_" style="fill:#F9B767;" cx="360.564" cy="148.779" r="16.07"/>
					</g>
				</g>
			</g>
		</g>
		<g id="XMLID_1352_">
			<rect id="XMLID_2771_" x="79.474" y="362.335" style="fill:#FF6A66;" width="43.959" height="123.66"/>
			<rect id="XMLID_2770_" x="153.529" y="362.335" style="fill:#FF6A66;" width="43.959" height="123.66"/>
			<rect id="XMLID_2769_" x="227.583" y="325.751" style="fill:#F9B767;" width="43.959" height="160.244"/>
			<rect id="XMLID_2768_" x="301.638" y="271.224" style="fill:#72F2EB;" width="43.959" height="214.771"/>
			<rect id="XMLID_2767_" x="375.692" y="214.827" style="fill:#72F2EB;" width="43.959" height="271.168"/>
			<rect id="XMLID_2766_" x="449.747" y="148.779" style="fill:#72F2EB;" width="43.959" height="337.216"/>
		</g>
	</g>
	<g id="XMLID_1496_">
		<path id="XMLID_1515_" d="M27.91,203.085c6.654,14.507,15.829,27.547,27.333,38.804c1.459,1.428,3.353,2.14,5.244,2.14    c1.947,0,3.893-0.753,5.361-2.255c2.897-2.96,2.846-7.709-0.115-10.605c-10.473-10.249-18.771-22.16-24.696-35.437    c3.791-4.184,6.104-9.731,6.104-15.809c0-3.777-0.898-7.346-2.484-10.514l45.828-45.828c3.167,1.585,6.737,2.483,10.514,2.483    c3.545,0,6.907-0.792,9.926-2.199l50.4,50.4c0.14,0.14,0.287,0.267,0.435,0.393c-1.416,3.026-2.212,6.399-2.212,9.955    c0,12.997,10.573,23.57,23.57,23.57s23.57-10.573,23.57-23.57c0-3.039-0.584-5.943-1.636-8.613l53.532-53.532    c1.981,8.454,3.033,17.261,3.033,26.311c0,63.562-51.711,115.273-115.272,115.273c-20.208,0-40.088-5.304-57.492-15.338    c-3.589-2.069-8.176-0.839-10.243,2.751c-2.069,3.589-0.838,8.175,2.751,10.243c19.68,11.347,42.15,17.344,64.984,17.344    c71.832,0,130.272-58.44,130.272-130.273c0-13.407-2.038-26.346-5.816-38.527l10.346-10.346c2.67,1.052,5.573,1.636,8.612,1.636    c4.066,0,7.896-1.035,11.238-2.856l38.854,38.854c-1.821,3.342-2.856,7.171-2.856,11.238c0,12.997,10.573,23.57,23.57,23.57    s23.57-10.573,23.57-23.57s-10.573-23.57-23.57-23.57c-3.466,0-6.757,0.758-9.724,2.108l-39.62-39.62    c1.35-2.967,2.108-6.258,2.108-9.724c0-12.997-10.573-23.57-23.57-23.57s-23.57,10.573-23.57,23.57    c0,4.48,1.257,8.672,3.436,12.242l-4.683,4.682c-20.536-45.021-65.971-76.39-118.597-76.39    c-71.833,0-130.273,58.44-130.273,130.272c0,2.898,0.107,5.809,0.298,8.703C6.884,160.533,0,169.437,0,179.922    c0,12.997,10.573,23.57,23.57,23.57C25.053,203.493,26.503,203.349,27.91,203.085z M360.564,140.208c4.726,0,8.57,3.845,8.57,8.57    s-3.845,8.57-8.57,8.57s-8.57-3.845-8.57-8.57S355.839,140.208,360.564,140.208z M289.758,69.402c4.726,0,8.57,3.845,8.57,8.57    s-3.845,8.57-8.57,8.57s-8.57-3.845-8.57-8.57S285.032,69.402,289.758,69.402z M92.429,102.494c0-4.726,3.845-8.569,8.57-8.569    s8.569,3.844,8.569,8.569s-3.844,8.57-8.569,8.57S92.429,107.219,92.429,102.494z M183.117,193.183c-4.726,0-8.57-3.845-8.57-8.57    s3.845-8.57,8.57-8.57s8.57,3.845,8.57,8.57S187.843,193.183,183.117,193.183z M146.344,33.506    c48.577,0,90.229,30.204,107.17,72.817l-58.155,58.154c-3.57-2.178-7.762-3.435-12.241-3.435c-3.993,0-7.755,1.001-11.054,2.761    c-0.045-0.048-0.085-0.099-0.132-0.146l-50.119-50.12c1.756-3.297,2.756-7.055,2.756-11.044c0-12.996-10.573-23.569-23.569-23.569    c-12.997,0-23.57,10.573-23.57,23.569c0,3.759,0.889,7.312,2.46,10.468l-45.851,45.851c-0.848-0.423-1.725-0.795-2.627-1.115    c-0.226-2.959-0.341-5.947-0.341-8.919C31.07,85.217,82.782,33.506,146.344,33.506z M15,179.922c0-4.726,3.845-8.57,8.57-8.57    s8.57,3.845,8.57,8.57s-3.845,8.57-8.57,8.57S15,184.648,15,179.922z"/>
		<path id="XMLID_1506_" d="M504.5,493.494c4.143,0,7.5-3.357,7.5-7.5s-3.357-7.5-7.5-7.5h-3.295V314.309c0-4.143-3.357-7.5-7.5-7.5    s-7.5,3.357-7.5,7.5v164.185h-28.959V156.279h28.959v127.413c0,4.143,3.357,7.5,7.5,7.5s7.5-3.357,7.5-7.5V148.779    c0-4.143-3.357-7.5-7.5-7.5h-43.959c-4.143,0-7.5,3.357-7.5,7.5v329.715H427.15V214.828c0-4.143-3.357-7.5-7.5-7.5h-43.958    c-4.143,0-7.5,3.357-7.5,7.5v263.666h-15.096v-207.27c0-4.143-3.357-7.5-7.5-7.5h-43.959c-4.143,0-7.5,3.357-7.5,7.5v207.27    h-15.096V325.751c0-4.143-3.357-7.5-7.5-7.5h-43.959c-4.143,0-7.5,3.357-7.5,7.5v152.742h-15.096V362.334    c0-4.143-3.357-7.5-7.5-7.5h-43.959c-4.143,0-7.5,3.357-7.5,7.5v43.357c0,4.143,3.357,7.5,7.5,7.5s7.5-3.357,7.5-7.5v-35.857    h28.959v108.659h-28.959v-42.185c0-4.143-3.357-7.5-7.5-7.5s-7.5,3.357-7.5,7.5v42.185h-15.096V362.334c0-4.143-3.357-7.5-7.5-7.5    H79.475c-4.143,0-7.5,3.357-7.5,7.5v116.159H14.509c-4.143,0-7.5,3.357-7.5,7.5s3.357,7.5,7.5,7.5H504.5z M383.192,222.328h28.958    v256.166h-28.958V222.328z M309.138,278.724h28.959v199.77h-28.959V278.724z M235.083,333.251h28.959v145.242h-28.959V333.251z     M86.975,369.834h28.958v108.659H86.975V369.834z"/>
		<path id="XMLID_1505_" d="M493.705,47.422c4.143,0,7.5-3.357,7.5-7.5v-1.649c0-4.143-3.357-7.5-7.5-7.5s-7.5,3.357-7.5,7.5v1.649    C486.205,44.065,489.563,47.422,493.705,47.422z"/>
		<path id="XMLID_1501_" d="M468.169,47.422c4.143,0,7.5-3.357,7.5-7.5v-1.649c0-4.143-3.357-7.5-7.5-7.5s-7.5,3.357-7.5,7.5v1.649    C460.669,44.065,464.026,47.422,468.169,47.422z"/>
		<path id="XMLID_1500_" d="M468.169,77.339h25.353c4.143,0,7.5-3.357,7.5-7.5s-3.357-7.5-7.5-7.5h-25.353    c-4.143,0-7.5,3.357-7.5,7.5S464.026,77.339,468.169,77.339z"/>
		<path id="XMLID_1497_" d="M425.916,101.542h67.605c4.143,0,7.5-3.357,7.5-7.5s-3.357-7.5-7.5-7.5h-67.605    c-4.143,0-7.5,3.357-7.5,7.5S421.773,101.542,425.916,101.542z"/>
	</g>
</g>















</svg>
