<svg height="512pt" viewBox="-40 0 511 512" width="512pt" xmlns="http://www.w3.org/2000/svg"><path d="m8 9.714844h189.734375v189.734375h-189.734375zm0 0" fill="#a3e2ee"/><path d="m173.734375 9.714844h24v189.734375h-24zm0 0" fill="#65cee3"/><path d="m139.761719 87.839844c0 26.414062-21.414063 47.832031-47.828125 47.832031-26.417969 0-47.832032-21.417969-47.832032-47.832031 0-26.414063 21.414063-47.828125 47.832032-47.828125 26.414062 0 47.828125 21.414062 47.828125 47.828125zm0 0" fill="#f9cd45"/><path d="m91.933594 40.011719c-3.964844 0-7.816406.488281-11.5 1.398437 20.859375 5.152344 36.328125 23.980469 36.328125 46.429688 0 22.449218-15.46875 41.277344-36.328125 46.429687 3.683594.910157 7.535156 1.402344 11.5 1.402344 26.414062 0 47.828125-21.414063 47.828125-47.832031 0-26.414063-21.414063-47.828125-47.828125-47.828125zm0 0" fill="#f8b53c"/><path d="m105.40625 93.296875-61.285156 106.152344h122.574218l-61.289062-106.152344-61.285156 106.152344h122.574218zm0 0" fill="#d47a3d"/><path d="m105.40625 93.296875-12 20.785156 49.289062 85.367188h24zm0 0" fill="#9f5c2e"/><path d="m8 243.214844h189.734375v261.285156h-189.734375zm0 0" fill="#fff8f7"/><path d="m174.734375 243.214844h23v261.285156h-23zm0 0" fill="#f4f4f5"/><path d="m235 7.5h189.734375v261.285156h-189.734375zm0 0" fill="#fff8f7"/><path d="m401.734375 7.5h23v261.285156h-23zm0 0" fill="#f4f4f5"/><path d="m235 314.765625h189.734375v189.734375h-189.734375zm0 0" fill="#fff8f7"/><path d="m401.734375 314.765625h23v189.734375h-23zm0 0" fill="#f4f4f5"/><path d="m267.320312 356.554688v29.882812h.003907v18.785156h21.328125v-18.785156h26.273437v54.945312h-12.414062v21.328126h54.710937v-21.328126h-12.414062v-54.945312h26.273437v18.785156h21.332031v-48.667968zm0 0" fill="#9b43a9"/><path d="m369.414062 356.554688v29.882812h1.667969v18.785156h21.332031v-48.667968zm0 0" fill="#893aa8"/><g fill="#18191b"><path d="m8 206.949219h189.734375c4.140625 0 7.5-3.355469 7.5-7.5v-189.734375c0-4.140625-3.359375-7.5-7.5-7.5h-189.734375c-4.140625 0-7.5 3.359375-7.5 7.5v189.734375c0 4.144531 3.359375 7.5 7.5 7.5zm49.109375-15 48.296875-83.652344 48.296875 83.652344zm20.921875-66.238281c-15.769531-5.742188-26.429688-20.699219-26.429688-37.871094 0-22.238282 18.09375-40.332032 40.332032-40.332032 22.238281 0 40.328125 18.09375 40.328125 40.332032 0 8.585937-2.703125 16.816406-7.679688 23.667968l-12.679687-21.960937c-1.339844-2.320313-3.8125-3.75-6.492188-3.75-2.679687 0-5.15625 1.429687-6.496094 3.75zm-62.53125-108.496094h174.734375v174.734375h-19.207031l-38.445313-66.585938c9.46875-10.25 14.679688-23.542969 14.679688-37.523437 0-30.507813-24.820313-55.328125-55.328125-55.328125-30.507813 0-55.332032 24.820312-55.332032 55.328125 0 22.664062 13.542969 42.523437 33.84375 51.011718l-30.65625 53.097657h-24.289062zm0 0"/><path d="m8 465.082031c-4.140625 0-7.5 3.355469-7.5 7.5v31.917969c0 4.140625 3.359375 7.5 7.5 7.5h189.734375c4.140625 0 7.5-3.359375 7.5-7.5v-261.285156c0-4.140625-3.359375-7.5-7.5-7.5h-189.734375c-4.140625 0-7.5 3.359375-7.5 7.5v199.050781c0 4.140625 3.359375 7.5 7.5 7.5s7.5-3.359375 7.5-7.5v-191.550781h174.734375v246.285156h-174.734375v-24.417969c0-4.144531-3.359375-7.5-7.5-7.5zm0 0"/><path d="m40.082031 290.359375h46c4.140625 0 7.5-3.359375 7.5-7.5 0-4.144531-3.359375-7.5-7.5-7.5h-46c-4.144531 0-7.5 3.355469-7.5 7.5 0 4.140625 3.355469 7.5 7.5 7.5zm0 0"/><path d="m165.652344 457.359375h-46c-4.140625 0-7.5 3.355469-7.5 7.5 0 4.140625 3.359375 7.5 7.5 7.5h46c4.144531 0 7.5-3.359375 7.5-7.5 0-4.144531-3.355469-7.5-7.5-7.5zm0 0"/><path d="m40.082031 323.359375h125.570313c4.144531 0 7.5-3.359375 7.5-7.5 0-4.144531-3.355469-7.5-7.5-7.5h-125.570313c-4.144531 0-7.5 3.355469-7.5 7.5 0 4.140625 3.355469 7.5 7.5 7.5zm0 0"/><path d="m40.082031 360.859375h125.570313c4.144531 0 7.5-3.359375 7.5-7.5 0-4.144531-3.355469-7.5-7.5-7.5h-125.570313c-4.144531 0-7.5 3.355469-7.5 7.5 0 4.140625 3.355469 7.5 7.5 7.5zm0 0"/><path d="m40.082031 398.359375h125.570313c4.144531 0 7.5-3.359375 7.5-7.5 0-4.144531-3.355469-7.5-7.5-7.5h-125.570313c-4.144531 0-7.5 3.355469-7.5 7.5 0 4.140625 3.355469 7.5 7.5 7.5zm0 0"/><path d="m40.082031 435.859375h125.570313c4.144531 0 7.5-3.359375 7.5-7.5 0-4.144531-3.355469-7.5-7.5-7.5h-125.570313c-4.144531 0-7.5 3.355469-7.5 7.5 0 4.140625 3.355469 7.5 7.5 7.5zm0 0"/><path d="m316.015625 276.285156h108.71875c4.140625 0 7.5-3.359375 7.5-7.5v-261.285156c0-4.140625-3.359375-7.5-7.5-7.5h-189.734375c-4.140625 0-7.5 3.359375-7.5 7.5v261.285156c0 4.140625 3.359375 7.5 7.5 7.5h49.1875c4.140625 0 7.5-3.359375 7.5-7.5s-3.359375-7.5-7.5-7.5h-41.6875v-246.285156h174.734375v246.285156h-101.21875c-4.140625 0-7.5 3.359375-7.5 7.5s3.359375 7.5 7.5 7.5zm0 0"/><path d="m267.082031 54.640625h46c4.140625 0 7.5-3.355469 7.5-7.5 0-4.140625-3.359375-7.5-7.5-7.5h-46c-4.144531 0-7.5 3.359375-7.5 7.5 0 4.144531 3.355469 7.5 7.5 7.5zm0 0"/><path d="m392.652344 221.640625h-46c-4.140625 0-7.5 3.359375-7.5 7.5 0 4.144531 3.359375 7.5 7.5 7.5h46c4.144531 0 7.5-3.355469 7.5-7.5 0-4.140625-3.355469-7.5-7.5-7.5zm0 0"/><path d="m267.082031 87.640625h125.570313c4.144531 0 7.5-3.355469 7.5-7.5 0-4.140625-3.355469-7.5-7.5-7.5h-125.570313c-4.144531 0-7.5 3.359375-7.5 7.5 0 4.144531 3.355469 7.5 7.5 7.5zm0 0"/><path d="m267.082031 125.140625h125.570313c4.144531 0 7.5-3.355469 7.5-7.5 0-4.140625-3.355469-7.5-7.5-7.5h-125.570313c-4.144531 0-7.5 3.359375-7.5 7.5 0 4.144531 3.355469 7.5 7.5 7.5zm0 0"/><path d="m267.082031 162.640625h125.570313c4.144531 0 7.5-3.355469 7.5-7.5 0-4.140625-3.355469-7.5-7.5-7.5h-125.570313c-4.144531 0-7.5 3.359375-7.5 7.5 0 4.144531 3.355469 7.5 7.5 7.5zm0 0"/><path d="m267.082031 200.140625h125.570313c4.144531 0 7.5-3.355469 7.5-7.5 0-4.140625-3.355469-7.5-7.5-7.5h-125.570313c-4.144531 0-7.5 3.359375-7.5 7.5 0 4.144531 3.355469 7.5 7.5 7.5zm0 0"/><path d="m227.5 504.5c0 4.140625 3.359375 7.5 7.5 7.5h189.734375c4.140625 0 7.5-3.359375 7.5-7.5v-189.734375c0-4.140625-3.359375-7.5-7.5-7.5h-189.734375c-4.140625 0-7.5 3.359375-7.5 7.5zm15-182.234375h174.734375v174.734375h-174.734375zm0 0"/><path d="m392.414062 349.054688h-125.09375c-4.140624 0-7.5 3.355468-7.5 7.5v29.878906c0 .074218 0 .140625.003907.210937v18.578125c0 4.140625 3.359375 7.5 7.5 7.5h21.328125c4.144531 0 7.5-3.359375 7.5-7.5v-11.289062h11.273437v39.949218h-4.914062c-4.140625 0-7.5 3.355469-7.5 7.5v21.328126c0 4.140624 3.359375 7.5 7.5 7.5h54.710937c4.140625 0 7.5-3.359376 7.5-7.5v-21.328126c0-4.144531-3.359375-7.5-7.5-7.5h-4.914062v-39.949218h11.273437v11.289062c0 4.140625 3.359375 7.5 7.5 7.5h21.332031c4.140626 0 7.5-3.359375 7.5-7.5v-48.667968c0-4.144532-3.359374-7.5-7.5-7.5zm-7.5 48.667968h-6.332031v-11.285156c0-4.144531-3.355469-7.5-7.5-7.5h-26.273437c-4.144532 0-7.5 3.355469-7.5 7.5v54.945312c0 4.140626 3.355468 7.5 7.5 7.5h4.914062v6.328126h-39.710937v-6.328126h4.914062c4.140625 0 7.5-3.359374 7.5-7.5v-54.945312c0-4.144531-3.359375-7.5-7.5-7.5h-26.273437c-4.140625 0-7.5 3.355469-7.5 7.5v11.285156h-6.328125v-11.285156c0-.074219 0-.140625-.003907-.210938v-22.171874h110.09375zm0 0"/></g></svg>