<svg height="511pt" viewBox="1 -100 511.99999 511" width="511pt" xmlns="http://www.w3.org/2000/svg"><path d="m469.773438 128.339844c0 24.863281 11.070312 45.765625 26.0625 51.734375 5.128906 2.042969 8.578124 7.847656 8.578124 14.375v44.671875c0 5.230468-3.5 9.457031-7.832031 9.457031h-401.1875c-4.320312 0-7.828125-4.226563-7.828125-9.457031v-44.671875c0-6.527344 3.449219-12.332031 8.578125-14.375 14.992188-5.96875 26.058594-26.871094 26.058594-51.734375 0-24.867188-11.066406-45.765625-26.058594-51.734375-5.128906-2.046875-8.578125-7.851563-8.578125-14.375v-44.675781c0-5.230469 3.507813-9.46875 7.828125-9.46875h401.1875c4.332031 0 7.832031 4.238281 7.832031 9.46875v44.675781c0 6.523437-3.449218 12.328125-8.578124 14.375-14.992188 5.96875-26.0625 26.867187-26.0625 51.734375zm0 0" fill="#ffa90b"/><path d="m425.941406 163.410156c0 24.855469 11.066406 45.757813 26.058594 51.726563 5.121094 2.042969 8.578125 7.847656 8.578125 14.375v19.066406h-365.183594c-4.320312 0-7.828125-4.226563-7.828125-9.457031v-44.671875c0-6.527344 3.449219-12.332031 8.578125-14.375 14.992188-5.96875 26.058594-26.871094 26.058594-51.734375 0-24.867188-11.066406-45.765625-26.058594-51.734375-5.128906-2.046875-8.578125-7.851563-8.578125-14.375v-19.070313h365.183594c4.320312 0 7.828125 4.238282 7.828125 9.46875v44.671875c0 6.527344-3.457031 12.332031-8.578125 14.375-14.992188 5.96875-26.058594 26.871094-26.058594 51.734375zm0 0" fill="#f29500"/><path d="m389.796875 184.097656c0 24.867188 11.066406 45.765625 26.058594 51.734375 5.128906 2.042969 8.578125 7.851563 8.578125 14.375v44.671875c0 5.230469-3.507813 9.46875-7.828125 9.46875h-401.1875c-4.332031 0-7.832031-4.238281-7.832031-9.46875v-44.671875c0-6.523437 3.449218-12.332031 8.578124-14.375 14.992188-5.96875 26.0625-26.867187 26.0625-51.734375 0-24.863281-11.070312-45.765625-26.0625-51.734375-5.128906-2.042969-8.578124-7.847656-8.578124-14.375v-44.671875c0-5.230468 3.5-9.457031 7.832031-9.457031h401.1875c4.320312 0 7.828125 4.226563 7.828125 9.457031v44.671875c0 6.527344-3.449219 12.332031-8.578125 14.375-14.992188 5.96875-26.058594 26.871094-26.058594 51.734375zm0 0" fill="#f29500"/><path d="m389.796875 184.097656c0 24.867188 11.066406 45.765625 26.058594 51.734375 5.128906 2.042969 8.578125 7.851563 8.578125 14.375v44.671875c0 5.230469-3.507813 9.46875-7.828125 9.46875h-379.945313c-4.328125 0-7.828125-4.238281-7.828125-9.46875v-44.671875c0-6.523437 3.449219-12.332031 8.578125-14.375 14.992188-5.96875 26.058594-26.867187 26.058594-51.734375 0-24.863281-11.066406-45.765625-26.058594-51.734375-5.128906-2.042969-8.578125-7.847656-8.578125-14.375v-44.671875c0-5.230468 3.5-9.457031 7.828125-9.457031h379.945313c4.320312 0 7.828125 4.226563 7.828125 9.457031v44.671875c0 6.527344-3.449219 12.332031-8.578125 14.375-14.992188 5.96875-26.058594 26.871094-26.058594 51.734375zm0 0" fill="#ffa90b"/><path d="m368.351562 207.4375v2.214844c0 2.679687-1.894531 4.964844-4.511718 5.53125-.195313.042968-.394532.09375-.609375.144531-7.820313 1.808594-22.386719 8.050781-27.453125 29.710937-1.144532 4.855469-1.800782 10.480469-1.800782 17.015626v.324218c0 1.039063-.832031 1.878906-1.871093 1.878906h-231.875c-1.042969 0-1.871094-.839843-1.871094-1.878906 0-.113281.011719-.214844.011719-.324218 0-34.011719-20.234375-45.746094-30.9375-47.546876-2.164063-.375-3.761719-2.214843-3.761719-4.410156v-52.191406c0-2.246094 1.679687-4.105469 3.902344-4.417969 6.394531-.910156 13.890625-5.152343 19.871093-12.738281 6.292969-7.949219 10.925782-19.585938 10.925782-34.910156 0-.011719 0-.019532 0-.019532 0-1.042968.828125-1.882812 1.859375-1.882812h231.875c1.03125 0 1.871093.839844 1.871093 1.882812v.019532c0 28.101562 15.617188 45.097656 30.703126 47.496094 2.132812.332031 3.660156 2.246093 3.660156 4.398437.011718 19.222656.011718 38.511719.011718 49.703125zm0 0" fill="#ffb52d"/><path d="m368.351562 207.4375c-1.871093 2.203125-3.613281 4.804688-5.121093 7.890625-3.285157 6.675781-5.480469 15.597656-5.480469 27.503906v.324219c0 1.042969-.832031 1.882812-1.871094 1.882812h-231.875c-1.042968 0-1.871094-.839843-1.871094-1.882812 0-.109375.011719-.210938.011719-.324219 0-34.007812-20.234375-45.746093-30.9375-47.546875-2.164062-.371094-3.761719-2.214844-3.761719-4.410156v-50.125c6.292969-7.949219 10.925782-19.585938 10.925782-34.910156 0-.011719 0-.019532 0-.019532 0-1.042968.828125-1.882812 1.859375-1.882812h231.875c1.03125 0 1.871093.839844 1.871093 1.882812v.019532c0 28.101562 15.617188 45.097656 30.703126 47.496094 2.132812.332031 3.660156 2.246093 3.660156 4.398437.011718 19.222656.011718 38.511719.011718 49.703125zm0 0" fill="#ffc14f"/><path d="m498.636719 83.65625c7.992187-3.1875 13.363281-11.796875 13.363281-21.425781v-44.675781c0-9.398438-6.917969-17.054688-15.417969-17.054688h-171.882812c-4.1875 0-7.585938 3.398438-7.585938 7.585938 0 4.199218 3.398438 7.589843 7.585938 7.589843h171.558593c.585938.039063.566407.859375.566407 1.878907v44.675781c0 3.8125-1.910157 6.574219-3.800781 7.324219-18.441407 7.34375-30.835938 30.972656-30.835938 58.785156 0 27.808594 12.394531 51.429687 30.835938 58.785156 1.890624.746094 3.800781 3.507812 3.800781 7.324219v44.671875c0 1.019531-.363281 1.636718-.566407 1.871094h-65.957031c-2.195312-5.605469-6.34375-10.097657-11.644531-12.210938-12.328125-4.90625-21.273438-23.703125-21.273438-44.683594 0-20.980468 8.945313-39.777344 21.273438-44.683594 7.992188-3.183593 13.367188-11.792968 13.367188-21.425781v-44.671875c0-9.398437-6.921876-17.046875-15.417969-17.046875h-273.046875c-4.1875 0-7.585938 3.390625-7.585938 7.589844 0 4.1875 3.398438 7.585937 7.585938 7.585937h272.722656c.203125.230469.566406.847657.566406 1.871094v44.671875c0 3.824219-1.914062 6.578125-3.804687 7.324219-18.441407 7.355469-30.832031 30.976562-30.832031 58.785156 0 23.386719 9.6875 50.328125 30.832031 58.785156 1.890625.75 3.804687 3.511719 3.804687 7.324219v44.671875c0 1.023438-.363281 1.640625-.578125 1.882813h-400.527343c-.203126-.242188-.566407-.859375-.566407-1.882813v-44.671875c0-3.8125 1.910157-6.574219 3.800781-7.324219 18.441407-7.34375 30.835938-30.976562 30.835938-58.785156s-12.394531-51.429687-30.835938-58.785156c-1.890624-.746094-3.800781-3.507812-3.800781-7.324219v-44.671875c0-1.023437.363281-1.640625.566407-1.871094h97.46875c4.1875 0 7.585937-3.398437 7.585937-7.585937 0-4.199219-3.398437-7.589844-7.585937-7.589844h-18.058594v-38.714843c0-1.019532.21875-1.875.578125-1.878907h198.621093c4.1875 0 7.585938-3.390625 7.585938-7.589843 0-4.1875-3.398438-7.585938-7.585938-7.585938h-198.957031c-8.496093 0-15.417969 7.65625-15.417969 17.054688v38.714843h-64.558593c-8.5 0-15.417969 7.648438-15.417969 17.046875v44.671875c0 9.632813 5.371094 18.242188 13.363281 21.425781 12.320313 4.90625 21.273438 23.703126 21.273438 44.683594 0 20.980469-8.953125 39.777344-21.273438 44.683594-7.992187 3.1875-13.363281 11.796875-13.363281 21.425781v44.671875c0 9.398438 6.917969 17.058594 15.417969 17.058594h401.1875c8.496093 0 15.417969-7.660156 15.417969-17.058594v-38.710937h64.558593c8.5 0 15.417969-7.648438 15.417969-17.046875v-44.671875c0-9.632813-5.371094-18.242188-13.363281-21.429688-12.320313-4.90625-21.273438-23.699219-21.273438-44.679687 0-20.984375 8.953125-39.777344 21.273438-44.683594zm0 0"/><path d="m217.191406 96.347656h-118.855468c-2.058594 0-4.027344.835938-5.457032 2.316406-2.480468 2.566407-2.101562 5.324219-2.101562 7.171876 0 21.75-12.207032 40.132812-26.71875 40.203124-4.320313-.226562-7.96875 3.234376-7.96875 7.578126v60.667968c0 4.296875 3.585937 7.796875 7.980468 7.578125 17.167969.046875 27.253907 22.960938 26.671876 42.175781-.125 4.28125 3.3125 7.8125 7.585937 7.8125h235.683594c4.28125 0 7.707031-3.542968 7.582031-7.8125-.632812-20.972656 10.652344-42.175781 26.75-42.175781 4.191406 0 7.589844-3.398437 7.589844-7.589843v-60.644532c0-4.191406-3.433594-7.589844-7.625-7.589844-17.039063 0-27.417969-22.988281-26.722656-41.828124.152343-4.292969-3.285157-7.863282-7.582032-7.863282h-86.464844c-4.1875 0-7.585937 3.398438-7.585937 7.589844 0 4.1875 3.398437 7.585938 7.585937 7.585938h79.0625c.929688 12.214843 4.847657 23.601562 11.265626 32.535156 6.199218 8.628906 14.136718 14.234375 22.890624 16.28125v47.21875c-8.742187 2.042968-16.6875 7.652344-22.890624 16.28125-6.472657 9.003906-10.402344 20.507812-11.289063 32.835937h-220.820313c-.886718-12.328125-4.820312-23.832031-11.292968-32.835937-6.277344-8.734375-14.339844-14.367188-23.203125-16.355469v-47.070313c8.863281-1.984374 16.925781-7.621093 23.203125-16.355468 6.421875-8.933594 10.339844-20.324219 11.269531-32.535156h111.457031c4.191406 0 7.589844-3.398438 7.589844-7.589844 0-4.1875-3.398438-7.585938-7.589844-7.585938zm0 0"/><path d="m186.753906 138.328125-21.664062 75.292969-21.796875-75.292969c-.660157-2.113281-2.507813-2.90625-4.886719-2.90625-3.828125 0-8.71875 2.378906-8.71875 5.8125 0 .398437 0 .792969.132812 1.191406l26.417969 85.59375c1.058594 3.171875 4.886719 4.757813 8.851563 4.757813 3.960937 0 7.925781-1.585938 8.851562-4.757813l26.152344-85.59375c.132812-.398437.265625-.792969.265625-1.191406 0-3.300781-4.886719-5.8125-8.851563-5.8125-2.246093 0-4.09375.792969-4.753906 2.90625zm0 0"/><path d="m210.792969 139.914062v87.445313c0 3.039063 3.566406 4.625 7 4.625 3.566406 0 7-1.585937 7-4.625v-87.445313c0-3.171874-3.433594-4.492187-7-4.492187-3.433594 0-7 1.320313-7 4.492187zm0 0"/><path d="m256.230469 227.359375v-32.625h16.378906c16.644531 0 29.722656-8.058594 29.722656-29.195313v-1.058593c0-21.265625-12.683593-29.058594-28.929687-29.058594h-25.757813c-3.300781 0-5.417969 2.113281-5.417969 4.488281v87.449219c0 3.035156 3.566407 4.621094 7.003907 4.621094 3.566406.003906 7-1.582031 7-4.621094zm0-79.519531h16.378906c9.777344 0 15.71875 5.414062 15.71875 17.039062v1.585938c0 11.625-5.941406 17.171875-15.71875 17.171875h-16.378906zm0 0"/></svg>