<svg id="svg" version="1.1" width="1000" height="298" xmlns="http://www.w3.org/2000/svg" xmlns:xlink="http://www.w3.org/1999/xlink" style="display: block;"><g id="svgg"><path id="path0" d="M75.429 0.629 C 73.951 2.106,74.664 13.050,76.264 13.452 C 78.390 13.985,78.800 12.891,78.800 6.682 C 78.800 0.242,77.732 -1.675,75.429 0.629 M30.364 8.748 L 29.440 9.497 31.395 13.548 C 32.470 15.777,33.469 17.600,33.614 17.600 C 33.760 17.600,34.166 18.331,34.517 19.225 C 35.124 20.772,35.230 20.845,36.678 20.725 C 38.525 20.573,39.033 18.689,37.726 16.839 C 37.323 16.267,36.283 14.332,35.416 12.539 C 34.408 10.455,33.448 9.047,32.758 8.639 C 31.417 7.847,31.481 7.844,30.364 8.748 M119.977 9.099 C 119.634 9.501,118.654 11.263,117.800 13.015 C 116.946 14.767,115.921 16.629,115.524 17.154 C 114.081 19.055,114.914 20.977,117.073 20.729 C 117.860 20.638,118.363 20.242,118.759 19.400 C 119.069 18.740,119.459 18.110,119.625 17.999 C 120.542 17.388,123.728 9.892,123.337 9.267 C 122.735 8.306,120.737 8.206,119.977 9.099 M39.300 34.864 C 35.395 38.859,30.490 43.860,28.400 45.976 C 22.513 51.937,22.883 51.299,24.209 53.213 C 24.827 54.105,25.545 54.962,25.805 55.117 C 26.065 55.273,26.953 56.292,27.778 57.382 C 28.603 58.472,29.710 59.822,30.238 60.382 C 32.243 62.510,33.893 64.384,34.894 65.668 C 35.464 66.401,36.441 67.563,37.065 68.251 C 39.088 70.480,42.943 74.971,49.348 82.556 C 50.257 83.632,51.375 84.916,51.834 85.409 C 52.293 85.902,53.366 87.157,54.220 88.198 C 55.073 89.239,56.317 90.689,56.985 91.421 C 57.653 92.152,58.775 93.437,59.477 94.275 C 60.179 95.114,61.684 96.880,62.820 98.200 C 64.937 100.659,65.414 101.210,72.423 109.300 C 74.662 111.885,76.608 113.995,76.747 113.989 C 77.012 113.978,77.199 113.766,84.368 105.400 C 86.818 102.540,89.528 99.390,90.389 98.400 C 92.807 95.620,95.941 91.978,97.546 90.082 C 98.346 89.137,99.588 87.721,100.306 86.936 C 101.024 86.151,101.744 85.283,101.906 85.008 C 102.181 84.540,106.012 80.117,107.800 78.203 C 108.240 77.732,109.320 76.460,110.200 75.375 C 111.080 74.291,112.669 72.413,113.732 71.202 C 114.794 69.991,116.234 68.328,116.932 67.507 C 117.629 66.685,118.830 65.318,119.600 64.468 C 120.370 63.618,122.080 61.609,123.400 60.003 C 124.720 58.397,126.309 56.575,126.930 55.953 C 128.154 54.729,130.000 52.150,130.000 51.664 C 130.000 51.170,124.966 45.717,119.000 39.751 C 115.920 36.670,112.009 32.676,110.309 30.875 L 107.218 27.600 76.809 27.600 L 46.401 27.600 39.300 34.864 M71.313 32.903 C 70.605 33.616,69.310 35.010,68.436 36.000 C 67.561 36.990,64.495 40.461,61.623 43.712 C 58.750 46.964,56.400 49.799,56.400 50.012 C 56.400 51.513,55.245 49.966,54.674 47.700 C 53.263 42.104,52.700 40.194,52.404 40.000 C 52.236 39.890,51.719 38.360,51.255 36.600 C 50.791 34.840,50.298 32.995,50.159 32.500 L 49.907 31.600 61.253 31.603 L 72.600 31.606 71.313 32.903 M102.751 34.300 C 102.341 35.785,101.794 37.810,101.537 38.800 C 101.281 39.790,100.948 40.690,100.799 40.800 C 100.649 40.910,100.131 42.477,99.648 44.283 C 99.165 46.088,98.541 48.227,98.261 49.036 L 97.752 50.506 95.776 48.181 C 94.689 46.902,93.440 45.479,93.000 45.018 C 92.560 44.557,91.120 42.938,89.800 41.420 C 87.122 38.339,84.037 34.865,82.235 32.900 L 81.043 31.600 92.271 31.600 L 103.498 31.600 102.751 34.300 M78.981 35.200 C 79.103 35.530,79.888 36.520,80.726 37.400 C 81.563 38.280,83.735 40.710,85.552 42.800 C 91.056 49.132,92.130 50.323,93.900 52.057 C 97.048 55.142,96.392 55.273,77.745 55.273 C 56.629 55.273,56.523 55.250,60.078 51.534 C 61.025 50.544,62.700 48.689,63.800 47.412 C 64.900 46.135,66.430 44.406,67.200 43.571 C 67.970 42.736,69.345 41.186,70.255 40.126 C 71.166 39.067,72.966 37.011,74.255 35.557 L 76.600 32.914 77.680 33.757 C 78.273 34.221,78.859 34.870,78.981 35.200 M47.216 37.100 C 47.728 39.025,48.273 40.690,48.428 40.800 C 48.677 40.977,49.276 43.040,51.451 51.200 C 51.774 52.410,52.209 53.460,52.419 53.533 C 53.392 53.874,52.672 54.468,51.500 54.292 C 50.785 54.185,47.041 53.637,43.181 53.074 C 34.246 51.772,30.727 51.171,30.105 50.838 C 29.716 50.630,45.594 33.600,46.176 33.600 C 46.237 33.600,46.705 35.175,47.216 37.100 M110.516 36.746 C 111.662 37.968,115.164 41.578,118.299 44.769 C 122.419 48.962,123.846 50.654,123.450 50.876 C 123.149 51.044,119.055 51.730,114.352 52.400 C 109.648 53.070,104.841 53.810,103.668 54.044 C 102.496 54.278,101.446 54.379,101.335 54.268 C 101.145 54.078,102.612 48.318,103.840 44.429 C 104.148 43.455,104.400 42.330,104.400 41.929 C 104.400 41.528,104.554 41.200,104.743 41.200 C 104.932 41.200,105.501 39.625,106.007 37.700 C 106.513 35.775,107.005 34.056,107.099 33.881 C 107.317 33.475,107.928 33.987,110.516 36.746 M356.900 44.265 C 356.625 44.376,356.400 45.082,356.400 45.833 L 356.400 47.200 358.800 47.200 L 361.200 47.200 361.196 48.700 C 361.194 49.525,361.260 52.861,361.343 56.114 C 361.471 61.088,361.411 61.908,360.968 61.276 C 359.422 59.068,352.106 58.510,348.543 60.327 C 340.020 64.675,339.701 83.143,348.084 86.815 C 352.587 88.787,358.578 87.804,360.807 84.727 L 361.954 83.144 362.077 85.072 L 362.200 87.000 367.700 87.111 L 373.200 87.223 373.200 85.611 L 373.200 84.000 371.000 84.000 L 368.800 84.000 368.800 64.243 C 368.800 46.596,368.732 44.460,368.167 44.243 C 367.416 43.954,357.622 43.974,356.900 44.265 M0.267 44.667 C -1.422 46.356,0.228 48.039,4.488 48.972 C 6.186 49.345,8.116 49.919,8.776 50.248 C 11.181 51.448,13.400 50.861,13.400 49.025 L 13.400 47.450 11.200 46.921 C 9.990 46.630,8.684 46.212,8.297 45.991 C 6.579 45.010,0.866 44.068,0.267 44.667 M148.000 45.051 C 146.790 45.369,145.530 45.746,145.200 45.889 C 144.870 46.032,143.628 46.430,142.441 46.774 C 139.860 47.522,139.236 48.282,139.938 49.823 C 140.438 50.921,144.440 51.137,145.163 50.106 C 145.293 49.920,146.840 49.437,148.600 49.034 C 152.839 48.063,153.977 47.450,153.994 46.129 C 154.016 44.457,151.784 44.056,148.000 45.051 M288.305 47.187 C 285.533 47.692,282.637 48.723,281.764 49.514 C 281.344 49.895,280.505 50.524,279.899 50.913 C 279.294 51.301,278.306 52.380,277.703 53.310 C 277.100 54.239,276.474 55.099,276.310 55.220 C 273.008 57.659,273.132 76.000,276.474 79.588 C 276.874 80.016,277.200 80.528,277.200 80.725 C 277.200 81.096,278.763 82.693,281.200 84.813 C 284.358 87.560,293.082 88.692,298.467 87.053 C 302.306 85.884,307.200 80.159,307.200 76.836 C 307.200 75.510,304.145 75.033,303.765 76.300 C 301.693 83.210,294.784 86.744,288.826 83.941 C 286.966 83.065,284.800 81.327,284.800 80.709 C 284.800 80.521,284.431 79.868,283.980 79.258 C 281.687 76.157,281.336 61.220,283.449 56.697 C 285.296 52.745,286.260 51.824,289.871 50.559 C 292.707 49.566,294.370 49.364,295.020 49.933 C 295.229 50.115,296.141 50.475,297.046 50.732 C 300.340 51.668,301.391 53.071,302.184 57.600 C 302.638 60.190,302.646 60.200,304.059 60.320 L 305.477 60.441 305.740 56.436 C 305.884 54.234,306.271 51.400,306.599 50.138 C 307.072 48.325,307.092 47.779,306.698 47.529 C 305.656 46.867,304.439 47.225,303.453 48.484 C 302.496 49.707,302.412 49.735,301.695 49.086 C 299.913 47.473,292.500 46.422,288.305 47.187 M173.600 49.200 L 173.600 50.800 175.573 50.800 C 177.271 50.800,177.584 50.925,177.821 51.700 C 177.972 52.195,178.512 53.500,179.021 54.600 C 179.531 55.700,180.615 58.400,181.432 60.600 C 182.248 62.800,183.029 64.690,183.166 64.800 C 183.303 64.910,183.844 66.260,184.367 67.800 C 184.891 69.340,185.835 71.722,186.465 73.094 C 187.095 74.466,188.221 77.277,188.969 79.341 C 189.716 81.405,190.519 83.433,190.753 83.847 C 190.988 84.261,191.450 85.286,191.779 86.124 C 192.357 87.592,192.440 87.643,194.088 87.524 L 195.797 87.400 196.952 84.200 C 197.587 82.440,198.897 78.750,199.863 76.000 C 200.829 73.250,201.864 70.460,202.162 69.800 C 202.459 69.140,203.289 66.800,204.005 64.600 C 204.721 62.400,205.456 60.409,205.639 60.176 C 205.822 59.943,206.624 57.746,207.422 55.294 L 208.873 50.836 211.337 50.718 L 213.800 50.600 213.925 49.090 L 214.049 47.580 207.525 47.690 L 201.000 47.800 200.880 48.834 C 200.725 50.166,201.418 50.714,203.456 50.872 L 205.097 51.000 203.573 55.400 C 199.785 66.343,198.368 70.270,197.873 71.200 C 197.579 71.750,197.099 72.965,196.806 73.900 C 196.315 75.462,195.600 76.208,195.600 75.158 C 195.600 74.915,195.184 73.880,194.676 72.858 C 194.168 71.836,193.145 69.290,192.402 67.200 C 191.660 65.110,190.939 63.310,190.800 63.200 C 190.661 63.090,189.945 61.290,189.208 59.200 C 188.472 57.110,187.448 54.551,186.934 53.513 C 185.659 50.937,185.713 50.800,188.000 50.800 L 190.000 50.800 190.000 49.200 L 190.000 47.600 181.800 47.600 L 173.600 47.600 173.600 49.200 M214.800 49.200 L 214.800 50.800 217.400 50.800 L 220.000 50.800 220.000 67.400 L 220.000 84.000 217.400 84.000 L 214.800 84.000 214.800 85.600 L 214.800 87.200 224.200 87.200 L 233.600 87.200 233.600 85.600 L 233.600 84.000 231.000 84.000 L 228.400 84.000 228.400 67.400 L 228.400 50.800 231.000 50.800 L 233.600 50.800 233.600 49.200 L 233.600 47.600 224.200 47.600 L 214.800 47.600 214.800 49.200 M237.200 49.167 L 237.200 50.800 239.800 50.800 L 242.400 50.800 242.400 67.400 L 242.400 84.000 239.800 84.000 L 237.200 84.000 237.200 85.607 L 237.200 87.214 246.900 87.107 L 256.600 87.000 256.600 85.600 L 256.600 84.200 253.700 84.082 L 250.800 83.965 250.800 67.382 L 250.800 50.800 253.300 50.818 C 257.728 50.849,260.099 52.154,260.835 54.965 C 261.071 55.864,261.443 57.230,261.662 58.000 C 262.092 59.513,260.925 64.915,259.789 66.664 C 259.077 67.762,257.003 68.458,253.500 68.773 C 252.710 68.844,253.221 71.512,254.068 71.734 C 256.257 72.306,263.577 70.741,264.600 69.481 C 264.820 69.211,265.501 68.668,266.114 68.276 C 266.727 67.884,267.627 66.716,268.114 65.681 C 268.601 64.647,269.180 63.672,269.400 63.515 C 270.307 62.867,269.834 55.921,268.752 54.000 C 265.784 48.734,263.257 47.950,248.500 47.715 L 237.200 47.535 237.200 49.167 M41.258 56.809 C 43.536 57.065,45.670 57.386,46.000 57.523 C 46.330 57.659,48.299 57.957,50.375 58.185 L 54.150 58.600 54.908 60.797 C 55.325 62.005,55.811 63.085,55.988 63.197 C 56.166 63.309,56.499 64.030,56.728 64.800 C 57.559 67.589,59.232 72.156,59.575 72.573 C 59.769 72.808,60.296 74.080,60.746 75.400 C 62.460 80.421,63.285 82.614,63.606 83.004 C 63.789 83.226,64.574 85.281,65.351 87.569 C 66.128 89.858,66.907 91.836,67.082 91.965 C 67.257 92.094,68.067 94.180,68.883 96.600 C 69.718 99.078,70.073 100.563,69.697 100.000 C 69.329 99.450,68.347 98.353,67.514 97.561 C 66.681 96.770,66.000 95.934,66.000 95.703 C 66.000 95.472,65.394 94.750,64.653 94.100 C 63.911 93.449,63.146 92.639,62.953 92.301 C 62.759 91.962,61.675 90.630,60.544 89.342 C 54.672 82.653,50.536 77.835,50.000 77.061 C 49.670 76.584,48.950 75.729,48.400 75.161 C 47.850 74.594,46.230 72.718,44.800 70.994 C 43.370 69.270,41.615 67.318,40.900 66.656 C 40.185 65.994,39.600 65.232,39.600 64.962 C 39.600 64.692,39.015 63.979,38.300 63.378 C 37.586 62.776,36.704 61.815,36.342 61.242 C 35.980 60.669,34.769 59.210,33.651 58.000 C 31.067 55.202,31.070 55.192,34.358 55.819 C 35.876 56.108,38.981 56.553,41.258 56.809 M121.078 56.500 C 120.585 57.215,119.645 58.355,118.990 59.034 C 117.398 60.686,113.947 64.689,113.200 65.751 C 112.870 66.221,112.060 67.185,111.400 67.895 C 110.207 69.178,108.999 70.558,105.321 74.834 C 102.035 78.656,99.798 81.275,96.811 84.800 C 92.707 89.642,90.754 91.900,89.545 93.201 C 88.964 93.825,87.974 95.025,87.345 95.868 C 86.715 96.711,85.870 97.646,85.466 97.947 C 85.062 98.247,84.369 99.057,83.926 99.747 C 83.444 100.498,83.205 100.680,83.331 100.200 C 83.775 98.506,85.640 93.433,85.968 93.027 C 86.278 92.642,88.531 86.582,89.100 84.600 C 89.226 84.160,89.460 83.710,89.620 83.600 C 89.779 83.490,90.578 81.420,91.395 79.000 C 92.212 76.580,93.107 74.240,93.384 73.800 C 93.661 73.360,94.563 71.020,95.389 68.600 C 96.214 66.180,97.023 64.110,97.186 64.000 C 97.348 63.890,97.874 62.610,98.354 61.156 L 99.228 58.513 102.914 58.235 C 104.941 58.082,106.771 57.787,106.980 57.579 C 107.189 57.370,108.089 57.190,108.980 57.178 C 110.248 57.161,121.505 55.482,121.888 55.253 C 121.936 55.224,121.572 55.785,121.078 56.500 M94.548 59.800 C 94.414 60.240,93.895 61.500,93.394 62.600 C 92.893 63.700,91.899 66.310,91.184 68.400 C 90.470 70.490,89.760 72.290,89.607 72.400 C 89.454 72.510,88.646 74.580,87.813 77.000 C 86.979 79.420,86.133 81.607,85.933 81.860 C 85.732 82.113,84.960 84.093,84.217 86.260 C 83.473 88.427,82.578 90.762,82.228 91.450 C 81.878 92.137,80.956 94.548,80.178 96.807 C 79.401 99.066,78.503 101.289,78.183 101.746 C 77.862 102.204,77.600 102.864,77.600 103.213 C 77.600 105.325,76.522 105.290,75.824 103.156 C 75.437 101.970,74.987 100.910,74.825 100.800 C 74.663 100.690,73.853 98.620,73.024 96.200 C 72.196 93.780,71.360 91.606,71.168 91.370 C 70.975 91.133,70.071 88.793,69.159 86.170 C 68.247 83.546,67.383 81.310,67.239 81.200 C 66.956 80.984,64.434 73.981,64.106 72.500 C 63.996 72.005,63.763 71.600,63.586 71.600 C 63.410 71.600,62.610 69.631,61.808 67.225 C 61.007 64.819,60.227 62.794,60.075 62.725 C 59.924 62.656,59.524 61.790,59.186 60.800 L 58.571 59.000 76.681 59.000 C 94.605 59.000,94.788 59.008,94.548 59.800 M318.476 59.989 C 312.251 62.271,309.220 71.110,311.733 79.654 C 315.283 91.727,335.311 90.294,337.641 77.800 C 339.121 69.861,336.698 63.062,331.400 60.293 C 329.042 59.061,321.493 58.883,318.476 59.989 M384.200 59.550 C 380.883 60.425,377.729 63.459,376.527 66.932 C 375.093 71.078,375.778 80.317,377.680 82.479 C 378.126 82.986,378.936 83.978,379.481 84.685 C 384.007 90.556,397.620 87.985,399.579 80.890 C 400.405 77.900,397.930 77.819,396.092 80.775 C 393.714 84.601,388.777 86.298,386.416 84.100 C 385.884 83.605,385.294 83.200,385.104 83.200 C 384.423 83.200,383.567 80.300,383.327 77.179 L 383.081 74.000 391.541 74.000 L 400.000 74.000 400.000 71.087 C 400.000 65.501,398.421 61.952,395.227 60.357 C 393.290 59.389,386.651 58.903,384.200 59.550 M327.957 63.248 C 331.392 65.954,331.356 80.163,327.904 83.650 C 322.272 89.339,317.120 81.300,318.774 69.404 C 319.706 62.703,323.789 59.966,327.957 63.248 M391.448 63.368 C 392.753 64.635,392.874 64.959,393.086 67.768 L 393.315 70.800 388.258 70.800 C 383.702 70.800,383.201 70.731,383.214 70.100 C 383.240 68.829,384.310 64.329,384.658 64.030 C 387.595 61.510,389.358 61.338,391.448 63.368 M358.676 63.956 C 363.726 67.614,361.546 84.000,356.009 84.000 C 355.784 84.000,355.600 84.180,355.600 84.400 C 355.600 84.620,355.240 84.800,354.800 84.800 C 354.360 84.800,354.000 84.656,354.000 84.480 C 354.000 84.305,353.398 83.943,352.663 83.677 C 348.637 82.222,348.415 66.740,352.378 63.816 C 354.316 62.386,356.578 62.436,358.676 63.956 M226.318 94.483 C 225.405 95.175,224.800 96.906,224.800 98.826 C 224.800 100.238,224.697 100.400,223.800 100.400 C 223.250 100.400,222.800 100.565,222.800 100.767 C 222.800 101.679,223.349 102.400,224.043 102.400 C 224.751 102.400,224.800 102.776,224.800 108.200 L 224.800 114.000 226.000 114.000 L 227.200 114.000 227.200 108.200 L 227.200 102.400 229.200 102.400 C 231.067 102.400,231.200 102.333,231.200 101.400 C 231.200 100.467,231.067 100.400,229.200 100.400 C 225.872 100.400,226.333 96.685,229.672 96.602 C 231.309 96.560,231.400 96.496,231.400 95.379 C 231.400 94.025,227.766 93.384,226.318 94.483 M333.600 104.200 L 333.600 114.000 334.800 114.000 L 336.000 114.000 336.000 104.200 L 336.000 94.400 334.800 94.400 L 333.600 94.400 333.600 104.200 M314.400 96.400 C 314.400 98.028,314.753 98.300,316.167 97.757 C 317.458 97.262,316.986 94.800,315.600 94.800 C 314.467 94.800,314.400 94.889,314.400 96.400 M235.405 100.533 C 231.916 102.433,231.333 110.970,234.529 113.357 C 237.274 115.406,243.095 114.101,244.074 111.216 C 246.620 103.722,241.388 97.275,235.405 100.533 M253.385 99.935 C 252.390 100.826,249.600 101.609,249.600 100.997 C 249.600 100.600,249.197 100.400,248.400 100.400 L 247.200 100.400 247.200 107.200 L 247.200 114.000 248.400 114.000 L 249.600 114.000 249.606 109.300 C 249.613 103.766,249.551 103.901,252.519 102.970 C 254.717 102.280,254.833 102.179,254.719 101.052 C 254.595 99.809,254.042 99.347,253.385 99.935 M264.115 100.440 C 262.393 101.293,261.970 101.958,261.915 103.901 C 261.838 106.631,262.504 107.218,267.000 108.380 C 271.814 109.624,270.241 112.285,264.929 111.883 L 262.000 111.662 262.000 112.784 C 262.000 113.871,262.083 113.916,264.612 114.187 C 269.418 114.701,271.583 113.762,272.188 110.901 C 272.853 107.759,271.713 106.580,267.000 105.533 C 264.718 105.026,264.600 104.941,264.600 103.800 L 264.600 102.600 268.200 102.574 C 271.759 102.547,271.801 102.536,271.922 101.520 C 272.120 99.854,266.787 99.116,264.115 100.440 M279.707 100.053 C 279.457 100.303,278.251 100.483,277.027 100.455 L 274.800 100.404 274.800 109.802 L 274.800 119.200 276.200 119.200 L 277.600 119.200 277.602 116.700 L 277.604 114.200 280.102 114.175 C 283.042 114.145,285.036 113.252,285.671 111.681 C 286.313 110.094,286.304 104.046,285.658 102.515 C 284.807 100.499,280.884 98.876,279.707 100.053 M291.511 100.441 C 288.152 102.143,287.258 110.061,290.083 113.084 C 291.793 114.914,299.600 114.819,299.600 112.968 C 299.600 112.021,299.526 112.000,296.270 112.000 C 292.694 112.000,291.680 111.478,291.019 109.300 C 290.747 108.402,290.759 108.400,295.418 108.400 L 300.090 108.400 299.934 105.700 C 299.652 100.837,295.656 98.342,291.511 100.441 M305.579 100.132 C 305.017 100.390,304.027 101.021,303.379 101.536 L 302.200 102.472 302.200 107.029 L 302.200 111.585 303.508 112.892 C 305.695 115.079,311.966 114.789,311.994 112.500 C 311.998 112.148,311.182 112.000,309.229 112.000 C 305.516 112.000,304.800 111.197,304.800 107.035 C 304.800 102.951,305.273 102.400,308.780 102.400 C 310.911 102.400,311.568 102.260,311.759 101.764 C 312.084 100.917,311.721 100.400,310.800 100.400 C 310.386 100.400,309.936 100.220,309.800 100.000 C 309.470 99.466,306.855 99.548,305.579 100.132 M322.800 100.000 C 322.470 100.213,321.705 100.391,321.100 100.394 C 320.200 100.399,320.000 100.579,320.000 101.384 C 320.000 102.347,320.079 102.371,323.500 102.484 L 327.000 102.600 327.132 103.757 C 327.295 105.181,326.712 105.586,324.487 105.594 C 320.648 105.608,318.945 107.305,319.321 110.745 C 319.673 113.960,320.885 114.485,326.800 113.981 C 327.790 113.896,329.275 113.976,330.100 114.158 C 331.694 114.510,332.495 112.718,331.000 112.145 C 330.524 111.962,330.400 111.115,330.398 108.057 C 330.395 102.775,330.006 101.565,327.964 100.475 C 326.251 99.561,323.825 99.337,322.800 100.000 M341.118 100.617 C 336.894 102.816,338.474 107.453,343.720 108.253 C 346.748 108.715,347.500 109.643,346.217 111.335 C 345.681 112.044,342.016 112.188,340.000 111.581 C 339.571 111.451,339.365 111.758,339.278 112.657 L 339.156 113.914 342.008 114.201 C 347.305 114.733,349.600 113.450,349.600 109.955 C 349.600 107.288,348.814 106.537,345.256 105.801 C 341.827 105.092,341.600 104.984,341.600 104.056 C 341.600 102.737,342.470 102.400,345.880 102.400 C 350.171 102.400,350.914 100.980,347.088 100.091 C 344.167 99.412,343.283 99.490,341.118 100.617 M314.400 107.200 L 314.400 114.000 315.600 114.000 L 316.800 114.000 316.800 107.200 L 316.800 100.400 315.600 100.400 L 314.400 100.400 314.400 107.200 M240.977 103.289 C 242.882 106.009,241.338 112.000,238.732 112.000 C 235.424 112.000,233.451 105.387,236.100 103.177 C 237.424 102.073,240.170 102.136,240.977 103.289 M282.576 103.174 C 284.998 105.849,283.003 112.000,279.714 112.000 L 277.600 112.000 277.600 107.620 C 277.600 103.870,277.701 103.181,278.300 102.832 C 279.490 102.139,281.807 102.324,282.576 103.174 M296.349 102.938 C 296.594 103.234,296.909 104.044,297.048 104.738 L 297.300 106.000 294.042 106.000 L 290.785 106.000 291.056 104.900 C 291.593 102.728,295.096 101.429,296.349 102.938 M326.652 111.405 C 325.753 112.304,322.927 112.184,322.414 111.226 C 321.399 109.329,322.202 108.282,324.877 108.013 L 327.000 107.800 327.123 109.305 C 327.200 110.247,327.024 111.033,326.652 111.405 " stroke="none" fill="#ffffff" fill-rule="evenodd"></path><path id="path1" d="M75.429 0.629 C 73.951 2.106,74.664 13.050,76.264 13.452 C 78.390 13.985,78.800 12.891,78.800 6.682 C 78.800 0.242,77.732 -1.675,75.429 0.629 M30.364 8.748 L 29.440 9.497 31.395 13.548 C 32.470 15.777,33.469 17.600,33.614 17.600 C 33.760 17.600,34.166 18.331,34.517 19.225 C 35.124 20.772,35.230 20.845,36.678 20.725 C 38.525 20.573,39.033 18.689,37.726 16.839 C 37.323 16.267,36.283 14.332,35.416 12.539 C 34.408 10.455,33.448 9.047,32.758 8.639 C 31.417 7.847,31.481 7.844,30.364 8.748 M119.977 9.099 C 119.634 9.501,118.654 11.263,117.800 13.015 C 116.946 14.767,115.921 16.629,115.524 17.154 C 114.081 19.055,114.914 20.977,117.073 20.729 C 117.860 20.638,118.363 20.242,118.759 19.400 C 119.069 18.740,119.459 18.110,119.625 17.999 C 120.542 17.388,123.728 9.892,123.337 9.267 C 122.735 8.306,120.737 8.206,119.977 9.099 M39.300 34.864 C 35.395 38.859,30.490 43.860,28.400 45.976 C 22.513 51.937,22.883 51.299,24.209 53.213 C 24.827 54.105,25.545 54.962,25.805 55.117 C 26.065 55.273,26.953 56.292,27.778 57.382 C 28.603 58.472,29.710 59.822,30.238 60.382 C 32.243 62.510,33.893 64.384,34.894 65.668 C 35.464 66.401,36.441 67.563,37.065 68.251 C 39.088 70.480,42.943 74.971,49.348 82.556 C 50.257 83.632,51.375 84.916,51.834 85.409 C 52.293 85.902,53.366 87.157,54.220 88.198 C 55.073 89.239,56.317 90.689,56.985 91.421 C 57.653 92.152,58.775 93.437,59.477 94.275 C 60.179 95.114,61.684 96.880,62.820 98.200 C 64.937 100.659,65.414 101.210,72.423 109.300 C 74.662 111.885,76.608 113.995,76.747 113.989 C 77.012 113.978,77.199 113.766,84.368 105.400 C 86.818 102.540,89.528 99.390,90.389 98.400 C 92.807 95.620,95.941 91.978,97.546 90.082 C 98.346 89.137,99.588 87.721,100.306 86.936 C 101.024 86.151,101.744 85.283,101.906 85.008 C 102.181 84.540,106.012 80.117,107.800 78.203 C 108.240 77.732,109.320 76.460,110.200 75.375 C 111.080 74.291,112.669 72.413,113.732 71.202 C 114.794 69.991,116.234 68.328,116.932 67.507 C 117.629 66.685,118.830 65.318,119.600 64.468 C 120.370 63.618,122.080 61.609,123.400 60.003 C 124.720 58.397,126.309 56.575,126.930 55.953 C 128.154 54.729,130.000 52.150,130.000 51.664 C 130.000 51.170,124.966 45.717,119.000 39.751 C 115.920 36.670,112.009 32.676,110.309 30.875 L 107.218 27.600 76.809 27.600 L 46.401 27.600 39.300 34.864 M71.313 32.903 C 70.605 33.616,69.310 35.010,68.436 36.000 C 67.561 36.990,64.495 40.461,61.623 43.712 C 58.750 46.964,56.400 49.799,56.400 50.012 C 56.400 51.513,55.245 49.966,54.674 47.700 C 53.263 42.104,52.700 40.194,52.404 40.000 C 52.236 39.890,51.719 38.360,51.255 36.600 C 50.791 34.840,50.298 32.995,50.159 32.500 L 49.907 31.600 61.253 31.603 L 72.600 31.606 71.313 32.903 M102.751 34.300 C 102.341 35.785,101.794 37.810,101.537 38.800 C 101.281 39.790,100.948 40.690,100.799 40.800 C 100.649 40.910,100.131 42.477,99.648 44.283 C 99.165 46.088,98.541 48.227,98.261 49.036 L 97.752 50.506 95.776 48.181 C 94.689 46.902,93.440 45.479,93.000 45.018 C 92.560 44.557,91.120 42.938,89.800 41.420 C 87.122 38.339,84.037 34.865,82.235 32.900 L 81.043 31.600 92.271 31.600 L 103.498 31.600 102.751 34.300 M78.981 35.200 C 79.103 35.530,79.888 36.520,80.726 37.400 C 81.563 38.280,83.735 40.710,85.552 42.800 C 91.056 49.132,92.130 50.323,93.900 52.057 C 97.048 55.142,96.392 55.273,77.745 55.273 C 56.629 55.273,56.523 55.250,60.078 51.534 C 61.025 50.544,62.700 48.689,63.800 47.412 C 64.900 46.135,66.430 44.406,67.200 43.571 C 67.970 42.736,69.345 41.186,70.255 40.126 C 71.166 39.067,72.966 37.011,74.255 35.557 L 76.600 32.914 77.680 33.757 C 78.273 34.221,78.859 34.870,78.981 35.200 M47.216 37.100 C 47.728 39.025,48.273 40.690,48.428 40.800 C 48.677 40.977,49.276 43.040,51.451 51.200 C 51.774 52.410,52.209 53.460,52.419 53.533 C 53.392 53.874,52.672 54.468,51.500 54.292 C 50.785 54.185,47.041 53.637,43.181 53.074 C 34.246 51.772,30.727 51.171,30.105 50.838 C 29.716 50.630,45.594 33.600,46.176 33.600 C 46.237 33.600,46.705 35.175,47.216 37.100 M110.516 36.746 C 111.662 37.968,115.164 41.578,118.299 44.769 C 122.419 48.962,123.846 50.654,123.450 50.876 C 123.149 51.044,119.055 51.730,114.352 52.400 C 109.648 53.070,104.841 53.810,103.668 54.044 C 102.496 54.278,101.446 54.379,101.335 54.268 C 101.145 54.078,102.612 48.318,103.840 44.429 C 104.148 43.455,104.400 42.330,104.400 41.929 C 104.400 41.528,104.554 41.200,104.743 41.200 C 104.932 41.200,105.501 39.625,106.007 37.700 C 106.513 35.775,107.005 34.056,107.099 33.881 C 107.317 33.475,107.928 33.987,110.516 36.746 M356.900 44.265 C 356.625 44.376,356.400 45.082,356.400 45.833 L 356.400 47.200 358.800 47.200 L 361.200 47.200 361.196 48.700 C 361.194 49.525,361.260 52.861,361.343 56.114 C 361.471 61.088,361.411 61.908,360.968 61.276 C 359.422 59.068,352.106 58.510,348.543 60.327 C 340.020 64.675,339.701 83.143,348.084 86.815 C 352.587 88.787,358.578 87.804,360.807 84.727 L 361.954 83.144 362.077 85.072 L 362.200 87.000 367.700 87.111 L 373.200 87.223 373.200 85.611 L 373.200 84.000 371.000 84.000 L 368.800 84.000 368.800 64.243 C 368.800 46.596,368.732 44.460,368.167 44.243 C 367.416 43.954,357.622 43.974,356.900 44.265 M0.267 44.667 C -1.422 46.356,0.228 48.039,4.488 48.972 C 6.186 49.345,8.116 49.919,8.776 50.248 C 11.181 51.448,13.400 50.861,13.400 49.025 L 13.400 47.450 11.200 46.921 C 9.990 46.630,8.684 46.212,8.297 45.991 C 6.579 45.010,0.866 44.068,0.267 44.667 M148.000 45.051 C 146.790 45.369,145.530 45.746,145.200 45.889 C 144.870 46.032,143.628 46.430,142.441 46.774 C 139.860 47.522,139.236 48.282,139.938 49.823 C 140.438 50.921,144.440 51.137,145.163 50.106 C 145.293 49.920,146.840 49.437,148.600 49.034 C 152.839 48.063,153.977 47.450,153.994 46.129 C 154.016 44.457,151.784 44.056,148.000 45.051 M288.305 47.187 C 285.533 47.692,282.637 48.723,281.764 49.514 C 281.344 49.895,280.505 50.524,279.899 50.913 C 279.294 51.301,278.306 52.380,277.703 53.310 C 277.100 54.239,276.474 55.099,276.310 55.220 C 273.008 57.659,273.132 76.000,276.474 79.588 C 276.874 80.016,277.200 80.528,277.200 80.725 C 277.200 81.096,278.763 82.693,281.200 84.813 C 284.358 87.560,293.082 88.692,298.467 87.053 C 302.306 85.884,307.200 80.159,307.200 76.836 C 307.200 75.510,304.145 75.033,303.765 76.300 C 301.693 83.210,294.784 86.744,288.826 83.941 C 286.966 83.065,284.800 81.327,284.800 80.709 C 284.800 80.521,284.431 79.868,283.980 79.258 C 281.687 76.157,281.336 61.220,283.449 56.697 C 285.296 52.745,286.260 51.824,289.871 50.559 C 292.707 49.566,294.370 49.364,295.020 49.933 C 295.229 50.115,296.141 50.475,297.046 50.732 C 300.340 51.668,301.391 53.071,302.184 57.600 C 302.638 60.190,302.646 60.200,304.059 60.320 L 305.477 60.441 305.740 56.436 C 305.884 54.234,306.271 51.400,306.599 50.138 C 307.072 48.325,307.092 47.779,306.698 47.529 C 305.656 46.867,304.439 47.225,303.453 48.484 C 302.496 49.707,302.412 49.735,301.695 49.086 C 299.913 47.473,292.500 46.422,288.305 47.187 M173.600 49.200 L 173.600 50.800 175.573 50.800 C 177.271 50.800,177.584 50.925,177.821 51.700 C 177.972 52.195,178.512 53.500,179.021 54.600 C 179.531 55.700,180.615 58.400,181.432 60.600 C 182.248 62.800,183.029 64.690,183.166 64.800 C 183.303 64.910,183.844 66.260,184.367 67.800 C 184.891 69.340,185.835 71.722,186.465 73.094 C 187.095 74.466,188.221 77.277,188.969 79.341 C 189.716 81.405,190.519 83.433,190.753 83.847 C 190.988 84.261,191.450 85.286,191.779 86.124 C 192.357 87.592,192.440 87.643,194.088 87.524 L 195.797 87.400 196.952 84.200 C 197.587 82.440,198.897 78.750,199.863 76.000 C 200.829 73.250,201.864 70.460,202.162 69.800 C 202.459 69.140,203.289 66.800,204.005 64.600 C 204.721 62.400,205.456 60.409,205.639 60.176 C 205.822 59.943,206.624 57.746,207.422 55.294 L 208.873 50.836 211.337 50.718 L 213.800 50.600 213.925 49.090 L 214.049 47.580 207.525 47.690 L 201.000 47.800 200.880 48.834 C 200.725 50.166,201.418 50.714,203.456 50.872 L 205.097 51.000 203.573 55.400 C 199.785 66.343,198.368 70.270,197.873 71.200 C 197.579 71.750,197.099 72.965,196.806 73.900 C 196.315 75.462,195.600 76.208,195.600 75.158 C 195.600 74.915,195.184 73.880,194.676 72.858 C 194.168 71.836,193.145 69.290,192.402 67.200 C 191.660 65.110,190.939 63.310,190.800 63.200 C 190.661 63.090,189.945 61.290,189.208 59.200 C 188.472 57.110,187.448 54.551,186.934 53.513 C 185.659 50.937,185.713 50.800,188.000 50.800 L 190.000 50.800 190.000 49.200 L 190.000 47.600 181.800 47.600 L 173.600 47.600 173.600 49.200 M214.800 49.200 L 214.800 50.800 217.400 50.800 L 220.000 50.800 220.000 67.400 L 220.000 84.000 217.400 84.000 L 214.800 84.000 214.800 85.600 L 214.800 87.200 224.200 87.200 L 233.600 87.200 233.600 85.600 L 233.600 84.000 231.000 84.000 L 228.400 84.000 228.400 67.400 L 228.400 50.800 231.000 50.800 L 233.600 50.800 233.600 49.200 L 233.600 47.600 224.200 47.600 L 214.800 47.600 214.800 49.200 M237.200 49.167 L 237.200 50.800 239.800 50.800 L 242.400 50.800 242.400 67.400 L 242.400 84.000 239.800 84.000 L 237.200 84.000 237.200 85.607 L 237.200 87.214 246.900 87.107 L 256.600 87.000 256.600 85.600 L 256.600 84.200 253.700 84.082 L 250.800 83.965 250.800 67.382 L 250.800 50.800 253.300 50.818 C 257.728 50.849,260.099 52.154,260.835 54.965 C 261.071 55.864,261.443 57.230,261.662 58.000 C 262.092 59.513,260.925 64.915,259.789 66.664 C 259.077 67.762,257.003 68.458,253.500 68.773 C 252.710 68.844,253.221 71.512,254.068 71.734 C 256.257 72.306,263.577 70.741,264.600 69.481 C 264.820 69.211,265.501 68.668,266.114 68.276 C 266.727 67.884,267.627 66.716,268.114 65.681 C 268.601 64.647,269.180 63.672,269.400 63.515 C 270.307 62.867,269.834 55.921,268.752 54.000 C 265.784 48.734,263.257 47.950,248.500 47.715 L 237.200 47.535 237.200 49.167 M41.258 56.809 C 43.536 57.065,45.670 57.386,46.000 57.523 C 46.330 57.659,48.299 57.957,50.375 58.185 L 54.150 58.600 54.908 60.797 C 55.325 62.005,55.811 63.085,55.988 63.197 C 56.166 63.309,56.499 64.030,56.728 64.800 C 57.559 67.589,59.232 72.156,59.575 72.573 C 59.769 72.808,60.296 74.080,60.746 75.400 C 62.460 80.421,63.285 82.614,63.606 83.004 C 63.789 83.226,64.574 85.281,65.351 87.569 C 66.128 89.858,66.907 91.836,67.082 91.965 C 67.257 92.094,68.067 94.180,68.883 96.600 C 69.718 99.078,70.073 100.563,69.697 100.000 C 69.329 99.450,68.347 98.353,67.514 97.561 C 66.681 96.770,66.000 95.934,66.000 95.703 C 66.000 95.472,65.394 94.750,64.653 94.100 C 63.911 93.449,63.146 92.639,62.953 92.301 C 62.759 91.962,61.675 90.630,60.544 89.342 C 54.672 82.653,50.536 77.835,50.000 77.061 C 49.670 76.584,48.950 75.729,48.400 75.161 C 47.850 74.594,46.230 72.718,44.800 70.994 C 43.370 69.270,41.615 67.318,40.900 66.656 C 40.185 65.994,39.600 65.232,39.600 64.962 C 39.600 64.692,39.015 63.979,38.300 63.378 C 37.586 62.776,36.704 61.815,36.342 61.242 C 35.980 60.669,34.769 59.210,33.651 58.000 C 31.067 55.202,31.070 55.192,34.358 55.819 C 35.876 56.108,38.981 56.553,41.258 56.809 M121.078 56.500 C 120.585 57.215,119.645 58.355,118.990 59.034 C 117.398 60.686,113.947 64.689,113.200 65.751 C 112.870 66.221,112.060 67.185,111.400 67.895 C 110.207 69.178,108.999 70.558,105.321 74.834 C 102.035 78.656,99.798 81.275,96.811 84.800 C 92.707 89.642,90.754 91.900,89.545 93.201 C 88.964 93.825,87.974 95.025,87.345 95.868 C 86.715 96.711,85.870 97.646,85.466 97.947 C 85.062 98.247,84.369 99.057,83.926 99.747 C 83.444 100.498,83.205 100.680,83.331 100.200 C 83.775 98.506,85.640 93.433,85.968 93.027 C 86.278 92.642,88.531 86.582,89.100 84.600 C 89.226 84.160,89.460 83.710,89.620 83.600 C 89.779 83.490,90.578 81.420,91.395 79.000 C 92.212 76.580,93.107 74.240,93.384 73.800 C 93.661 73.360,94.563 71.020,95.389 68.600 C 96.214 66.180,97.023 64.110,97.186 64.000 C 97.348 63.890,97.874 62.610,98.354 61.156 L 99.228 58.513 102.914 58.235 C 104.941 58.082,106.771 57.787,106.980 57.579 C 107.189 57.370,108.089 57.190,108.980 57.178 C 110.248 57.161,121.505 55.482,121.888 55.253 C 121.936 55.224,121.572 55.785,121.078 56.500 M94.548 59.800 C 94.414 60.240,93.895 61.500,93.394 62.600 C 92.893 63.700,91.899 66.310,91.184 68.400 C 90.470 70.490,89.760 72.290,89.607 72.400 C 89.454 72.510,88.646 74.580,87.813 77.000 C 86.979 79.420,86.133 81.607,85.933 81.860 C 85.732 82.113,84.960 84.093,84.217 86.260 C 83.473 88.427,82.578 90.762,82.228 91.450 C 81.878 92.137,80.956 94.548,80.178 96.807 C 79.401 99.066,78.503 101.289,78.183 101.746 C 77.862 102.204,77.600 102.864,77.600 103.213 C 77.600 105.325,76.522 105.290,75.824 103.156 C 75.437 101.970,74.987 100.910,74.825 100.800 C 74.663 100.690,73.853 98.620,73.024 96.200 C 72.196 93.780,71.360 91.606,71.168 91.370 C 70.975 91.133,70.071 88.793,69.159 86.170 C 68.247 83.546,67.383 81.310,67.239 81.200 C 66.956 80.984,64.434 73.981,64.106 72.500 C 63.996 72.005,63.763 71.600,63.586 71.600 C 63.410 71.600,62.610 69.631,61.808 67.225 C 61.007 64.819,60.227 62.794,60.075 62.725 C 59.924 62.656,59.524 61.790,59.186 60.800 L 58.571 59.000 76.681 59.000 C 94.605 59.000,94.788 59.008,94.548 59.800 M318.476 59.989 C 312.251 62.271,309.220 71.110,311.733 79.654 C 315.283 91.727,335.311 90.294,337.641 77.800 C 339.121 69.861,336.698 63.062,331.400 60.293 C 329.042 59.061,321.493 58.883,318.476 59.989 M384.200 59.550 C 380.883 60.425,377.729 63.459,376.527 66.932 C 375.093 71.078,375.778 80.317,377.680 82.479 C 378.126 82.986,378.936 83.978,379.481 84.685 C 384.007 90.556,397.620 87.985,399.579 80.890 C 400.405 77.900,397.930 77.819,396.092 80.775 C 393.714 84.601,388.777 86.298,386.416 84.100 C 385.884 83.605,385.294 83.200,385.104 83.200 C 384.423 83.200,383.567 80.300,383.327 77.179 L 383.081 74.000 391.541 74.000 L 400.000 74.000 400.000 71.087 C 400.000 65.501,398.421 61.952,395.227 60.357 C 393.290 59.389,386.651 58.903,384.200 59.550 M327.957 63.248 C 331.392 65.954,331.356 80.163,327.904 83.650 C 322.272 89.339,317.120 81.300,318.774 69.404 C 319.706 62.703,323.789 59.966,327.957 63.248 M391.448 63.368 C 392.753 64.635,392.874 64.959,393.086 67.768 L 393.315 70.800 388.258 70.800 C 383.702 70.800,383.201 70.731,383.214 70.100 C 383.240 68.829,384.310 64.329,384.658 64.030 C 387.595 61.510,389.358 61.338,391.448 63.368 M358.676 63.956 C 363.726 67.614,361.546 84.000,356.009 84.000 C 355.784 84.000,355.600 84.180,355.600 84.400 C 355.600 84.620,355.240 84.800,354.800 84.800 C 354.360 84.800,354.000 84.656,354.000 84.480 C 354.000 84.305,353.398 83.943,352.663 83.677 C 348.637 82.222,348.415 66.740,352.378 63.816 C 354.316 62.386,356.578 62.436,358.676 63.956 M226.318 94.483 C 225.405 95.175,224.800 96.906,224.800 98.826 C 224.800 100.238,224.697 100.400,223.800 100.400 C 223.250 100.400,222.800 100.565,222.800 100.767 C 222.800 101.679,223.349 102.400,224.043 102.400 C 224.751 102.400,224.800 102.776,224.800 108.200 L 224.800 114.000 226.000 114.000 L 227.200 114.000 227.200 108.200 L 227.200 102.400 229.200 102.400 C 231.067 102.400,231.200 102.333,231.200 101.400 C 231.200 100.467,231.067 100.400,229.200 100.400 C 225.872 100.400,226.333 96.685,229.672 96.602 C 231.309 96.560,231.400 96.496,231.400 95.379 C 231.400 94.025,227.766 93.384,226.318 94.483 M333.600 104.200 L 333.600 114.000 334.800 114.000 L 336.000 114.000 336.000 104.200 L 336.000 94.400 334.800 94.400 L 333.600 94.400 333.600 104.200 M314.400 96.400 C 314.400 98.028,314.753 98.300,316.167 97.757 C 317.458 97.262,316.986 94.800,315.600 94.800 C 314.467 94.800,314.400 94.889,314.400 96.400 M235.405 100.533 C 231.916 102.433,231.333 110.970,234.529 113.357 C 237.274 115.406,243.095 114.101,244.074 111.216 C 246.620 103.722,241.388 97.275,235.405 100.533 M253.385 99.935 C 252.390 100.826,249.600 101.609,249.600 100.997 C 249.600 100.600,249.197 100.400,248.400 100.400 L 247.200 100.400 247.200 107.200 L 247.200 114.000 248.400 114.000 L 249.600 114.000 249.606 109.300 C 249.613 103.766,249.551 103.901,252.519 102.970 C 254.717 102.280,254.833 102.179,254.719 101.052 C 254.595 99.809,254.042 99.347,253.385 99.935 M264.115 100.440 C 262.393 101.293,261.970 101.958,261.915 103.901 C 261.838 106.631,262.504 107.218,267.000 108.380 C 271.814 109.624,270.241 112.285,264.929 111.883 L 262.000 111.662 262.000 112.784 C 262.000 113.871,262.083 113.916,264.612 114.187 C 269.418 114.701,271.583 113.762,272.188 110.901 C 272.853 107.759,271.713 106.580,267.000 105.533 C 264.718 105.026,264.600 104.941,264.600 103.800 L 264.600 102.600 268.200 102.574 C 271.759 102.547,271.801 102.536,271.922 101.520 C 272.120 99.854,266.787 99.116,264.115 100.440 M279.707 100.053 C 279.457 100.303,278.251 100.483,277.027 100.455 L 274.800 100.404 274.800 109.802 L 274.800 119.200 276.200 119.200 L 277.600 119.200 277.602 116.700 L 277.604 114.200 280.102 114.175 C 283.042 114.145,285.036 113.252,285.671 111.681 C 286.313 110.094,286.304 104.046,285.658 102.515 C 284.807 100.499,280.884 98.876,279.707 100.053 M291.511 100.441 C 288.152 102.143,287.258 110.061,290.083 113.084 C 291.793 114.914,299.600 114.819,299.600 112.968 C 299.600 112.021,299.526 112.000,296.270 112.000 C 292.694 112.000,291.680 111.478,291.019 109.300 C 290.747 108.402,290.759 108.400,295.418 108.400 L 300.090 108.400 299.934 105.700 C 299.652 100.837,295.656 98.342,291.511 100.441 M305.579 100.132 C 305.017 100.390,304.027 101.021,303.379 101.536 L 302.200 102.472 302.200 107.029 L 302.200 111.585 303.508 112.892 C 305.695 115.079,311.966 114.789,311.994 112.500 C 311.998 112.148,311.182 112.000,309.229 112.000 C 305.516 112.000,304.800 111.197,304.800 107.035 C 304.800 102.951,305.273 102.400,308.780 102.400 C 310.911 102.400,311.568 102.260,311.759 101.764 C 312.084 100.917,311.721 100.400,310.800 100.400 C 310.386 100.400,309.936 100.220,309.800 100.000 C 309.470 99.466,306.855 99.548,305.579 100.132 M322.800 100.000 C 322.470 100.213,321.705 100.391,321.100 100.394 C 320.200 100.399,320.000 100.579,320.000 101.384 C 320.000 102.347,320.079 102.371,323.500 102.484 L 327.000 102.600 327.132 103.757 C 327.295 105.181,326.712 105.586,324.487 105.594 C 320.648 105.608,318.945 107.305,319.321 110.745 C 319.673 113.960,320.885 114.485,326.800 113.981 C 327.790 113.896,329.275 113.976,330.100 114.158 C 331.694 114.510,332.495 112.718,331.000 112.145 C 330.524 111.962,330.400 111.115,330.398 108.057 C 330.395 102.775,330.006 101.565,327.964 100.475 C 326.251 99.561,323.825 99.337,322.800 100.000 M341.118 100.617 C 336.894 102.816,338.474 107.453,343.720 108.253 C 346.748 108.715,347.500 109.643,346.217 111.335 C 345.681 112.044,342.016 112.188,340.000 111.581 C 339.571 111.451,339.365 111.758,339.278 112.657 L 339.156 113.914 342.008 114.201 C 347.305 114.733,349.600 113.450,349.600 109.955 C 349.600 107.288,348.814 106.537,345.256 105.801 C 341.827 105.092,341.600 104.984,341.600 104.056 C 341.600 102.737,342.470 102.400,345.880 102.400 C 350.171 102.400,350.914 100.980,347.088 100.091 C 344.167 99.412,343.283 99.490,341.118 100.617 M314.400 107.200 L 314.400 114.000 315.600 114.000 L 316.800 114.000 316.800 107.200 L 316.800 100.400 315.600 100.400 L 314.400 100.400 314.400 107.200 M240.977 103.289 C 242.882 106.009,241.338 112.000,238.732 112.000 C 235.424 112.000,233.451 105.387,236.100 103.177 C 237.424 102.073,240.170 102.136,240.977 103.289 M282.576 103.174 C 284.998 105.849,283.003 112.000,279.714 112.000 L 277.600 112.000 277.600 107.620 C 277.600 103.870,277.701 103.181,278.300 102.832 C 279.490 102.139,281.807 102.324,282.576 103.174 M296.349 102.938 C 296.594 103.234,296.909 104.044,297.048 104.738 L 297.300 106.000 294.042 106.000 L 290.785 106.000 291.056 104.900 C 291.593 102.728,295.096 101.429,296.349 102.938 M326.652 111.405 C 325.753 112.304,322.927 112.184,322.414 111.226 C 321.399 109.329,322.202 108.282,324.877 108.013 L 327.000 107.800 327.123 109.305 C 327.200 110.247,327.024 111.033,326.652 111.405 " stroke="none" fill="#ffffff" fill-rule="evenodd"></path><path id="path2" d="M75.429 0.629 C 73.951 2.106,74.664 13.050,76.264 13.452 C 78.390 13.985,78.800 12.891,78.800 6.682 C 78.800 0.242,77.732 -1.675,75.429 0.629 M30.364 8.748 L 29.440 9.497 31.395 13.548 C 32.470 15.777,33.469 17.600,33.614 17.600 C 33.760 17.600,34.166 18.331,34.517 19.225 C 35.124 20.772,35.230 20.845,36.678 20.725 C 38.525 20.573,39.033 18.689,37.726 16.839 C 37.323 16.267,36.283 14.332,35.416 12.539 C 34.408 10.455,33.448 9.047,32.758 8.639 C 31.417 7.847,31.481 7.844,30.364 8.748 M119.977 9.099 C 119.634 9.501,118.654 11.263,117.800 13.015 C 116.946 14.767,115.921 16.629,115.524 17.154 C 114.081 19.055,114.914 20.977,117.073 20.729 C 117.860 20.638,118.363 20.242,118.759 19.400 C 119.069 18.740,119.459 18.110,119.625 17.999 C 120.542 17.388,123.728 9.892,123.337 9.267 C 122.735 8.306,120.737 8.206,119.977 9.099 M39.300 34.864 C 35.395 38.859,30.490 43.860,28.400 45.976 C 22.513 51.937,22.883 51.299,24.209 53.213 C 24.827 54.105,25.545 54.962,25.805 55.117 C 26.065 55.273,26.953 56.292,27.778 57.382 C 28.603 58.472,29.710 59.822,30.238 60.382 C 32.243 62.510,33.893 64.384,34.894 65.668 C 35.464 66.401,36.441 67.563,37.065 68.251 C 39.088 70.480,42.943 74.971,49.348 82.556 C 50.257 83.632,51.375 84.916,51.834 85.409 C 52.293 85.902,53.366 87.157,54.220 88.198 C 55.073 89.239,56.317 90.689,56.985 91.421 C 57.653 92.152,58.775 93.437,59.477 94.275 C 60.179 95.114,61.684 96.880,62.820 98.200 C 64.937 100.659,65.414 101.210,72.423 109.300 C 74.662 111.885,76.608 113.995,76.747 113.989 C 77.012 113.978,77.199 113.766,84.368 105.400 C 86.818 102.540,89.528 99.390,90.389 98.400 C 92.807 95.620,95.941 91.978,97.546 90.082 C 98.346 89.137,99.588 87.721,100.306 86.936 C 101.024 86.151,101.744 85.283,101.906 85.008 C 102.181 84.540,106.012 80.117,107.800 78.203 C 108.240 77.732,109.320 76.460,110.200 75.375 C 111.080 74.291,112.669 72.413,113.732 71.202 C 114.794 69.991,116.234 68.328,116.932 67.507 C 117.629 66.685,118.830 65.318,119.600 64.468 C 120.370 63.618,122.080 61.609,123.400 60.003 C 124.720 58.397,126.309 56.575,126.930 55.953 C 128.154 54.729,130.000 52.150,130.000 51.664 C 130.000 51.170,124.966 45.717,119.000 39.751 C 115.920 36.670,112.009 32.676,110.309 30.875 L 107.218 27.600 76.809 27.600 L 46.401 27.600 39.300 34.864 M71.313 32.903 C 70.605 33.616,69.310 35.010,68.436 36.000 C 67.561 36.990,64.495 40.461,61.623 43.712 C 58.750 46.964,56.400 49.799,56.400 50.012 C 56.400 51.513,55.245 49.966,54.674 47.700 C 53.263 42.104,52.700 40.194,52.404 40.000 C 52.236 39.890,51.719 38.360,51.255 36.600 C 50.791 34.840,50.298 32.995,50.159 32.500 L 49.907 31.600 61.253 31.603 L 72.600 31.606 71.313 32.903 M102.751 34.300 C 102.341 35.785,101.794 37.810,101.537 38.800 C 101.281 39.790,100.948 40.690,100.799 40.800 C 100.649 40.910,100.131 42.477,99.648 44.283 C 99.165 46.088,98.541 48.227,98.261 49.036 L 97.752 50.506 95.776 48.181 C 94.689 46.902,93.440 45.479,93.000 45.018 C 92.560 44.557,91.120 42.938,89.800 41.420 C 87.122 38.339,84.037 34.865,82.235 32.900 L 81.043 31.600 92.271 31.600 L 103.498 31.600 102.751 34.300 M78.981 35.200 C 79.103 35.530,79.888 36.520,80.726 37.400 C 81.563 38.280,83.735 40.710,85.552 42.800 C 91.056 49.132,92.130 50.323,93.900 52.057 C 97.048 55.142,96.392 55.273,77.745 55.273 C 56.629 55.273,56.523 55.250,60.078 51.534 C 61.025 50.544,62.700 48.689,63.800 47.412 C 64.900 46.135,66.430 44.406,67.200 43.571 C 67.970 42.736,69.345 41.186,70.255 40.126 C 71.166 39.067,72.966 37.011,74.255 35.557 L 76.600 32.914 77.680 33.757 C 78.273 34.221,78.859 34.870,78.981 35.200 M47.216 37.100 C 47.728 39.025,48.273 40.690,48.428 40.800 C 48.677 40.977,49.276 43.040,51.451 51.200 C 51.774 52.410,52.209 53.460,52.419 53.533 C 53.392 53.874,52.672 54.468,51.500 54.292 C 50.785 54.185,47.041 53.637,43.181 53.074 C 34.246 51.772,30.727 51.171,30.105 50.838 C 29.716 50.630,45.594 33.600,46.176 33.600 C 46.237 33.600,46.705 35.175,47.216 37.100 M110.516 36.746 C 111.662 37.968,115.164 41.578,118.299 44.769 C 122.419 48.962,123.846 50.654,123.450 50.876 C 123.149 51.044,119.055 51.730,114.352 52.400 C 109.648 53.070,104.841 53.810,103.668 54.044 C 102.496 54.278,101.446 54.379,101.335 54.268 C 101.145 54.078,102.612 48.318,103.840 44.429 C 104.148 43.455,104.400 42.330,104.400 41.929 C 104.400 41.528,104.554 41.200,104.743 41.200 C 104.932 41.200,105.501 39.625,106.007 37.700 C 106.513 35.775,107.005 34.056,107.099 33.881 C 107.317 33.475,107.928 33.987,110.516 36.746 M356.900 44.265 C 356.625 44.376,356.400 45.082,356.400 45.833 L 356.400 47.200 358.800 47.200 L 361.200 47.200 361.196 48.700 C 361.194 49.525,361.260 52.861,361.343 56.114 C 361.471 61.088,361.411 61.908,360.968 61.276 C 359.422 59.068,352.106 58.510,348.543 60.327 C 340.020 64.675,339.701 83.143,348.084 86.815 C 352.587 88.787,358.578 87.804,360.807 84.727 L 361.954 83.144 362.077 85.072 L 362.200 87.000 367.700 87.111 L 373.200 87.223 373.200 85.611 L 373.200 84.000 371.000 84.000 L 368.800 84.000 368.800 64.243 C 368.800 46.596,368.732 44.460,368.167 44.243 C 367.416 43.954,357.622 43.974,356.900 44.265 M0.267 44.667 C -1.422 46.356,0.228 48.039,4.488 48.972 C 6.186 49.345,8.116 49.919,8.776 50.248 C 11.181 51.448,13.400 50.861,13.400 49.025 L 13.400 47.450 11.200 46.921 C 9.990 46.630,8.684 46.212,8.297 45.991 C 6.579 45.010,0.866 44.068,0.267 44.667 M148.000 45.051 C 146.790 45.369,145.530 45.746,145.200 45.889 C 144.870 46.032,143.628 46.430,142.441 46.774 C 139.860 47.522,139.236 48.282,139.938 49.823 C 140.438 50.921,144.440 51.137,145.163 50.106 C 145.293 49.920,146.840 49.437,148.600 49.034 C 152.839 48.063,153.977 47.450,153.994 46.129 C 154.016 44.457,151.784 44.056,148.000 45.051 M288.305 47.187 C 285.533 47.692,282.637 48.723,281.764 49.514 C 281.344 49.895,280.505 50.524,279.899 50.913 C 279.294 51.301,278.306 52.380,277.703 53.310 C 277.100 54.239,276.474 55.099,276.310 55.220 C 273.008 57.659,273.132 76.000,276.474 79.588 C 276.874 80.016,277.200 80.528,277.200 80.725 C 277.200 81.096,278.763 82.693,281.200 84.813 C 284.358 87.560,293.082 88.692,298.467 87.053 C 302.306 85.884,307.200 80.159,307.200 76.836 C 307.200 75.510,304.145 75.033,303.765 76.300 C 301.693 83.210,294.784 86.744,288.826 83.941 C 286.966 83.065,284.800 81.327,284.800 80.709 C 284.800 80.521,284.431 79.868,283.980 79.258 C 281.687 76.157,281.336 61.220,283.449 56.697 C 285.296 52.745,286.260 51.824,289.871 50.559 C 292.707 49.566,294.370 49.364,295.020 49.933 C 295.229 50.115,296.141 50.475,297.046 50.732 C 300.340 51.668,301.391 53.071,302.184 57.600 C 302.638 60.190,302.646 60.200,304.059 60.320 L 305.477 60.441 305.740 56.436 C 305.884 54.234,306.271 51.400,306.599 50.138 C 307.072 48.325,307.092 47.779,306.698 47.529 C 305.656 46.867,304.439 47.225,303.453 48.484 C 302.496 49.707,302.412 49.735,301.695 49.086 C 299.913 47.473,292.500 46.422,288.305 47.187 M173.600 49.200 L 173.600 50.800 175.573 50.800 C 177.271 50.800,177.584 50.925,177.821 51.700 C 177.972 52.195,178.512 53.500,179.021 54.600 C 179.531 55.700,180.615 58.400,181.432 60.600 C 182.248 62.800,183.029 64.690,183.166 64.800 C 183.303 64.910,183.844 66.260,184.367 67.800 C 184.891 69.340,185.835 71.722,186.465 73.094 C 187.095 74.466,188.221 77.277,188.969 79.341 C 189.716 81.405,190.519 83.433,190.753 83.847 C 190.988 84.261,191.450 85.286,191.779 86.124 C 192.357 87.592,192.440 87.643,194.088 87.524 L 195.797 87.400 196.952 84.200 C 197.587 82.440,198.897 78.750,199.863 76.000 C 200.829 73.250,201.864 70.460,202.162 69.800 C 202.459 69.140,203.289 66.800,204.005 64.600 C 204.721 62.400,205.456 60.409,205.639 60.176 C 205.822 59.943,206.624 57.746,207.422 55.294 L 208.873 50.836 211.337 50.718 L 213.800 50.600 213.925 49.090 L 214.049 47.580 207.525 47.690 L 201.000 47.800 200.880 48.834 C 200.725 50.166,201.418 50.714,203.456 50.872 L 205.097 51.000 203.573 55.400 C 199.785 66.343,198.368 70.270,197.873 71.200 C 197.579 71.750,197.099 72.965,196.806 73.900 C 196.315 75.462,195.600 76.208,195.600 75.158 C 195.600 74.915,195.184 73.880,194.676 72.858 C 194.168 71.836,193.145 69.290,192.402 67.200 C 191.660 65.110,190.939 63.310,190.800 63.200 C 190.661 63.090,189.945 61.290,189.208 59.200 C 188.472 57.110,187.448 54.551,186.934 53.513 C 185.659 50.937,185.713 50.800,188.000 50.800 L 190.000 50.800 190.000 49.200 L 190.000 47.600 181.800 47.600 L 173.600 47.600 173.600 49.200 M214.800 49.200 L 214.800 50.800 217.400 50.800 L 220.000 50.800 220.000 67.400 L 220.000 84.000 217.400 84.000 L 214.800 84.000 214.800 85.600 L 214.800 87.200 224.200 87.200 L 233.600 87.200 233.600 85.600 L 233.600 84.000 231.000 84.000 L 228.400 84.000 228.400 67.400 L 228.400 50.800 231.000 50.800 L 233.600 50.800 233.600 49.200 L 233.600 47.600 224.200 47.600 L 214.800 47.600 214.800 49.200 M237.200 49.167 L 237.200 50.800 239.800 50.800 L 242.400 50.800 242.400 67.400 L 242.400 84.000 239.800 84.000 L 237.200 84.000 237.200 85.607 L 237.200 87.214 246.900 87.107 L 256.600 87.000 256.600 85.600 L 256.600 84.200 253.700 84.082 L 250.800 83.965 250.800 67.382 L 250.800 50.800 253.300 50.818 C 257.728 50.849,260.099 52.154,260.835 54.965 C 261.071 55.864,261.443 57.230,261.662 58.000 C 262.092 59.513,260.925 64.915,259.789 66.664 C 259.077 67.762,257.003 68.458,253.500 68.773 C 252.710 68.844,253.221 71.512,254.068 71.734 C 256.257 72.306,263.577 70.741,264.600 69.481 C 264.820 69.211,265.501 68.668,266.114 68.276 C 266.727 67.884,267.627 66.716,268.114 65.681 C 268.601 64.647,269.180 63.672,269.400 63.515 C 270.307 62.867,269.834 55.921,268.752 54.000 C 265.784 48.734,263.257 47.950,248.500 47.715 L 237.200 47.535 237.200 49.167 M41.258 56.809 C 43.536 57.065,45.670 57.386,46.000 57.523 C 46.330 57.659,48.299 57.957,50.375 58.185 L 54.150 58.600 54.908 60.797 C 55.325 62.005,55.811 63.085,55.988 63.197 C 56.166 63.309,56.499 64.030,56.728 64.800 C 57.559 67.589,59.232 72.156,59.575 72.573 C 59.769 72.808,60.296 74.080,60.746 75.400 C 62.460 80.421,63.285 82.614,63.606 83.004 C 63.789 83.226,64.574 85.281,65.351 87.569 C 66.128 89.858,66.907 91.836,67.082 91.965 C 67.257 92.094,68.067 94.180,68.883 96.600 C 69.718 99.078,70.073 100.563,69.697 100.000 C 69.329 99.450,68.347 98.353,67.514 97.561 C 66.681 96.770,66.000 95.934,66.000 95.703 C 66.000 95.472,65.394 94.750,64.653 94.100 C 63.911 93.449,63.146 92.639,62.953 92.301 C 62.759 91.962,61.675 90.630,60.544 89.342 C 54.672 82.653,50.536 77.835,50.000 77.061 C 49.670 76.584,48.950 75.729,48.400 75.161 C 47.850 74.594,46.230 72.718,44.800 70.994 C 43.370 69.270,41.615 67.318,40.900 66.656 C 40.185 65.994,39.600 65.232,39.600 64.962 C 39.600 64.692,39.015 63.979,38.300 63.378 C 37.586 62.776,36.704 61.815,36.342 61.242 C 35.980 60.669,34.769 59.210,33.651 58.000 C 31.067 55.202,31.070 55.192,34.358 55.819 C 35.876 56.108,38.981 56.553,41.258 56.809 M121.078 56.500 C 120.585 57.215,119.645 58.355,118.990 59.034 C 117.398 60.686,113.947 64.689,113.200 65.751 C 112.870 66.221,112.060 67.185,111.400 67.895 C 110.207 69.178,108.999 70.558,105.321 74.834 C 102.035 78.656,99.798 81.275,96.811 84.800 C 92.707 89.642,90.754 91.900,89.545 93.201 C 88.964 93.825,87.974 95.025,87.345 95.868 C 86.715 96.711,85.870 97.646,85.466 97.947 C 85.062 98.247,84.369 99.057,83.926 99.747 C 83.444 100.498,83.205 100.680,83.331 100.200 C 83.775 98.506,85.640 93.433,85.968 93.027 C 86.278 92.642,88.531 86.582,89.100 84.600 C 89.226 84.160,89.460 83.710,89.620 83.600 C 89.779 83.490,90.578 81.420,91.395 79.000 C 92.212 76.580,93.107 74.240,93.384 73.800 C 93.661 73.360,94.563 71.020,95.389 68.600 C 96.214 66.180,97.023 64.110,97.186 64.000 C 97.348 63.890,97.874 62.610,98.354 61.156 L 99.228 58.513 102.914 58.235 C 104.941 58.082,106.771 57.787,106.980 57.579 C 107.189 57.370,108.089 57.190,108.980 57.178 C 110.248 57.161,121.505 55.482,121.888 55.253 C 121.936 55.224,121.572 55.785,121.078 56.500 M94.548 59.800 C 94.414 60.240,93.895 61.500,93.394 62.600 C 92.893 63.700,91.899 66.310,91.184 68.400 C 90.470 70.490,89.760 72.290,89.607 72.400 C 89.454 72.510,88.646 74.580,87.813 77.000 C 86.979 79.420,86.133 81.607,85.933 81.860 C 85.732 82.113,84.960 84.093,84.217 86.260 C 83.473 88.427,82.578 90.762,82.228 91.450 C 81.878 92.137,80.956 94.548,80.178 96.807 C 79.401 99.066,78.503 101.289,78.183 101.746 C 77.862 102.204,77.600 102.864,77.600 103.213 C 77.600 105.325,76.522 105.290,75.824 103.156 C 75.437 101.970,74.987 100.910,74.825 100.800 C 74.663 100.690,73.853 98.620,73.024 96.200 C 72.196 93.780,71.360 91.606,71.168 91.370 C 70.975 91.133,70.071 88.793,69.159 86.170 C 68.247 83.546,67.383 81.310,67.239 81.200 C 66.956 80.984,64.434 73.981,64.106 72.500 C 63.996 72.005,63.763 71.600,63.586 71.600 C 63.410 71.600,62.610 69.631,61.808 67.225 C 61.007 64.819,60.227 62.794,60.075 62.725 C 59.924 62.656,59.524 61.790,59.186 60.800 L 58.571 59.000 76.681 59.000 C 94.605 59.000,94.788 59.008,94.548 59.800 M318.476 59.989 C 312.251 62.271,309.220 71.110,311.733 79.654 C 315.283 91.727,335.311 90.294,337.641 77.800 C 339.121 69.861,336.698 63.062,331.400 60.293 C 329.042 59.061,321.493 58.883,318.476 59.989 M384.200 59.550 C 380.883 60.425,377.729 63.459,376.527 66.932 C 375.093 71.078,375.778 80.317,377.680 82.479 C 378.126 82.986,378.936 83.978,379.481 84.685 C 384.007 90.556,397.620 87.985,399.579 80.890 C 400.405 77.900,397.930 77.819,396.092 80.775 C 393.714 84.601,388.777 86.298,386.416 84.100 C 385.884 83.605,385.294 83.200,385.104 83.200 C 384.423 83.200,383.567 80.300,383.327 77.179 L 383.081 74.000 391.541 74.000 L 400.000 74.000 400.000 71.087 C 400.000 65.501,398.421 61.952,395.227 60.357 C 393.290 59.389,386.651 58.903,384.200 59.550 M327.957 63.248 C 331.392 65.954,331.356 80.163,327.904 83.650 C 322.272 89.339,317.120 81.300,318.774 69.404 C 319.706 62.703,323.789 59.966,327.957 63.248 M391.448 63.368 C 392.753 64.635,392.874 64.959,393.086 67.768 L 393.315 70.800 388.258 70.800 C 383.702 70.800,383.201 70.731,383.214 70.100 C 383.240 68.829,384.310 64.329,384.658 64.030 C 387.595 61.510,389.358 61.338,391.448 63.368 M358.676 63.956 C 363.726 67.614,361.546 84.000,356.009 84.000 C 355.784 84.000,355.600 84.180,355.600 84.400 C 355.600 84.620,355.240 84.800,354.800 84.800 C 354.360 84.800,354.000 84.656,354.000 84.480 C 354.000 84.305,353.398 83.943,352.663 83.677 C 348.637 82.222,348.415 66.740,352.378 63.816 C 354.316 62.386,356.578 62.436,358.676 63.956 M226.318 94.483 C 225.405 95.175,224.800 96.906,224.800 98.826 C 224.800 100.238,224.697 100.400,223.800 100.400 C 223.250 100.400,222.800 100.565,222.800 100.767 C 222.800 101.679,223.349 102.400,224.043 102.400 C 224.751 102.400,224.800 102.776,224.800 108.200 L 224.800 114.000 226.000 114.000 L 227.200 114.000 227.200 108.200 L 227.200 102.400 229.200 102.400 C 231.067 102.400,231.200 102.333,231.200 101.400 C 231.200 100.467,231.067 100.400,229.200 100.400 C 225.872 100.400,226.333 96.685,229.672 96.602 C 231.309 96.560,231.400 96.496,231.400 95.379 C 231.400 94.025,227.766 93.384,226.318 94.483 M333.600 104.200 L 333.600 114.000 334.800 114.000 L 336.000 114.000 336.000 104.200 L 336.000 94.400 334.800 94.400 L 333.600 94.400 333.600 104.200 M314.400 96.400 C 314.400 98.028,314.753 98.300,316.167 97.757 C 317.458 97.262,316.986 94.800,315.600 94.800 C 314.467 94.800,314.400 94.889,314.400 96.400 M235.405 100.533 C 231.916 102.433,231.333 110.970,234.529 113.357 C 237.274 115.406,243.095 114.101,244.074 111.216 C 246.620 103.722,241.388 97.275,235.405 100.533 M253.385 99.935 C 252.390 100.826,249.600 101.609,249.600 100.997 C 249.600 100.600,249.197 100.400,248.400 100.400 L 247.200 100.400 247.200 107.200 L 247.200 114.000 248.400 114.000 L 249.600 114.000 249.606 109.300 C 249.613 103.766,249.551 103.901,252.519 102.970 C 254.717 102.280,254.833 102.179,254.719 101.052 C 254.595 99.809,254.042 99.347,253.385 99.935 M264.115 100.440 C 262.393 101.293,261.970 101.958,261.915 103.901 C 261.838 106.631,262.504 107.218,267.000 108.380 C 271.814 109.624,270.241 112.285,264.929 111.883 L 262.000 111.662 262.000 112.784 C 262.000 113.871,262.083 113.916,264.612 114.187 C 269.418 114.701,271.583 113.762,272.188 110.901 C 272.853 107.759,271.713 106.580,267.000 105.533 C 264.718 105.026,264.600 104.941,264.600 103.800 L 264.600 102.600 268.200 102.574 C 271.759 102.547,271.801 102.536,271.922 101.520 C 272.120 99.854,266.787 99.116,264.115 100.440 M279.707 100.053 C 279.457 100.303,278.251 100.483,277.027 100.455 L 274.800 100.404 274.800 109.802 L 274.800 119.200 276.200 119.200 L 277.600 119.200 277.602 116.700 L 277.604 114.200 280.102 114.175 C 283.042 114.145,285.036 113.252,285.671 111.681 C 286.313 110.094,286.304 104.046,285.658 102.515 C 284.807 100.499,280.884 98.876,279.707 100.053 M291.511 100.441 C 288.152 102.143,287.258 110.061,290.083 113.084 C 291.793 114.914,299.600 114.819,299.600 112.968 C 299.600 112.021,299.526 112.000,296.270 112.000 C 292.694 112.000,291.680 111.478,291.019 109.300 C 290.747 108.402,290.759 108.400,295.418 108.400 L 300.090 108.400 299.934 105.700 C 299.652 100.837,295.656 98.342,291.511 100.441 M305.579 100.132 C 305.017 100.390,304.027 101.021,303.379 101.536 L 302.200 102.472 302.200 107.029 L 302.200 111.585 303.508 112.892 C 305.695 115.079,311.966 114.789,311.994 112.500 C 311.998 112.148,311.182 112.000,309.229 112.000 C 305.516 112.000,304.800 111.197,304.800 107.035 C 304.800 102.951,305.273 102.400,308.780 102.400 C 310.911 102.400,311.568 102.260,311.759 101.764 C 312.084 100.917,311.721 100.400,310.800 100.400 C 310.386 100.400,309.936 100.220,309.800 100.000 C 309.470 99.466,306.855 99.548,305.579 100.132 M322.800 100.000 C 322.470 100.213,321.705 100.391,321.100 100.394 C 320.200 100.399,320.000 100.579,320.000 101.384 C 320.000 102.347,320.079 102.371,323.500 102.484 L 327.000 102.600 327.132 103.757 C 327.295 105.181,326.712 105.586,324.487 105.594 C 320.648 105.608,318.945 107.305,319.321 110.745 C 319.673 113.960,320.885 114.485,326.800 113.981 C 327.790 113.896,329.275 113.976,330.100 114.158 C 331.694 114.510,332.495 112.718,331.000 112.145 C 330.524 111.962,330.400 111.115,330.398 108.057 C 330.395 102.775,330.006 101.565,327.964 100.475 C 326.251 99.561,323.825 99.337,322.800 100.000 M341.118 100.617 C 336.894 102.816,338.474 107.453,343.720 108.253 C 346.748 108.715,347.500 109.643,346.217 111.335 C 345.681 112.044,342.016 112.188,340.000 111.581 C 339.571 111.451,339.365 111.758,339.278 112.657 L 339.156 113.914 342.008 114.201 C 347.305 114.733,349.600 113.450,349.600 109.955 C 349.600 107.288,348.814 106.537,345.256 105.801 C 341.827 105.092,341.600 104.984,341.600 104.056 C 341.600 102.737,342.470 102.400,345.880 102.400 C 350.171 102.400,350.914 100.980,347.088 100.091 C 344.167 99.412,343.283 99.490,341.118 100.617 M314.400 107.200 L 314.400 114.000 315.600 114.000 L 316.800 114.000 316.800 107.200 L 316.800 100.400 315.600 100.400 L 314.400 100.400 314.400 107.200 M240.977 103.289 C 242.882 106.009,241.338 112.000,238.732 112.000 C 235.424 112.000,233.451 105.387,236.100 103.177 C 237.424 102.073,240.170 102.136,240.977 103.289 M282.576 103.174 C 284.998 105.849,283.003 112.000,279.714 112.000 L 277.600 112.000 277.600 107.620 C 277.600 103.870,277.701 103.181,278.300 102.832 C 279.490 102.139,281.807 102.324,282.576 103.174 M296.349 102.938 C 296.594 103.234,296.909 104.044,297.048 104.738 L 297.300 106.000 294.042 106.000 L 290.785 106.000 291.056 104.900 C 291.593 102.728,295.096 101.429,296.349 102.938 M326.652 111.405 C 325.753 112.304,322.927 112.184,322.414 111.226 C 321.399 109.329,322.202 108.282,324.877 108.013 L 327.000 107.800 327.123 109.305 C 327.200 110.247,327.024 111.033,326.652 111.405 " stroke="none" fill="#ffffff" fill-rule="evenodd"></path><path id="path3" d="M75.429 0.629 C 73.951 2.106,74.664 13.050,76.264 13.452 C 78.390 13.985,78.800 12.891,78.800 6.682 C 78.800 0.242,77.732 -1.675,75.429 0.629 M30.364 8.748 L 29.440 9.497 31.395 13.548 C 32.470 15.777,33.469 17.600,33.614 17.600 C 33.760 17.600,34.166 18.331,34.517 19.225 C 35.124 20.772,35.230 20.845,36.678 20.725 C 38.525 20.573,39.033 18.689,37.726 16.839 C 37.323 16.267,36.283 14.332,35.416 12.539 C 34.408 10.455,33.448 9.047,32.758 8.639 C 31.417 7.847,31.481 7.844,30.364 8.748 M119.977 9.099 C 119.634 9.501,118.654 11.263,117.800 13.015 C 116.946 14.767,115.921 16.629,115.524 17.154 C 114.081 19.055,114.914 20.977,117.073 20.729 C 117.860 20.638,118.363 20.242,118.759 19.400 C 119.069 18.740,119.459 18.110,119.625 17.999 C 120.542 17.388,123.728 9.892,123.337 9.267 C 122.735 8.306,120.737 8.206,119.977 9.099 M39.300 34.864 C 35.395 38.859,30.490 43.860,28.400 45.976 C 22.513 51.937,22.883 51.299,24.209 53.213 C 24.827 54.105,25.545 54.962,25.805 55.117 C 26.065 55.273,26.953 56.292,27.778 57.382 C 28.603 58.472,29.710 59.822,30.238 60.382 C 32.243 62.510,33.893 64.384,34.894 65.668 C 35.464 66.401,36.441 67.563,37.065 68.251 C 39.088 70.480,42.943 74.971,49.348 82.556 C 50.257 83.632,51.375 84.916,51.834 85.409 C 52.293 85.902,53.366 87.157,54.220 88.198 C 55.073 89.239,56.317 90.689,56.985 91.421 C 57.653 92.152,58.775 93.437,59.477 94.275 C 60.179 95.114,61.684 96.880,62.820 98.200 C 64.937 100.659,65.414 101.210,72.423 109.300 C 74.662 111.885,76.608 113.995,76.747 113.989 C 77.012 113.978,77.199 113.766,84.368 105.400 C 86.818 102.540,89.528 99.390,90.389 98.400 C 92.807 95.620,95.941 91.978,97.546 90.082 C 98.346 89.137,99.588 87.721,100.306 86.936 C 101.024 86.151,101.744 85.283,101.906 85.008 C 102.181 84.540,106.012 80.117,107.800 78.203 C 108.240 77.732,109.320 76.460,110.200 75.375 C 111.080 74.291,112.669 72.413,113.732 71.202 C 114.794 69.991,116.234 68.328,116.932 67.507 C 117.629 66.685,118.830 65.318,119.600 64.468 C 120.370 63.618,122.080 61.609,123.400 60.003 C 124.720 58.397,126.309 56.575,126.930 55.953 C 128.154 54.729,130.000 52.150,130.000 51.664 C 130.000 51.170,124.966 45.717,119.000 39.751 C 115.920 36.670,112.009 32.676,110.309 30.875 L 107.218 27.600 76.809 27.600 L 46.401 27.600 39.300 34.864 M71.313 32.903 C 70.605 33.616,69.310 35.010,68.436 36.000 C 67.561 36.990,64.495 40.461,61.623 43.712 C 58.750 46.964,56.400 49.799,56.400 50.012 C 56.400 51.513,55.245 49.966,54.674 47.700 C 53.263 42.104,52.700 40.194,52.404 40.000 C 52.236 39.890,51.719 38.360,51.255 36.600 C 50.791 34.840,50.298 32.995,50.159 32.500 L 49.907 31.600 61.253 31.603 L 72.600 31.606 71.313 32.903 M102.751 34.300 C 102.341 35.785,101.794 37.810,101.537 38.800 C 101.281 39.790,100.948 40.690,100.799 40.800 C 100.649 40.910,100.131 42.477,99.648 44.283 C 99.165 46.088,98.541 48.227,98.261 49.036 L 97.752 50.506 95.776 48.181 C 94.689 46.902,93.440 45.479,93.000 45.018 C 92.560 44.557,91.120 42.938,89.800 41.420 C 87.122 38.339,84.037 34.865,82.235 32.900 L 81.043 31.600 92.271 31.600 L 103.498 31.600 102.751 34.300 M78.981 35.200 C 79.103 35.530,79.888 36.520,80.726 37.400 C 81.563 38.280,83.735 40.710,85.552 42.800 C 91.056 49.132,92.130 50.323,93.900 52.057 C 97.048 55.142,96.392 55.273,77.745 55.273 C 56.629 55.273,56.523 55.250,60.078 51.534 C 61.025 50.544,62.700 48.689,63.800 47.412 C 64.900 46.135,66.430 44.406,67.200 43.571 C 67.970 42.736,69.345 41.186,70.255 40.126 C 71.166 39.067,72.966 37.011,74.255 35.557 L 76.600 32.914 77.680 33.757 C 78.273 34.221,78.859 34.870,78.981 35.200 M47.216 37.100 C 47.728 39.025,48.273 40.690,48.428 40.800 C 48.677 40.977,49.276 43.040,51.451 51.200 C 51.774 52.410,52.209 53.460,52.419 53.533 C 53.392 53.874,52.672 54.468,51.500 54.292 C 50.785 54.185,47.041 53.637,43.181 53.074 C 34.246 51.772,30.727 51.171,30.105 50.838 C 29.716 50.630,45.594 33.600,46.176 33.600 C 46.237 33.600,46.705 35.175,47.216 37.100 M110.516 36.746 C 111.662 37.968,115.164 41.578,118.299 44.769 C 122.419 48.962,123.846 50.654,123.450 50.876 C 123.149 51.044,119.055 51.730,114.352 52.400 C 109.648 53.070,104.841 53.810,103.668 54.044 C 102.496 54.278,101.446 54.379,101.335 54.268 C 101.145 54.078,102.612 48.318,103.840 44.429 C 104.148 43.455,104.400 42.330,104.400 41.929 C 104.400 41.528,104.554 41.200,104.743 41.200 C 104.932 41.200,105.501 39.625,106.007 37.700 C 106.513 35.775,107.005 34.056,107.099 33.881 C 107.317 33.475,107.928 33.987,110.516 36.746 M356.900 44.265 C 356.625 44.376,356.400 45.082,356.400 45.833 L 356.400 47.200 358.800 47.200 L 361.200 47.200 361.196 48.700 C 361.194 49.525,361.260 52.861,361.343 56.114 C 361.471 61.088,361.411 61.908,360.968 61.276 C 359.422 59.068,352.106 58.510,348.543 60.327 C 340.020 64.675,339.701 83.143,348.084 86.815 C 352.587 88.787,358.578 87.804,360.807 84.727 L 361.954 83.144 362.077 85.072 L 362.200 87.000 367.700 87.111 L 373.200 87.223 373.200 85.611 L 373.200 84.000 371.000 84.000 L 368.800 84.000 368.800 64.243 C 368.800 46.596,368.732 44.460,368.167 44.243 C 367.416 43.954,357.622 43.974,356.900 44.265 M0.267 44.667 C -1.422 46.356,0.228 48.039,4.488 48.972 C 6.186 49.345,8.116 49.919,8.776 50.248 C 11.181 51.448,13.400 50.861,13.400 49.025 L 13.400 47.450 11.200 46.921 C 9.990 46.630,8.684 46.212,8.297 45.991 C 6.579 45.010,0.866 44.068,0.267 44.667 M148.000 45.051 C 146.790 45.369,145.530 45.746,145.200 45.889 C 144.870 46.032,143.628 46.430,142.441 46.774 C 139.860 47.522,139.236 48.282,139.938 49.823 C 140.438 50.921,144.440 51.137,145.163 50.106 C 145.293 49.920,146.840 49.437,148.600 49.034 C 152.839 48.063,153.977 47.450,153.994 46.129 C 154.016 44.457,151.784 44.056,148.000 45.051 M288.305 47.187 C 285.533 47.692,282.637 48.723,281.764 49.514 C 281.344 49.895,280.505 50.524,279.899 50.913 C 279.294 51.301,278.306 52.380,277.703 53.310 C 277.100 54.239,276.474 55.099,276.310 55.220 C 273.008 57.659,273.132 76.000,276.474 79.588 C 276.874 80.016,277.200 80.528,277.200 80.725 C 277.200 81.096,278.763 82.693,281.200 84.813 C 284.358 87.560,293.082 88.692,298.467 87.053 C 302.306 85.884,307.200 80.159,307.200 76.836 C 307.200 75.510,304.145 75.033,303.765 76.300 C 301.693 83.210,294.784 86.744,288.826 83.941 C 286.966 83.065,284.800 81.327,284.800 80.709 C 284.800 80.521,284.431 79.868,283.980 79.258 C 281.687 76.157,281.336 61.220,283.449 56.697 C 285.296 52.745,286.260 51.824,289.871 50.559 C 292.707 49.566,294.370 49.364,295.020 49.933 C 295.229 50.115,296.141 50.475,297.046 50.732 C 300.340 51.668,301.391 53.071,302.184 57.600 C 302.638 60.190,302.646 60.200,304.059 60.320 L 305.477 60.441 305.740 56.436 C 305.884 54.234,306.271 51.400,306.599 50.138 C 307.072 48.325,307.092 47.779,306.698 47.529 C 305.656 46.867,304.439 47.225,303.453 48.484 C 302.496 49.707,302.412 49.735,301.695 49.086 C 299.913 47.473,292.500 46.422,288.305 47.187 M173.600 49.200 L 173.600 50.800 175.573 50.800 C 177.271 50.800,177.584 50.925,177.821 51.700 C 177.972 52.195,178.512 53.500,179.021 54.600 C 179.531 55.700,180.615 58.400,181.432 60.600 C 182.248 62.800,183.029 64.690,183.166 64.800 C 183.303 64.910,183.844 66.260,184.367 67.800 C 184.891 69.340,185.835 71.722,186.465 73.094 C 187.095 74.466,188.221 77.277,188.969 79.341 C 189.716 81.405,190.519 83.433,190.753 83.847 C 190.988 84.261,191.450 85.286,191.779 86.124 C 192.357 87.592,192.440 87.643,194.088 87.524 L 195.797 87.400 196.952 84.200 C 197.587 82.440,198.897 78.750,199.863 76.000 C 200.829 73.250,201.864 70.460,202.162 69.800 C 202.459 69.140,203.289 66.800,204.005 64.600 C 204.721 62.400,205.456 60.409,205.639 60.176 C 205.822 59.943,206.624 57.746,207.422 55.294 L 208.873 50.836 211.337 50.718 L 213.800 50.600 213.925 49.090 L 214.049 47.580 207.525 47.690 L 201.000 47.800 200.880 48.834 C 200.725 50.166,201.418 50.714,203.456 50.872 L 205.097 51.000 203.573 55.400 C 199.785 66.343,198.368 70.270,197.873 71.200 C 197.579 71.750,197.099 72.965,196.806 73.900 C 196.315 75.462,195.600 76.208,195.600 75.158 C 195.600 74.915,195.184 73.880,194.676 72.858 C 194.168 71.836,193.145 69.290,192.402 67.200 C 191.660 65.110,190.939 63.310,190.800 63.200 C 190.661 63.090,189.945 61.290,189.208 59.200 C 188.472 57.110,187.448 54.551,186.934 53.513 C 185.659 50.937,185.713 50.800,188.000 50.800 L 190.000 50.800 190.000 49.200 L 190.000 47.600 181.800 47.600 L 173.600 47.600 173.600 49.200 M214.800 49.200 L 214.800 50.800 217.400 50.800 L 220.000 50.800 220.000 67.400 L 220.000 84.000 217.400 84.000 L 214.800 84.000 214.800 85.600 L 214.800 87.200 224.200 87.200 L 233.600 87.200 233.600 85.600 L 233.600 84.000 231.000 84.000 L 228.400 84.000 228.400 67.400 L 228.400 50.800 231.000 50.800 L 233.600 50.800 233.600 49.200 L 233.600 47.600 224.200 47.600 L 214.800 47.600 214.800 49.200 M237.200 49.167 L 237.200 50.800 239.800 50.800 L 242.400 50.800 242.400 67.400 L 242.400 84.000 239.800 84.000 L 237.200 84.000 237.200 85.607 L 237.200 87.214 246.900 87.107 L 256.600 87.000 256.600 85.600 L 256.600 84.200 253.700 84.082 L 250.800 83.965 250.800 67.382 L 250.800 50.800 253.300 50.818 C 257.728 50.849,260.099 52.154,260.835 54.965 C 261.071 55.864,261.443 57.230,261.662 58.000 C 262.092 59.513,260.925 64.915,259.789 66.664 C 259.077 67.762,257.003 68.458,253.500 68.773 C 252.710 68.844,253.221 71.512,254.068 71.734 C 256.257 72.306,263.577 70.741,264.600 69.481 C 264.820 69.211,265.501 68.668,266.114 68.276 C 266.727 67.884,267.627 66.716,268.114 65.681 C 268.601 64.647,269.180 63.672,269.400 63.515 C 270.307 62.867,269.834 55.921,268.752 54.000 C 265.784 48.734,263.257 47.950,248.500 47.715 L 237.200 47.535 237.200 49.167 M41.258 56.809 C 43.536 57.065,45.670 57.386,46.000 57.523 C 46.330 57.659,48.299 57.957,50.375 58.185 L 54.150 58.600 54.908 60.797 C 55.325 62.005,55.811 63.085,55.988 63.197 C 56.166 63.309,56.499 64.030,56.728 64.800 C 57.559 67.589,59.232 72.156,59.575 72.573 C 59.769 72.808,60.296 74.080,60.746 75.400 C 62.460 80.421,63.285 82.614,63.606 83.004 C 63.789 83.226,64.574 85.281,65.351 87.569 C 66.128 89.858,66.907 91.836,67.082 91.965 C 67.257 92.094,68.067 94.180,68.883 96.600 C 69.718 99.078,70.073 100.563,69.697 100.000 C 69.329 99.450,68.347 98.353,67.514 97.561 C 66.681 96.770,66.000 95.934,66.000 95.703 C 66.000 95.472,65.394 94.750,64.653 94.100 C 63.911 93.449,63.146 92.639,62.953 92.301 C 62.759 91.962,61.675 90.630,60.544 89.342 C 54.672 82.653,50.536 77.835,50.000 77.061 C 49.670 76.584,48.950 75.729,48.400 75.161 C 47.850 74.594,46.230 72.718,44.800 70.994 C 43.370 69.270,41.615 67.318,40.900 66.656 C 40.185 65.994,39.600 65.232,39.600 64.962 C 39.600 64.692,39.015 63.979,38.300 63.378 C 37.586 62.776,36.704 61.815,36.342 61.242 C 35.980 60.669,34.769 59.210,33.651 58.000 C 31.067 55.202,31.070 55.192,34.358 55.819 C 35.876 56.108,38.981 56.553,41.258 56.809 M121.078 56.500 C 120.585 57.215,119.645 58.355,118.990 59.034 C 117.398 60.686,113.947 64.689,113.200 65.751 C 112.870 66.221,112.060 67.185,111.400 67.895 C 110.207 69.178,108.999 70.558,105.321 74.834 C 102.035 78.656,99.798 81.275,96.811 84.800 C 92.707 89.642,90.754 91.900,89.545 93.201 C 88.964 93.825,87.974 95.025,87.345 95.868 C 86.715 96.711,85.870 97.646,85.466 97.947 C 85.062 98.247,84.369 99.057,83.926 99.747 C 83.444 100.498,83.205 100.680,83.331 100.200 C 83.775 98.506,85.640 93.433,85.968 93.027 C 86.278 92.642,88.531 86.582,89.100 84.600 C 89.226 84.160,89.460 83.710,89.620 83.600 C 89.779 83.490,90.578 81.420,91.395 79.000 C 92.212 76.580,93.107 74.240,93.384 73.800 C 93.661 73.360,94.563 71.020,95.389 68.600 C 96.214 66.180,97.023 64.110,97.186 64.000 C 97.348 63.890,97.874 62.610,98.354 61.156 L 99.228 58.513 102.914 58.235 C 104.941 58.082,106.771 57.787,106.980 57.579 C 107.189 57.370,108.089 57.190,108.980 57.178 C 110.248 57.161,121.505 55.482,121.888 55.253 C 121.936 55.224,121.572 55.785,121.078 56.500 M94.548 59.800 C 94.414 60.240,93.895 61.500,93.394 62.600 C 92.893 63.700,91.899 66.310,91.184 68.400 C 90.470 70.490,89.760 72.290,89.607 72.400 C 89.454 72.510,88.646 74.580,87.813 77.000 C 86.979 79.420,86.133 81.607,85.933 81.860 C 85.732 82.113,84.960 84.093,84.217 86.260 C 83.473 88.427,82.578 90.762,82.228 91.450 C 81.878 92.137,80.956 94.548,80.178 96.807 C 79.401 99.066,78.503 101.289,78.183 101.746 C 77.862 102.204,77.600 102.864,77.600 103.213 C 77.600 105.325,76.522 105.290,75.824 103.156 C 75.437 101.970,74.987 100.910,74.825 100.800 C 74.663 100.690,73.853 98.620,73.024 96.200 C 72.196 93.780,71.360 91.606,71.168 91.370 C 70.975 91.133,70.071 88.793,69.159 86.170 C 68.247 83.546,67.383 81.310,67.239 81.200 C 66.956 80.984,64.434 73.981,64.106 72.500 C 63.996 72.005,63.763 71.600,63.586 71.600 C 63.410 71.600,62.610 69.631,61.808 67.225 C 61.007 64.819,60.227 62.794,60.075 62.725 C 59.924 62.656,59.524 61.790,59.186 60.800 L 58.571 59.000 76.681 59.000 C 94.605 59.000,94.788 59.008,94.548 59.800 M318.476 59.989 C 312.251 62.271,309.220 71.110,311.733 79.654 C 315.283 91.727,335.311 90.294,337.641 77.800 C 339.121 69.861,336.698 63.062,331.400 60.293 C 329.042 59.061,321.493 58.883,318.476 59.989 M384.200 59.550 C 380.883 60.425,377.729 63.459,376.527 66.932 C 375.093 71.078,375.778 80.317,377.680 82.479 C 378.126 82.986,378.936 83.978,379.481 84.685 C 384.007 90.556,397.620 87.985,399.579 80.890 C 400.405 77.900,397.930 77.819,396.092 80.775 C 393.714 84.601,388.777 86.298,386.416 84.100 C 385.884 83.605,385.294 83.200,385.104 83.200 C 384.423 83.200,383.567 80.300,383.327 77.179 L 383.081 74.000 391.541 74.000 L 400.000 74.000 400.000 71.087 C 400.000 65.501,398.421 61.952,395.227 60.357 C 393.290 59.389,386.651 58.903,384.200 59.550 M327.957 63.248 C 331.392 65.954,331.356 80.163,327.904 83.650 C 322.272 89.339,317.120 81.300,318.774 69.404 C 319.706 62.703,323.789 59.966,327.957 63.248 M391.448 63.368 C 392.753 64.635,392.874 64.959,393.086 67.768 L 393.315 70.800 388.258 70.800 C 383.702 70.800,383.201 70.731,383.214 70.100 C 383.240 68.829,384.310 64.329,384.658 64.030 C 387.595 61.510,389.358 61.338,391.448 63.368 M358.676 63.956 C 363.726 67.614,361.546 84.000,356.009 84.000 C 355.784 84.000,355.600 84.180,355.600 84.400 C 355.600 84.620,355.240 84.800,354.800 84.800 C 354.360 84.800,354.000 84.656,354.000 84.480 C 354.000 84.305,353.398 83.943,352.663 83.677 C 348.637 82.222,348.415 66.740,352.378 63.816 C 354.316 62.386,356.578 62.436,358.676 63.956 M226.318 94.483 C 225.405 95.175,224.800 96.906,224.800 98.826 C 224.800 100.238,224.697 100.400,223.800 100.400 C 223.250 100.400,222.800 100.565,222.800 100.767 C 222.800 101.679,223.349 102.400,224.043 102.400 C 224.751 102.400,224.800 102.776,224.800 108.200 L 224.800 114.000 226.000 114.000 L 227.200 114.000 227.200 108.200 L 227.200 102.400 229.200 102.400 C 231.067 102.400,231.200 102.333,231.200 101.400 C 231.200 100.467,231.067 100.400,229.200 100.400 C 225.872 100.400,226.333 96.685,229.672 96.602 C 231.309 96.560,231.400 96.496,231.400 95.379 C 231.400 94.025,227.766 93.384,226.318 94.483 M333.600 104.200 L 333.600 114.000 334.800 114.000 L 336.000 114.000 336.000 104.200 L 336.000 94.400 334.800 94.400 L 333.600 94.400 333.600 104.200 M314.400 96.400 C 314.400 98.028,314.753 98.300,316.167 97.757 C 317.458 97.262,316.986 94.800,315.600 94.800 C 314.467 94.800,314.400 94.889,314.400 96.400 M235.405 100.533 C 231.916 102.433,231.333 110.970,234.529 113.357 C 237.274 115.406,243.095 114.101,244.074 111.216 C 246.620 103.722,241.388 97.275,235.405 100.533 M253.385 99.935 C 252.390 100.826,249.600 101.609,249.600 100.997 C 249.600 100.600,249.197 100.400,248.400 100.400 L 247.200 100.400 247.200 107.200 L 247.200 114.000 248.400 114.000 L 249.600 114.000 249.606 109.300 C 249.613 103.766,249.551 103.901,252.519 102.970 C 254.717 102.280,254.833 102.179,254.719 101.052 C 254.595 99.809,254.042 99.347,253.385 99.935 M264.115 100.440 C 262.393 101.293,261.970 101.958,261.915 103.901 C 261.838 106.631,262.504 107.218,267.000 108.380 C 271.814 109.624,270.241 112.285,264.929 111.883 L 262.000 111.662 262.000 112.784 C 262.000 113.871,262.083 113.916,264.612 114.187 C 269.418 114.701,271.583 113.762,272.188 110.901 C 272.853 107.759,271.713 106.580,267.000 105.533 C 264.718 105.026,264.600 104.941,264.600 103.800 L 264.600 102.600 268.200 102.574 C 271.759 102.547,271.801 102.536,271.922 101.520 C 272.120 99.854,266.787 99.116,264.115 100.440 M279.707 100.053 C 279.457 100.303,278.251 100.483,277.027 100.455 L 274.800 100.404 274.800 109.802 L 274.800 119.200 276.200 119.200 L 277.600 119.200 277.602 116.700 L 277.604 114.200 280.102 114.175 C 283.042 114.145,285.036 113.252,285.671 111.681 C 286.313 110.094,286.304 104.046,285.658 102.515 C 284.807 100.499,280.884 98.876,279.707 100.053 M291.511 100.441 C 288.152 102.143,287.258 110.061,290.083 113.084 C 291.793 114.914,299.600 114.819,299.600 112.968 C 299.600 112.021,299.526 112.000,296.270 112.000 C 292.694 112.000,291.680 111.478,291.019 109.300 C 290.747 108.402,290.759 108.400,295.418 108.400 L 300.090 108.400 299.934 105.700 C 299.652 100.837,295.656 98.342,291.511 100.441 M305.579 100.132 C 305.017 100.390,304.027 101.021,303.379 101.536 L 302.200 102.472 302.200 107.029 L 302.200 111.585 303.508 112.892 C 305.695 115.079,311.966 114.789,311.994 112.500 C 311.998 112.148,311.182 112.000,309.229 112.000 C 305.516 112.000,304.800 111.197,304.800 107.035 C 304.800 102.951,305.273 102.400,308.780 102.400 C 310.911 102.400,311.568 102.260,311.759 101.764 C 312.084 100.917,311.721 100.400,310.800 100.400 C 310.386 100.400,309.936 100.220,309.800 100.000 C 309.470 99.466,306.855 99.548,305.579 100.132 M322.800 100.000 C 322.470 100.213,321.705 100.391,321.100 100.394 C 320.200 100.399,320.000 100.579,320.000 101.384 C 320.000 102.347,320.079 102.371,323.500 102.484 L 327.000 102.600 327.132 103.757 C 327.295 105.181,326.712 105.586,324.487 105.594 C 320.648 105.608,318.945 107.305,319.321 110.745 C 319.673 113.960,320.885 114.485,326.800 113.981 C 327.790 113.896,329.275 113.976,330.100 114.158 C 331.694 114.510,332.495 112.718,331.000 112.145 C 330.524 111.962,330.400 111.115,330.398 108.057 C 330.395 102.775,330.006 101.565,327.964 100.475 C 326.251 99.561,323.825 99.337,322.800 100.000 M341.118 100.617 C 336.894 102.816,338.474 107.453,343.720 108.253 C 346.748 108.715,347.500 109.643,346.217 111.335 C 345.681 112.044,342.016 112.188,340.000 111.581 C 339.571 111.451,339.365 111.758,339.278 112.657 L 339.156 113.914 342.008 114.201 C 347.305 114.733,349.600 113.450,349.600 109.955 C 349.600 107.288,348.814 106.537,345.256 105.801 C 341.827 105.092,341.600 104.984,341.600 104.056 C 341.600 102.737,342.470 102.400,345.880 102.400 C 350.171 102.400,350.914 100.980,347.088 100.091 C 344.167 99.412,343.283 99.490,341.118 100.617 M314.400 107.200 L 314.400 114.000 315.600 114.000 L 316.800 114.000 316.800 107.200 L 316.800 100.400 315.600 100.400 L 314.400 100.400 314.400 107.200 M240.977 103.289 C 242.882 106.009,241.338 112.000,238.732 112.000 C 235.424 112.000,233.451 105.387,236.100 103.177 C 237.424 102.073,240.170 102.136,240.977 103.289 M282.576 103.174 C 284.998 105.849,283.003 112.000,279.714 112.000 L 277.600 112.000 277.600 107.620 C 277.600 103.870,277.701 103.181,278.300 102.832 C 279.490 102.139,281.807 102.324,282.576 103.174 M296.349 102.938 C 296.594 103.234,296.909 104.044,297.048 104.738 L 297.300 106.000 294.042 106.000 L 290.785 106.000 291.056 104.900 C 291.593 102.728,295.096 101.429,296.349 102.938 M326.652 111.405 C 325.753 112.304,322.927 112.184,322.414 111.226 C 321.399 109.329,322.202 108.282,324.877 108.013 L 327.000 107.800 327.123 109.305 C 327.200 110.247,327.024 111.033,326.652 111.405 " stroke="none" fill="#ffffff" fill-rule="evenodd"></path><path id="path4" d="M75.429 0.629 C 73.951 2.106,74.664 13.050,76.264 13.452 C 78.390 13.985,78.800 12.891,78.800 6.682 C 78.800 0.242,77.732 -1.675,75.429 0.629 M30.364 8.748 L 29.440 9.497 31.395 13.548 C 32.470 15.777,33.469 17.600,33.614 17.600 C 33.760 17.600,34.166 18.331,34.517 19.225 C 35.124 20.772,35.230 20.845,36.678 20.725 C 38.525 20.573,39.033 18.689,37.726 16.839 C 37.323 16.267,36.283 14.332,35.416 12.539 C 34.408 10.455,33.448 9.047,32.758 8.639 C 31.417 7.847,31.481 7.844,30.364 8.748 M119.977 9.099 C 119.634 9.501,118.654 11.263,117.800 13.015 C 116.946 14.767,115.921 16.629,115.524 17.154 C 114.081 19.055,114.914 20.977,117.073 20.729 C 117.860 20.638,118.363 20.242,118.759 19.400 C 119.069 18.740,119.459 18.110,119.625 17.999 C 120.542 17.388,123.728 9.892,123.337 9.267 C 122.735 8.306,120.737 8.206,119.977 9.099 M39.300 34.864 C 35.395 38.859,30.490 43.860,28.400 45.976 C 22.513 51.937,22.883 51.299,24.209 53.213 C 24.827 54.105,25.545 54.962,25.805 55.117 C 26.065 55.273,26.953 56.292,27.778 57.382 C 28.603 58.472,29.710 59.822,30.238 60.382 C 32.243 62.510,33.893 64.384,34.894 65.668 C 35.464 66.401,36.441 67.563,37.065 68.251 C 39.088 70.480,42.943 74.971,49.348 82.556 C 50.257 83.632,51.375 84.916,51.834 85.409 C 52.293 85.902,53.366 87.157,54.220 88.198 C 55.073 89.239,56.317 90.689,56.985 91.421 C 57.653 92.152,58.775 93.437,59.477 94.275 C 60.179 95.114,61.684 96.880,62.820 98.200 C 64.937 100.659,65.414 101.210,72.423 109.300 C 74.662 111.885,76.608 113.995,76.747 113.989 C 77.012 113.978,77.199 113.766,84.368 105.400 C 86.818 102.540,89.528 99.390,90.389 98.400 C 92.807 95.620,95.941 91.978,97.546 90.082 C 98.346 89.137,99.588 87.721,100.306 86.936 C 101.024 86.151,101.744 85.283,101.906 85.008 C 102.181 84.540,106.012 80.117,107.800 78.203 C 108.240 77.732,109.320 76.460,110.200 75.375 C 111.080 74.291,112.669 72.413,113.732 71.202 C 114.794 69.991,116.234 68.328,116.932 67.507 C 117.629 66.685,118.830 65.318,119.600 64.468 C 120.370 63.618,122.080 61.609,123.400 60.003 C 124.720 58.397,126.309 56.575,126.930 55.953 C 128.154 54.729,130.000 52.150,130.000 51.664 C 130.000 51.170,124.966 45.717,119.000 39.751 C 115.920 36.670,112.009 32.676,110.309 30.875 L 107.218 27.600 76.809 27.600 L 46.401 27.600 39.300 34.864 M71.313 32.903 C 70.605 33.616,69.310 35.010,68.436 36.000 C 67.561 36.990,64.495 40.461,61.623 43.712 C 58.750 46.964,56.400 49.799,56.400 50.012 C 56.400 51.513,55.245 49.966,54.674 47.700 C 53.263 42.104,52.700 40.194,52.404 40.000 C 52.236 39.890,51.719 38.360,51.255 36.600 C 50.791 34.840,50.298 32.995,50.159 32.500 L 49.907 31.600 61.253 31.603 L 72.600 31.606 71.313 32.903 M102.751 34.300 C 102.341 35.785,101.794 37.810,101.537 38.800 C 101.281 39.790,100.948 40.690,100.799 40.800 C 100.649 40.910,100.131 42.477,99.648 44.283 C 99.165 46.088,98.541 48.227,98.261 49.036 L 97.752 50.506 95.776 48.181 C 94.689 46.902,93.440 45.479,93.000 45.018 C 92.560 44.557,91.120 42.938,89.800 41.420 C 87.122 38.339,84.037 34.865,82.235 32.900 L 81.043 31.600 92.271 31.600 L 103.498 31.600 102.751 34.300 M78.981 35.200 C 79.103 35.530,79.888 36.520,80.726 37.400 C 81.563 38.280,83.735 40.710,85.552 42.800 C 91.056 49.132,92.130 50.323,93.900 52.057 C 97.048 55.142,96.392 55.273,77.745 55.273 C 56.629 55.273,56.523 55.250,60.078 51.534 C 61.025 50.544,62.700 48.689,63.800 47.412 C 64.900 46.135,66.430 44.406,67.200 43.571 C 67.970 42.736,69.345 41.186,70.255 40.126 C 71.166 39.067,72.966 37.011,74.255 35.557 L 76.600 32.914 77.680 33.757 C 78.273 34.221,78.859 34.870,78.981 35.200 M47.216 37.100 C 47.728 39.025,48.273 40.690,48.428 40.800 C 48.677 40.977,49.276 43.040,51.451 51.200 C 51.774 52.410,52.209 53.460,52.419 53.533 C 53.392 53.874,52.672 54.468,51.500 54.292 C 50.785 54.185,47.041 53.637,43.181 53.074 C 34.246 51.772,30.727 51.171,30.105 50.838 C 29.716 50.630,45.594 33.600,46.176 33.600 C 46.237 33.600,46.705 35.175,47.216 37.100 M110.516 36.746 C 111.662 37.968,115.164 41.578,118.299 44.769 C 122.419 48.962,123.846 50.654,123.450 50.876 C 123.149 51.044,119.055 51.730,114.352 52.400 C 109.648 53.070,104.841 53.810,103.668 54.044 C 102.496 54.278,101.446 54.379,101.335 54.268 C 101.145 54.078,102.612 48.318,103.840 44.429 C 104.148 43.455,104.400 42.330,104.400 41.929 C 104.400 41.528,104.554 41.200,104.743 41.200 C 104.932 41.200,105.501 39.625,106.007 37.700 C 106.513 35.775,107.005 34.056,107.099 33.881 C 107.317 33.475,107.928 33.987,110.516 36.746 M356.900 44.265 C 356.625 44.376,356.400 45.082,356.400 45.833 L 356.400 47.200 358.800 47.200 L 361.200 47.200 361.196 48.700 C 361.194 49.525,361.260 52.861,361.343 56.114 C 361.471 61.088,361.411 61.908,360.968 61.276 C 359.422 59.068,352.106 58.510,348.543 60.327 C 340.020 64.675,339.701 83.143,348.084 86.815 C 352.587 88.787,358.578 87.804,360.807 84.727 L 361.954 83.144 362.077 85.072 L 362.200 87.000 367.700 87.111 L 373.200 87.223 373.200 85.611 L 373.200 84.000 371.000 84.000 L 368.800 84.000 368.800 64.243 C 368.800 46.596,368.732 44.460,368.167 44.243 C 367.416 43.954,357.622 43.974,356.900 44.265 M0.267 44.667 C -1.422 46.356,0.228 48.039,4.488 48.972 C 6.186 49.345,8.116 49.919,8.776 50.248 C 11.181 51.448,13.400 50.861,13.400 49.025 L 13.400 47.450 11.200 46.921 C 9.990 46.630,8.684 46.212,8.297 45.991 C 6.579 45.010,0.866 44.068,0.267 44.667 M148.000 45.051 C 146.790 45.369,145.530 45.746,145.200 45.889 C 144.870 46.032,143.628 46.430,142.441 46.774 C 139.860 47.522,139.236 48.282,139.938 49.823 C 140.438 50.921,144.440 51.137,145.163 50.106 C 145.293 49.920,146.840 49.437,148.600 49.034 C 152.839 48.063,153.977 47.450,153.994 46.129 C 154.016 44.457,151.784 44.056,148.000 45.051 M288.305 47.187 C 285.533 47.692,282.637 48.723,281.764 49.514 C 281.344 49.895,280.505 50.524,279.899 50.913 C 279.294 51.301,278.306 52.380,277.703 53.310 C 277.100 54.239,276.474 55.099,276.310 55.220 C 273.008 57.659,273.132 76.000,276.474 79.588 C 276.874 80.016,277.200 80.528,277.200 80.725 C 277.200 81.096,278.763 82.693,281.200 84.813 C 284.358 87.560,293.082 88.692,298.467 87.053 C 302.306 85.884,307.200 80.159,307.200 76.836 C 307.200 75.510,304.145 75.033,303.765 76.300 C 301.693 83.210,294.784 86.744,288.826 83.941 C 286.966 83.065,284.800 81.327,284.800 80.709 C 284.800 80.521,284.431 79.868,283.980 79.258 C 281.687 76.157,281.336 61.220,283.449 56.697 C 285.296 52.745,286.260 51.824,289.871 50.559 C 292.707 49.566,294.370 49.364,295.020 49.933 C 295.229 50.115,296.141 50.475,297.046 50.732 C 300.340 51.668,301.391 53.071,302.184 57.600 C 302.638 60.190,302.646 60.200,304.059 60.320 L 305.477 60.441 305.740 56.436 C 305.884 54.234,306.271 51.400,306.599 50.138 C 307.072 48.325,307.092 47.779,306.698 47.529 C 305.656 46.867,304.439 47.225,303.453 48.484 C 302.496 49.707,302.412 49.735,301.695 49.086 C 299.913 47.473,292.500 46.422,288.305 47.187 M173.600 49.200 L 173.600 50.800 175.573 50.800 C 177.271 50.800,177.584 50.925,177.821 51.700 C 177.972 52.195,178.512 53.500,179.021 54.600 C 179.531 55.700,180.615 58.400,181.432 60.600 C 182.248 62.800,183.029 64.690,183.166 64.800 C 183.303 64.910,183.844 66.260,184.367 67.800 C 184.891 69.340,185.835 71.722,186.465 73.094 C 187.095 74.466,188.221 77.277,188.969 79.341 C 189.716 81.405,190.519 83.433,190.753 83.847 C 190.988 84.261,191.450 85.286,191.779 86.124 C 192.357 87.592,192.440 87.643,194.088 87.524 L 195.797 87.400 196.952 84.200 C 197.587 82.440,198.897 78.750,199.863 76.000 C 200.829 73.250,201.864 70.460,202.162 69.800 C 202.459 69.140,203.289 66.800,204.005 64.600 C 204.721 62.400,205.456 60.409,205.639 60.176 C 205.822 59.943,206.624 57.746,207.422 55.294 L 208.873 50.836 211.337 50.718 L 213.800 50.600 213.925 49.090 L 214.049 47.580 207.525 47.690 L 201.000 47.800 200.880 48.834 C 200.725 50.166,201.418 50.714,203.456 50.872 L 205.097 51.000 203.573 55.400 C 199.785 66.343,198.368 70.270,197.873 71.200 C 197.579 71.750,197.099 72.965,196.806 73.900 C 196.315 75.462,195.600 76.208,195.600 75.158 C 195.600 74.915,195.184 73.880,194.676 72.858 C 194.168 71.836,193.145 69.290,192.402 67.200 C 191.660 65.110,190.939 63.310,190.800 63.200 C 190.661 63.090,189.945 61.290,189.208 59.200 C 188.472 57.110,187.448 54.551,186.934 53.513 C 185.659 50.937,185.713 50.800,188.000 50.800 L 190.000 50.800 190.000 49.200 L 190.000 47.600 181.800 47.600 L 173.600 47.600 173.600 49.200 M214.800 49.200 L 214.800 50.800 217.400 50.800 L 220.000 50.800 220.000 67.400 L 220.000 84.000 217.400 84.000 L 214.800 84.000 214.800 85.600 L 214.800 87.200 224.200 87.200 L 233.600 87.200 233.600 85.600 L 233.600 84.000 231.000 84.000 L 228.400 84.000 228.400 67.400 L 228.400 50.800 231.000 50.800 L 233.600 50.800 233.600 49.200 L 233.600 47.600 224.200 47.600 L 214.800 47.600 214.800 49.200 M237.200 49.167 L 237.200 50.800 239.800 50.800 L 242.400 50.800 242.400 67.400 L 242.400 84.000 239.800 84.000 L 237.200 84.000 237.200 85.607 L 237.200 87.214 246.900 87.107 L 256.600 87.000 256.600 85.600 L 256.600 84.200 253.700 84.082 L 250.800 83.965 250.800 67.382 L 250.800 50.800 253.300 50.818 C 257.728 50.849,260.099 52.154,260.835 54.965 C 261.071 55.864,261.443 57.230,261.662 58.000 C 262.092 59.513,260.925 64.915,259.789 66.664 C 259.077 67.762,257.003 68.458,253.500 68.773 C 252.710 68.844,253.221 71.512,254.068 71.734 C 256.257 72.306,263.577 70.741,264.600 69.481 C 264.820 69.211,265.501 68.668,266.114 68.276 C 266.727 67.884,267.627 66.716,268.114 65.681 C 268.601 64.647,269.180 63.672,269.400 63.515 C 270.307 62.867,269.834 55.921,268.752 54.000 C 265.784 48.734,263.257 47.950,248.500 47.715 L 237.200 47.535 237.200 49.167 M41.258 56.809 C 43.536 57.065,45.670 57.386,46.000 57.523 C 46.330 57.659,48.299 57.957,50.375 58.185 L 54.150 58.600 54.908 60.797 C 55.325 62.005,55.811 63.085,55.988 63.197 C 56.166 63.309,56.499 64.030,56.728 64.800 C 57.559 67.589,59.232 72.156,59.575 72.573 C 59.769 72.808,60.296 74.080,60.746 75.400 C 62.460 80.421,63.285 82.614,63.606 83.004 C 63.789 83.226,64.574 85.281,65.351 87.569 C 66.128 89.858,66.907 91.836,67.082 91.965 C 67.257 92.094,68.067 94.180,68.883 96.600 C 69.718 99.078,70.073 100.563,69.697 100.000 C 69.329 99.450,68.347 98.353,67.514 97.561 C 66.681 96.770,66.000 95.934,66.000 95.703 C 66.000 95.472,65.394 94.750,64.653 94.100 C 63.911 93.449,63.146 92.639,62.953 92.301 C 62.759 91.962,61.675 90.630,60.544 89.342 C 54.672 82.653,50.536 77.835,50.000 77.061 C 49.670 76.584,48.950 75.729,48.400 75.161 C 47.850 74.594,46.230 72.718,44.800 70.994 C 43.370 69.270,41.615 67.318,40.900 66.656 C 40.185 65.994,39.600 65.232,39.600 64.962 C 39.600 64.692,39.015 63.979,38.300 63.378 C 37.586 62.776,36.704 61.815,36.342 61.242 C 35.980 60.669,34.769 59.210,33.651 58.000 C 31.067 55.202,31.070 55.192,34.358 55.819 C 35.876 56.108,38.981 56.553,41.258 56.809 M121.078 56.500 C 120.585 57.215,119.645 58.355,118.990 59.034 C 117.398 60.686,113.947 64.689,113.200 65.751 C 112.870 66.221,112.060 67.185,111.400 67.895 C 110.207 69.178,108.999 70.558,105.321 74.834 C 102.035 78.656,99.798 81.275,96.811 84.800 C 92.707 89.642,90.754 91.900,89.545 93.201 C 88.964 93.825,87.974 95.025,87.345 95.868 C 86.715 96.711,85.870 97.646,85.466 97.947 C 85.062 98.247,84.369 99.057,83.926 99.747 C 83.444 100.498,83.205 100.680,83.331 100.200 C 83.775 98.506,85.640 93.433,85.968 93.027 C 86.278 92.642,88.531 86.582,89.100 84.600 C 89.226 84.160,89.460 83.710,89.620 83.600 C 89.779 83.490,90.578 81.420,91.395 79.000 C 92.212 76.580,93.107 74.240,93.384 73.800 C 93.661 73.360,94.563 71.020,95.389 68.600 C 96.214 66.180,97.023 64.110,97.186 64.000 C 97.348 63.890,97.874 62.610,98.354 61.156 L 99.228 58.513 102.914 58.235 C 104.941 58.082,106.771 57.787,106.980 57.579 C 107.189 57.370,108.089 57.190,108.980 57.178 C 110.248 57.161,121.505 55.482,121.888 55.253 C 121.936 55.224,121.572 55.785,121.078 56.500 M94.548 59.800 C 94.414 60.240,93.895 61.500,93.394 62.600 C 92.893 63.700,91.899 66.310,91.184 68.400 C 90.470 70.490,89.760 72.290,89.607 72.400 C 89.454 72.510,88.646 74.580,87.813 77.000 C 86.979 79.420,86.133 81.607,85.933 81.860 C 85.732 82.113,84.960 84.093,84.217 86.260 C 83.473 88.427,82.578 90.762,82.228 91.450 C 81.878 92.137,80.956 94.548,80.178 96.807 C 79.401 99.066,78.503 101.289,78.183 101.746 C 77.862 102.204,77.600 102.864,77.600 103.213 C 77.600 105.325,76.522 105.290,75.824 103.156 C 75.437 101.970,74.987 100.910,74.825 100.800 C 74.663 100.690,73.853 98.620,73.024 96.200 C 72.196 93.780,71.360 91.606,71.168 91.370 C 70.975 91.133,70.071 88.793,69.159 86.170 C 68.247 83.546,67.383 81.310,67.239 81.200 C 66.956 80.984,64.434 73.981,64.106 72.500 C 63.996 72.005,63.763 71.600,63.586 71.600 C 63.410 71.600,62.610 69.631,61.808 67.225 C 61.007 64.819,60.227 62.794,60.075 62.725 C 59.924 62.656,59.524 61.790,59.186 60.800 L 58.571 59.000 76.681 59.000 C 94.605 59.000,94.788 59.008,94.548 59.800 M318.476 59.989 C 312.251 62.271,309.220 71.110,311.733 79.654 C 315.283 91.727,335.311 90.294,337.641 77.800 C 339.121 69.861,336.698 63.062,331.400 60.293 C 329.042 59.061,321.493 58.883,318.476 59.989 M384.200 59.550 C 380.883 60.425,377.729 63.459,376.527 66.932 C 375.093 71.078,375.778 80.317,377.680 82.479 C 378.126 82.986,378.936 83.978,379.481 84.685 C 384.007 90.556,397.620 87.985,399.579 80.890 C 400.405 77.900,397.930 77.819,396.092 80.775 C 393.714 84.601,388.777 86.298,386.416 84.100 C 385.884 83.605,385.294 83.200,385.104 83.200 C 384.423 83.200,383.567 80.300,383.327 77.179 L 383.081 74.000 391.541 74.000 L 400.000 74.000 400.000 71.087 C 400.000 65.501,398.421 61.952,395.227 60.357 C 393.290 59.389,386.651 58.903,384.200 59.550 M327.957 63.248 C 331.392 65.954,331.356 80.163,327.904 83.650 C 322.272 89.339,317.120 81.300,318.774 69.404 C 319.706 62.703,323.789 59.966,327.957 63.248 M391.448 63.368 C 392.753 64.635,392.874 64.959,393.086 67.768 L 393.315 70.800 388.258 70.800 C 383.702 70.800,383.201 70.731,383.214 70.100 C 383.240 68.829,384.310 64.329,384.658 64.030 C 387.595 61.510,389.358 61.338,391.448 63.368 M358.676 63.956 C 363.726 67.614,361.546 84.000,356.009 84.000 C 355.784 84.000,355.600 84.180,355.600 84.400 C 355.600 84.620,355.240 84.800,354.800 84.800 C 354.360 84.800,354.000 84.656,354.000 84.480 C 354.000 84.305,353.398 83.943,352.663 83.677 C 348.637 82.222,348.415 66.740,352.378 63.816 C 354.316 62.386,356.578 62.436,358.676 63.956 M226.318 94.483 C 225.405 95.175,224.800 96.906,224.800 98.826 C 224.800 100.238,224.697 100.400,223.800 100.400 C 223.250 100.400,222.800 100.565,222.800 100.767 C 222.800 101.679,223.349 102.400,224.043 102.400 C 224.751 102.400,224.800 102.776,224.800 108.200 L 224.800 114.000 226.000 114.000 L 227.200 114.000 227.200 108.200 L 227.200 102.400 229.200 102.400 C 231.067 102.400,231.200 102.333,231.200 101.400 C 231.200 100.467,231.067 100.400,229.200 100.400 C 225.872 100.400,226.333 96.685,229.672 96.602 C 231.309 96.560,231.400 96.496,231.400 95.379 C 231.400 94.025,227.766 93.384,226.318 94.483 M333.600 104.200 L 333.600 114.000 334.800 114.000 L 336.000 114.000 336.000 104.200 L 336.000 94.400 334.800 94.400 L 333.600 94.400 333.600 104.200 M314.400 96.400 C 314.400 98.028,314.753 98.300,316.167 97.757 C 317.458 97.262,316.986 94.800,315.600 94.800 C 314.467 94.800,314.400 94.889,314.400 96.400 M235.405 100.533 C 231.916 102.433,231.333 110.970,234.529 113.357 C 237.274 115.406,243.095 114.101,244.074 111.216 C 246.620 103.722,241.388 97.275,235.405 100.533 M253.385 99.935 C 252.390 100.826,249.600 101.609,249.600 100.997 C 249.600 100.600,249.197 100.400,248.400 100.400 L 247.200 100.400 247.200 107.200 L 247.200 114.000 248.400 114.000 L 249.600 114.000 249.606 109.300 C 249.613 103.766,249.551 103.901,252.519 102.970 C 254.717 102.280,254.833 102.179,254.719 101.052 C 254.595 99.809,254.042 99.347,253.385 99.935 M264.115 100.440 C 262.393 101.293,261.970 101.958,261.915 103.901 C 261.838 106.631,262.504 107.218,267.000 108.380 C 271.814 109.624,270.241 112.285,264.929 111.883 L 262.000 111.662 262.000 112.784 C 262.000 113.871,262.083 113.916,264.612 114.187 C 269.418 114.701,271.583 113.762,272.188 110.901 C 272.853 107.759,271.713 106.580,267.000 105.533 C 264.718 105.026,264.600 104.941,264.600 103.800 L 264.600 102.600 268.200 102.574 C 271.759 102.547,271.801 102.536,271.922 101.520 C 272.120 99.854,266.787 99.116,264.115 100.440 M279.707 100.053 C 279.457 100.303,278.251 100.483,277.027 100.455 L 274.800 100.404 274.800 109.802 L 274.800 119.200 276.200 119.200 L 277.600 119.200 277.602 116.700 L 277.604 114.200 280.102 114.175 C 283.042 114.145,285.036 113.252,285.671 111.681 C 286.313 110.094,286.304 104.046,285.658 102.515 C 284.807 100.499,280.884 98.876,279.707 100.053 M291.511 100.441 C 288.152 102.143,287.258 110.061,290.083 113.084 C 291.793 114.914,299.600 114.819,299.600 112.968 C 299.600 112.021,299.526 112.000,296.270 112.000 C 292.694 112.000,291.680 111.478,291.019 109.300 C 290.747 108.402,290.759 108.400,295.418 108.400 L 300.090 108.400 299.934 105.700 C 299.652 100.837,295.656 98.342,291.511 100.441 M305.579 100.132 C 305.017 100.390,304.027 101.021,303.379 101.536 L 302.200 102.472 302.200 107.029 L 302.200 111.585 303.508 112.892 C 305.695 115.079,311.966 114.789,311.994 112.500 C 311.998 112.148,311.182 112.000,309.229 112.000 C 305.516 112.000,304.800 111.197,304.800 107.035 C 304.800 102.951,305.273 102.400,308.780 102.400 C 310.911 102.400,311.568 102.260,311.759 101.764 C 312.084 100.917,311.721 100.400,310.800 100.400 C 310.386 100.400,309.936 100.220,309.800 100.000 C 309.470 99.466,306.855 99.548,305.579 100.132 M322.800 100.000 C 322.470 100.213,321.705 100.391,321.100 100.394 C 320.200 100.399,320.000 100.579,320.000 101.384 C 320.000 102.347,320.079 102.371,323.500 102.484 L 327.000 102.600 327.132 103.757 C 327.295 105.181,326.712 105.586,324.487 105.594 C 320.648 105.608,318.945 107.305,319.321 110.745 C 319.673 113.960,320.885 114.485,326.800 113.981 C 327.790 113.896,329.275 113.976,330.100 114.158 C 331.694 114.510,332.495 112.718,331.000 112.145 C 330.524 111.962,330.400 111.115,330.398 108.057 C 330.395 102.775,330.006 101.565,327.964 100.475 C 326.251 99.561,323.825 99.337,322.800 100.000 M341.118 100.617 C 336.894 102.816,338.474 107.453,343.720 108.253 C 346.748 108.715,347.500 109.643,346.217 111.335 C 345.681 112.044,342.016 112.188,340.000 111.581 C 339.571 111.451,339.365 111.758,339.278 112.657 L 339.156 113.914 342.008 114.201 C 347.305 114.733,349.600 113.450,349.600 109.955 C 349.600 107.288,348.814 106.537,345.256 105.801 C 341.827 105.092,341.600 104.984,341.600 104.056 C 341.600 102.737,342.470 102.400,345.880 102.400 C 350.171 102.400,350.914 100.980,347.088 100.091 C 344.167 99.412,343.283 99.490,341.118 100.617 M314.400 107.200 L 314.400 114.000 315.600 114.000 L 316.800 114.000 316.800 107.200 L 316.800 100.400 315.600 100.400 L 314.400 100.400 314.400 107.200 M240.977 103.289 C 242.882 106.009,241.338 112.000,238.732 112.000 C 235.424 112.000,233.451 105.387,236.100 103.177 C 237.424 102.073,240.170 102.136,240.977 103.289 M282.576 103.174 C 284.998 105.849,283.003 112.000,279.714 112.000 L 277.600 112.000 277.600 107.620 C 277.600 103.870,277.701 103.181,278.300 102.832 C 279.490 102.139,281.807 102.324,282.576 103.174 M296.349 102.938 C 296.594 103.234,296.909 104.044,297.048 104.738 L 297.300 106.000 294.042 106.000 L 290.785 106.000 291.056 104.900 C 291.593 102.728,295.096 101.429,296.349 102.938 M326.652 111.405 C 325.753 112.304,322.927 112.184,322.414 111.226 C 321.399 109.329,322.202 108.282,324.877 108.013 L 327.000 107.800 327.123 109.305 C 327.200 110.247,327.024 111.033,326.652 111.405 " stroke="none" fill="#ffffff" fill-rule="evenodd"></path></g></svg>