<svg id="svg" version="1.1" width="558" height="500" xmlns="http://www.w3.org/2000/svg" xmlns:xlink="http://www.w3.org/1999/xlink" style="display: block;"><g id="svgg"><path id="path0" d="M196.416 1.434 C 192.842 5.008,194.960 24.373,198.926 24.373 C 202.010 24.373,204.093 3.662,201.290 0.860 C 200.013 -0.417,198.034 -0.184,196.416 1.434 M116.729 16.099 C 115.888 17.944,117.860 23.978,120.155 26.585 C 120.705 27.210,122.128 29.729,123.317 32.183 C 125.443 36.571,125.521 36.640,128.151 36.422 C 131.399 36.153,132.034 33.883,129.969 29.922 C 121.961 14.562,121.806 14.337,119.228 14.337 C 118.122 14.337,117.253 14.950,116.729 16.099 M275.740 15.950 C 266.013 31.712,264.693 37.126,270.745 36.432 C 272.362 36.246,273.134 35.463,274.654 32.465 C 275.695 30.411,277.711 26.649,279.134 24.105 C 281.820 19.302,282.331 16.667,280.860 15.197 C 279.471 13.808,276.822 14.197,275.740 15.950 M134.681 60.036 C 128.588 66.246,119.582 75.505,114.669 80.613 C 109.755 85.721,105.260 90.285,104.680 90.756 C 103.572 91.654,103.292 91.252,112.127 101.434 C 113.495 103.011,115.800 105.753,117.249 107.527 C 118.698 109.301,120.087 110.914,120.336 111.111 C 120.585 111.308,122.400 113.405,124.369 115.771 C 126.338 118.136,128.548 120.717,129.280 121.505 C 130.013 122.294,131.465 124.068,132.508 125.448 C 133.551 126.828,135.211 128.784,136.198 129.795 C 137.185 130.807,140.090 134.136,142.652 137.194 C 145.215 140.251,148.268 143.779,149.438 145.033 C 150.607 146.286,152.672 148.763,154.027 150.538 C 155.382 152.312,157.408 154.731,158.530 155.914 C 159.651 157.097,163.013 160.968,166.000 164.516 C 168.987 168.065,172.939 172.711,174.783 174.841 C 178.366 178.979,184.093 185.644,188.087 190.323 C 194.396 197.713,195.375 198.834,197.372 200.957 C 199.002 202.691,199.591 202.974,199.870 202.157 C 200.070 201.570,201.230 200.120,202.447 198.936 C 203.664 197.751,205.143 196.090,205.735 195.243 C 206.326 194.396,208.479 191.814,210.519 189.504 C 212.559 187.194,216.688 182.401,219.695 178.853 C 222.702 175.305,226.570 170.789,228.290 168.817 C 230.011 166.846,233.073 163.297,235.094 160.932 C 237.116 158.566,239.629 155.663,240.680 154.480 C 241.731 153.297,243.901 150.717,245.504 148.746 C 247.106 146.774,249.292 144.194,250.362 143.011 C 251.432 141.828,254.770 137.957,257.779 134.409 C 260.788 130.860,264.745 126.215,266.572 124.086 C 268.398 121.958,271.438 118.409,273.328 116.201 C 275.217 113.993,277.619 111.219,278.665 110.036 C 279.712 108.853,281.853 106.272,283.423 104.301 C 284.993 102.330,286.673 100.476,287.155 100.183 C 289.625 98.678,293.323 92.259,292.614 90.705 C 292.006 89.369,281.315 78.146,257.614 53.960 L 252.504 48.746 199.132 48.746 L 145.760 48.746 134.681 60.036 M186.644 61.470 C 176.433 73.086,174.745 75.000,171.943 78.136 C 167.116 83.538,162.042 88.889,161.746 88.889 C 161.592 88.889,160.881 86.631,160.165 83.871 C 159.449 81.111,158.629 78.853,158.342 78.853 C 158.055 78.853,157.597 77.805,157.324 76.523 C 157.051 75.242,155.735 70.336,154.399 65.621 C 153.064 60.906,151.971 56.793,151.971 56.481 C 151.971 56.169,160.871 55.914,171.749 55.914 L 191.527 55.914 186.644 61.470 M244.748 62.186 C 243.785 65.636,242.790 69.265,242.535 70.251 C 242.281 71.237,241.855 72.204,241.587 72.401 C 241.320 72.599,240.220 76.001,239.142 79.962 C 238.064 83.923,236.913 87.599,236.585 88.131 C 235.892 89.252,233.954 87.237,218.757 69.593 C 216.918 67.456,214.041 64.353,212.366 62.696 C 210.690 61.039,209.319 59.425,209.319 59.110 C 209.319 58.794,208.785 57.946,208.133 57.225 C 206.986 55.958,207.609 55.914,226.723 55.914 L 246.499 55.914 244.748 62.186 M208.593 69.118 C 211.325 72.533,214.369 75.900,217.742 79.238 C 219.418 80.895,220.789 82.474,220.789 82.745 C 220.789 83.016,223.561 86.307,226.949 90.059 C 230.337 93.810,232.925 97.063,232.700 97.288 C 231.344 98.645,166.478 98.616,165.120 97.259 C 164.936 97.075,166.065 95.519,167.629 93.802 C 170.496 90.657,175.835 84.600,181.976 77.529 C 183.807 75.421,186.595 72.287,188.172 70.565 C 189.749 68.844,192.805 65.386,194.963 62.882 L 198.888 58.330 202.839 62.598 C 205.013 64.946,207.602 67.880,208.593 69.118 M147.985 69.176 C 149.361 73.907,151.261 80.197,152.206 83.154 C 153.151 86.111,154.434 90.259,155.057 92.371 L 156.190 96.212 152.109 95.744 C 129.510 93.153,116.487 90.975,116.487 89.789 C 116.487 88.702,145.056 59.158,145.305 59.986 C 145.402 60.309,146.608 64.444,147.985 69.176 M261.315 67.838 C 262.370 69.221,267.591 74.703,272.916 80.019 C 278.241 85.335,282.426 89.856,282.215 90.067 C 281.007 91.274,242.294 96.848,242.294 95.815 C 242.294 95.642,243.098 92.642,244.081 89.148 C 245.064 85.654,246.386 80.860,247.019 78.495 C 247.652 76.129,248.593 73.387,249.109 72.401 C 249.625 71.416,250.590 68.516,251.253 65.956 C 251.916 63.397,252.612 61.055,252.800 60.750 C 253.264 60.000,258.942 64.727,261.315 67.838 M63.365 79.868 C 61.842 83.837,63.006 84.834,71.807 87.097 C 76.408 88.280,80.413 89.489,80.708 89.785 C 81.746 90.829,86.566 90.373,87.020 89.189 C 87.757 87.269,87.502 84.557,86.559 84.276 C 86.066 84.130,84.050 83.476,82.079 82.824 C 70.468 78.985,64.090 77.977,63.365 79.868 M324.373 80.255 C 311.006 84.127,309.315 85.174,311.086 88.484 C 312.139 90.450,315.006 90.967,317.393 89.621 C 318.078 89.235,322.007 88.093,326.125 87.084 C 334.327 85.074,335.484 84.462,335.484 82.134 C 335.484 78.617,332.039 78.034,324.373 80.255 M130.968 100.328 C 136.409 101.140,145.004 102.208,150.069 102.702 L 159.278 103.600 161.787 110.761 C 163.167 114.699,164.472 118.566,164.687 119.355 C 164.901 120.143,165.468 121.272,165.947 121.864 C 166.425 122.455,168.188 126.971,169.864 131.900 C 171.541 136.828,173.145 141.022,173.429 141.219 C 173.714 141.416,175.335 145.609,177.032 150.538 C 178.728 155.466,180.525 160.163,181.025 160.975 C 181.987 162.539,187.168 177.229,186.865 177.532 C 186.766 177.630,184.008 174.580,180.735 170.755 C 169.622 157.765,168.819 156.842,165.731 153.510 C 164.033 151.678,162.183 149.318,161.620 148.264 C 161.056 147.211,159.623 145.657,158.434 144.811 C 157.245 143.964,156.268 142.890,156.263 142.424 C 156.258 141.958,154.564 139.758,152.499 137.535 C 148.722 133.469,145.317 129.558,139.788 122.939 C 130.380 111.675,123.571 103.792,121.180 101.394 C 118.836 99.042,118.356 97.809,120.037 98.454 C 120.609 98.673,125.528 99.517,130.968 100.328 M278.668 99.104 C 278.021 99.597,276.496 101.290,275.279 102.867 C 272.801 106.079,268.978 110.530,265.259 114.532 C 263.894 116.002,261.634 118.656,260.237 120.430 C 258.841 122.204,256.818 124.624,255.743 125.806 C 254.668 126.989,251.499 130.699,248.701 134.050 C 245.904 137.401,242.823 141.013,241.854 142.077 C 240.886 143.140,238.957 145.398,237.569 147.095 C 234.421 150.942,230.409 155.575,227.599 158.610 C 226.416 159.887,224.288 162.456,222.870 164.318 C 221.453 166.181,219.431 168.600,218.377 169.694 C 217.324 170.789,215.023 173.297,213.265 175.269 C 211.507 177.240,210.062 178.473,210.052 178.008 C 210.043 177.544,210.459 176.737,210.976 176.216 C 211.493 175.695,213.348 171.075,215.098 165.950 C 216.848 160.824,218.525 156.448,218.825 156.225 C 219.125 156.002,220.875 151.486,222.714 146.190 C 224.553 140.893,226.280 136.398,226.552 136.201 C 226.824 136.004,227.933 133.262,229.016 130.108 C 231.903 121.697,232.960 118.927,234.355 116.129 C 235.042 114.749,236.352 111.352,237.267 108.579 L 238.928 103.539 251.543 102.255 C 258.481 101.549,267.384 100.393,271.326 99.687 C 275.269 98.980,278.798 98.358,279.169 98.305 C 279.540 98.252,279.315 98.611,278.668 99.104 M170.968 104.659 C 171.250 105.117,181.116 105.376,198.208 105.376 C 215.299 105.376,225.165 105.117,225.448 104.659 C 225.958 103.834,230.827 103.671,230.819 104.480 C 230.809 105.615,227.252 115.449,226.289 117.004 C 225.733 117.903,223.890 122.670,222.193 127.599 C 220.496 132.527,218.877 136.720,218.595 136.918 C 218.313 137.115,216.885 140.824,215.421 145.161 C 213.957 149.498,212.350 153.697,211.849 154.492 C 211.349 155.287,209.429 160.278,207.583 165.584 C 205.738 170.889,203.969 175.400,203.654 175.608 C 203.338 175.816,202.382 178.082,201.529 180.645 C 199.320 187.281,198.958 187.646,197.942 184.255 C 197.465 182.664,196.803 181.362,196.471 181.362 C 196.138 181.362,195.703 180.636,195.504 179.749 C 194.830 176.743,189.153 160.959,188.612 160.586 C 188.316 160.382,186.677 156.183,184.969 151.254 C 183.260 146.326,181.641 142.133,181.370 141.935 C 181.099 141.738,179.368 137.238,177.524 131.935 C 175.681 126.632,173.935 122.116,173.645 121.899 C 173.355 121.683,171.939 118.118,170.498 113.978 C 169.057 109.839,167.651 105.887,167.375 105.197 C 166.812 103.793,170.126 103.297,170.968 104.659 M323.477 225.555 C 322.984 225.759,322.581 226.867,322.581 228.017 L 322.581 230.108 327.172 230.108 L 331.763 230.108 332.037 243.548 C 332.187 250.941,332.296 257.046,332.277 257.116 C 332.259 257.185,331.013 256.147,329.509 254.808 C 323.153 249.153,309.694 250.961,303.482 258.304 C 295.280 268.001,295.467 288.664,303.837 297.536 C 310.910 305.032,323.919 304.928,330.410 297.324 L 332.975 294.319 333.333 297.876 L 333.692 301.434 343.190 301.634 L 352.688 301.834 352.688 298.946 L 352.688 296.057 348.752 296.057 L 344.816 296.057 344.630 260.753 L 344.444 225.448 334.409 225.316 C 328.889 225.243,323.970 225.350,323.477 225.555 M202.799 230.075 C 200.987 230.404,198.890 230.997,198.139 231.392 C 197.389 231.788,195.325 232.709,193.554 233.439 C 173.386 241.757,170.265 283.953,188.897 296.416 C 190.665 297.599,192.112 298.799,192.113 299.083 C 192.127 303.528,223.140 303.689,224.842 299.253 C 225.062 298.678,225.629 298.208,226.101 298.208 C 230.519 298.208,238.056 282.303,234.107 281.312 C 231.095 280.556,230.001 281.237,228.878 284.564 C 223.663 300.024,200.707 301.588,194.413 286.912 C 190.933 278.800,190.442 258.401,193.494 248.746 C 199.217 230.636,225.748 230.866,227.240 249.039 L 227.599 253.405 230.287 253.628 L 232.975 253.850 232.987 250.402 C 232.993 248.505,233.611 243.572,234.360 239.440 C 235.903 230.925,235.884 230.824,232.729 230.824 C 230.935 230.824,230.140 231.293,229.182 232.915 L 227.947 235.006 223.113 232.586 C 217.783 229.917,209.376 228.878,202.799 230.075 M0.000 233.692 L 0.000 236.559 3.144 236.559 C 6.991 236.559,6.968 236.518,13.800 255.556 C 14.224 256.738,14.782 257.867,15.039 258.065 C 15.295 258.262,16.586 261.487,17.906 265.233 C 19.227 268.978,21.017 273.495,21.885 275.269 C 22.753 277.043,24.502 281.398,25.772 284.946 C 27.041 288.495,28.820 293.011,29.724 294.982 C 30.627 296.953,31.730 299.472,32.174 300.579 C 32.902 302.393,33.275 302.569,35.965 302.371 L 38.949 302.151 41.674 293.907 C 43.173 289.373,44.772 285.040,45.227 284.277 C 45.682 283.515,47.498 278.515,49.264 273.166 C 51.029 267.817,52.721 263.118,53.023 262.724 C 53.324 262.330,54.955 257.814,56.646 252.688 C 58.337 247.563,60.116 242.724,60.599 241.935 C 61.083 241.147,61.684 239.615,61.936 238.530 C 62.372 236.648,62.588 236.559,66.724 236.559 L 71.054 236.559 70.832 233.871 L 70.609 231.183 59.498 231.183 L 48.387 231.183 48.387 233.692 C 48.387 236.191,48.402 236.202,52.106 236.559 L 55.825 236.918 54.486 240.502 C 53.749 242.473,51.504 248.763,49.495 254.480 C 47.487 260.197,45.249 266.165,44.522 267.742 C 43.794 269.319,42.467 272.948,41.572 275.806 C 40.676 278.665,39.744 281.004,39.499 281.004 C 38.869 281.004,37.204 278.212,36.536 276.035 C 35.447 272.489,31.731 262.693,30.216 259.373 C 29.375 257.530,27.564 252.920,26.192 249.129 C 24.820 245.338,23.204 241.533,22.601 240.672 C 20.474 237.635,21.125 236.559,25.090 236.559 L 28.674 236.559 28.674 233.692 L 28.674 230.824 14.337 230.824 L 0.000 230.824 0.000 233.692 M72.401 233.692 L 72.401 236.559 77.061 236.559 L 81.720 236.559 81.720 266.308 L 81.720 296.057 77.061 296.057 L 72.401 296.057 72.401 298.925 L 72.401 301.792 88.875 301.792 L 105.349 301.792 105.798 300.002 C 106.632 296.682,105.830 296.057,100.739 296.057 L 96.057 296.057 96.057 266.308 L 96.057 236.559 100.739 236.559 C 105.830 236.559,106.632 235.934,105.798 232.615 L 105.349 230.824 88.875 230.824 L 72.401 230.824 72.401 233.692 M112.306 231.302 C 112.043 231.565,111.828 232.855,111.828 234.170 L 111.828 236.559 116.846 236.559 L 121.864 236.559 121.864 266.308 L 121.864 296.057 116.846 296.057 L 111.828 296.057 111.828 298.937 L 111.828 301.818 129.211 301.626 L 146.595 301.434 146.817 298.746 L 147.040 296.057 141.262 296.057 L 135.484 296.057 135.484 266.308 L 135.484 236.559 140.036 236.559 C 152.132 236.559,157.053 243.359,154.837 257.012 C 153.530 265.068,151.141 267.554,143.730 268.570 C 139.958 269.087,138.708 273.199,142.057 274.075 C 151.674 276.589,166.025 268.678,168.800 259.331 C 173.177 244.595,166.809 235.401,149.821 231.925 C 144.295 230.795,113.328 230.281,112.306 231.302 M258.781 252.101 C 252.874 254.164,246.954 258.839,245.185 262.838 C 240.479 273.476,242.802 292.937,249.284 297.184 C 250.347 297.881,251.826 299.018,252.569 299.711 C 258.570 305.302,276.573 303.494,283.378 296.616 C 294.302 285.577,291.919 258.100,279.749 254.767 C 278.862 254.524,278.136 254.076,278.136 253.771 C 278.136 252.181,262.433 250.827,258.781 252.101 M372.143 252.396 C 359.672 256.188,353.652 272.567,358.655 289.092 C 363.935 306.529,393.038 308.003,398.887 291.129 C 400.730 285.810,396.094 284.284,393.716 289.427 C 391.437 294.356,387.200 296.950,381.251 297.059 C 374.143 297.188,371.537 293.768,370.792 283.333 L 370.421 278.136 385.306 278.136 L 400.192 278.136 399.819 271.147 C 399.364 262.623,396.373 255.197,393.394 255.197 C 393.053 255.197,391.807 254.482,390.625 253.608 C 388.165 251.790,376.627 251.033,372.143 252.396 M272.243 258.555 C 277.793 262.698,278.445 288.896,273.146 294.826 C 268.640 299.869,259.813 297.961,257.937 291.539 C 257.454 289.884,256.758 288.323,256.389 288.070 C 255.465 287.434,255.359 267.470,256.276 266.820 C 256.673 266.538,257.438 265.018,257.977 263.441 C 260.223 256.874,266.919 254.580,272.243 258.555 M383.527 257.714 C 386.403 259.201,387.152 260.917,387.619 267.090 L 388.021 272.401 379.234 272.401 L 370.447 272.401 370.935 268.996 C 372.457 258.388,376.985 254.330,383.527 257.714 M327.315 260.604 C 328.632 262.000,330.071 264.500,330.513 266.159 C 330.955 267.818,331.609 269.736,331.967 270.420 C 332.796 272.010,332.818 280.794,331.994 281.304 C 331.651 281.515,331.153 282.905,330.887 284.393 C 329.003 294.908,317.580 300.848,313.694 293.334 C 310.462 287.083,310.286 269.463,313.394 263.201 C 316.327 257.292,323.015 256.044,327.315 260.604 M93.004 314.739 C 91.449 315.666,89.606 319.922,89.606 322.585 C 89.606 323.961,89.169 324.678,88.172 324.939 C 87.384 325.145,86.738 325.825,86.738 326.450 C 86.738 327.075,87.384 327.989,88.172 328.482 C 89.493 329.307,89.606 330.153,89.606 339.241 L 89.606 349.104 92.115 349.104 L 94.624 349.104 94.624 339.068 L 94.624 329.032 97.074 329.032 C 100.617 329.032,101.792 328.388,101.792 326.447 C 101.792 324.866,101.510 324.731,98.208 324.731 C 94.726 324.731,94.624 324.672,94.624 322.639 C 94.624 318.843,95.196 318.280,99.049 318.280 C 102.504 318.280,102.598 318.224,102.377 316.308 C 102.127 314.130,95.802 313.072,93.004 314.739 M282.437 331.900 L 282.437 349.104 284.946 349.104 L 287.455 349.104 287.455 331.900 L 287.455 314.695 284.946 314.695 L 282.437 314.695 282.437 331.900 M248.162 317.742 C 248.361 319.803,248.635 320.072,250.538 320.072 C 252.440 320.072,252.714 319.803,252.913 317.742 C 253.129 315.500,253.039 315.412,250.538 315.412 C 248.036 315.412,247.946 315.500,248.162 317.742 M109.955 324.507 C 105.736 325.337,104.301 328.512,104.301 337.023 L 104.301 344.920 106.585 346.961 C 114.847 354.343,125.021 348.801,124.973 336.944 C 124.930 326.204,120.401 322.453,109.955 324.507 M137.455 325.475 C 134.589 326.639,134.050 326.689,134.050 325.794 C 134.050 325.091,133.323 324.731,131.900 324.731 L 129.749 324.731 129.749 336.918 L 129.749 349.104 131.878 349.104 L 134.006 349.104 134.207 340.381 L 134.409 331.658 138.530 330.286 C 142.476 328.971,142.652 328.808,142.652 326.464 C 142.652 323.628,142.210 323.544,137.455 325.475 M159.375 325.059 C 152.686 327.969,154.325 336.847,161.833 338.368 C 168.304 339.679,169.176 340.180,169.176 342.589 C 169.176 345.270,167.820 345.740,161.043 345.411 C 155.966 345.164,155.912 345.180,155.696 347.045 C 155.274 350.681,168.746 350.772,172.360 347.158 C 177.047 342.470,173.664 335.420,166.235 334.399 C 164.299 334.132,162.020 333.352,161.171 332.664 L 159.626 331.413 161.207 329.833 C 162.593 328.447,163.423 328.278,167.953 328.463 C 173.048 328.671,173.121 328.648,173.335 326.805 C 173.654 324.059,164.350 322.895,159.375 325.059 M186.024 324.674 C 185.237 324.981,183.221 325.077,181.544 324.888 L 178.495 324.545 178.495 341.484 L 178.495 358.423 181.004 358.423 L 183.513 358.423 183.513 353.924 L 183.513 349.424 186.249 349.685 C 193.833 350.409,197.740 347.516,198.726 340.448 C 200.402 328.435,194.659 321.303,186.024 324.674 M208.059 325.085 C 206.700 325.676,205.408 326.932,204.968 328.089 C 204.552 329.183,203.828 330.315,203.360 330.604 C 201.313 331.870,202.306 342.984,204.734 345.991 C 208.380 350.504,222.222 351.504,222.222 347.255 C 222.222 345.556,222.094 345.520,216.180 345.520 C 210.039 345.520,207.885 344.684,207.885 342.301 C 207.885 341.770,207.690 340.826,207.450 340.202 C 207.070 339.210,208.011 339.068,214.977 339.068 L 222.939 339.068 222.939 335.213 C 222.939 325.974,216.344 321.485,208.059 325.085 M232.616 324.527 C 226.355 326.042,224.322 342.211,229.715 347.604 C 233.048 350.937,245.287 350.084,244.197 346.595 C 244.074 346.201,241.675 345.717,238.866 345.520 C 232.415 345.067,231.965 344.583,231.656 337.766 C 231.311 330.177,232.461 328.674,238.610 328.674 C 243.146 328.674,244.780 327.874,244.064 326.007 C 243.407 324.295,236.999 323.467,232.616 324.527 M261.111 324.491 C 259.089 324.778,258.781 325.099,258.781 326.918 L 258.781 329.014 264.291 328.844 C 269.643 328.679,269.834 328.731,270.922 330.663 C 272.331 333.164,271.321 334.023,266.953 334.039 C 260.566 334.063,257.348 336.913,257.348 342.544 C 257.348 347.498,259.750 349.512,265.352 349.251 C 267.849 349.135,270.860 349.001,272.043 348.953 C 273.226 348.906,275.242 349.122,276.523 349.434 C 279.067 350.052,280.213 346.713,277.778 345.779 C 276.925 345.452,276.702 343.934,276.699 338.454 C 276.691 325.071,274.002 322.662,261.111 324.491 M295.381 325.389 C 291.885 327.251,290.765 331.091,292.566 335.043 C 293.466 337.017,295.099 337.781,301.434 339.188 C 305.035 339.988,305.773 340.412,305.969 341.796 C 306.428 345.030,304.914 345.738,298.403 345.331 L 292.473 344.962 292.473 346.960 C 292.473 348.904,292.607 348.972,297.369 349.450 C 313.666 351.087,317.435 337.264,301.567 334.056 C 293.470 332.418,296.078 328.112,304.950 328.469 C 309.960 328.671,310.039 328.646,310.253 326.802 C 310.601 323.804,300.212 322.816,295.381 325.389 M248.029 336.918 L 248.029 349.104 250.538 349.104 L 253.047 349.104 253.047 336.918 L 253.047 324.731 250.538 324.731 L 248.029 324.731 248.029 336.918 M118.459 330.576 C 122.183 334.977,119.532 345.054,114.565 345.377 C 107.686 345.824,105.920 331.337,112.545 328.809 C 114.292 328.142,117.112 328.985,118.459 330.576 M216.162 330.075 C 219.613 333.526,218.657 334.767,212.545 334.767 C 209.588 334.767,207.168 334.654,207.168 334.516 C 207.168 329.542,212.832 326.746,216.162 330.075 M192.452 330.442 C 196.642 335.073,193.412 345.074,187.628 345.376 L 183.513 345.591 183.513 338.064 C 183.513 331.652,183.698 330.429,184.767 329.807 C 186.917 328.554,191.053 328.897,192.452 330.442 M270.968 341.500 C 270.968 345.017,270.351 345.520,266.035 345.520 C 262.992 345.520,261.649 344.503,261.649 342.202 C 261.649 339.600,263.526 338.351,267.435 338.351 L 270.968 338.351 270.968 341.500 " stroke="none" fill="#ffffff" fill-rule="evenodd"></path><path id="path1" d="M196.416 1.434 C 192.842 5.008,194.960 24.373,198.926 24.373 C 202.010 24.373,204.093 3.662,201.290 0.860 C 200.013 -0.417,198.034 -0.184,196.416 1.434 M116.729 16.099 C 115.888 17.944,117.860 23.978,120.155 26.585 C 120.705 27.210,122.128 29.729,123.317 32.183 C 125.443 36.571,125.521 36.640,128.151 36.422 C 131.399 36.153,132.034 33.883,129.969 29.922 C 121.961 14.562,121.806 14.337,119.228 14.337 C 118.122 14.337,117.253 14.950,116.729 16.099 M275.740 15.950 C 266.013 31.712,264.693 37.126,270.745 36.432 C 272.362 36.246,273.134 35.463,274.654 32.465 C 275.695 30.411,277.711 26.649,279.134 24.105 C 281.820 19.302,282.331 16.667,280.860 15.197 C 279.471 13.808,276.822 14.197,275.740 15.950 M134.681 60.036 C 128.588 66.246,119.582 75.505,114.669 80.613 C 109.755 85.721,105.260 90.285,104.680 90.756 C 103.572 91.654,103.292 91.252,112.127 101.434 C 113.495 103.011,115.800 105.753,117.249 107.527 C 118.698 109.301,120.087 110.914,120.336 111.111 C 120.585 111.308,122.400 113.405,124.369 115.771 C 126.338 118.136,128.548 120.717,129.280 121.505 C 130.013 122.294,131.465 124.068,132.508 125.448 C 133.551 126.828,135.211 128.784,136.198 129.795 C 137.185 130.807,140.090 134.136,142.652 137.194 C 145.215 140.251,148.268 143.779,149.438 145.033 C 150.607 146.286,152.672 148.763,154.027 150.538 C 155.382 152.312,157.408 154.731,158.530 155.914 C 159.651 157.097,163.013 160.968,166.000 164.516 C 168.987 168.065,172.939 172.711,174.783 174.841 C 178.366 178.979,184.093 185.644,188.087 190.323 C 194.396 197.713,195.375 198.834,197.372 200.957 C 199.002 202.691,199.591 202.974,199.870 202.157 C 200.070 201.570,201.230 200.120,202.447 198.936 C 203.664 197.751,205.143 196.090,205.735 195.243 C 206.326 194.396,208.479 191.814,210.519 189.504 C 212.559 187.194,216.688 182.401,219.695 178.853 C 222.702 175.305,226.570 170.789,228.290 168.817 C 230.011 166.846,233.073 163.297,235.094 160.932 C 237.116 158.566,239.629 155.663,240.680 154.480 C 241.731 153.297,243.901 150.717,245.504 148.746 C 247.106 146.774,249.292 144.194,250.362 143.011 C 251.432 141.828,254.770 137.957,257.779 134.409 C 260.788 130.860,264.745 126.215,266.572 124.086 C 268.398 121.958,271.438 118.409,273.328 116.201 C 275.217 113.993,277.619 111.219,278.665 110.036 C 279.712 108.853,281.853 106.272,283.423 104.301 C 284.993 102.330,286.673 100.476,287.155 100.183 C 289.625 98.678,293.323 92.259,292.614 90.705 C 292.006 89.369,281.315 78.146,257.614 53.960 L 252.504 48.746 199.132 48.746 L 145.760 48.746 134.681 60.036 M186.644 61.470 C 176.433 73.086,174.745 75.000,171.943 78.136 C 167.116 83.538,162.042 88.889,161.746 88.889 C 161.592 88.889,160.881 86.631,160.165 83.871 C 159.449 81.111,158.629 78.853,158.342 78.853 C 158.055 78.853,157.597 77.805,157.324 76.523 C 157.051 75.242,155.735 70.336,154.399 65.621 C 153.064 60.906,151.971 56.793,151.971 56.481 C 151.971 56.169,160.871 55.914,171.749 55.914 L 191.527 55.914 186.644 61.470 M244.748 62.186 C 243.785 65.636,242.790 69.265,242.535 70.251 C 242.281 71.237,241.855 72.204,241.587 72.401 C 241.320 72.599,240.220 76.001,239.142 79.962 C 238.064 83.923,236.913 87.599,236.585 88.131 C 235.892 89.252,233.954 87.237,218.757 69.593 C 216.918 67.456,214.041 64.353,212.366 62.696 C 210.690 61.039,209.319 59.425,209.319 59.110 C 209.319 58.794,208.785 57.946,208.133 57.225 C 206.986 55.958,207.609 55.914,226.723 55.914 L 246.499 55.914 244.748 62.186 M208.593 69.118 C 211.325 72.533,214.369 75.900,217.742 79.238 C 219.418 80.895,220.789 82.474,220.789 82.745 C 220.789 83.016,223.561 86.307,226.949 90.059 C 230.337 93.810,232.925 97.063,232.700 97.288 C 231.344 98.645,166.478 98.616,165.120 97.259 C 164.936 97.075,166.065 95.519,167.629 93.802 C 170.496 90.657,175.835 84.600,181.976 77.529 C 183.807 75.421,186.595 72.287,188.172 70.565 C 189.749 68.844,192.805 65.386,194.963 62.882 L 198.888 58.330 202.839 62.598 C 205.013 64.946,207.602 67.880,208.593 69.118 M147.985 69.176 C 149.361 73.907,151.261 80.197,152.206 83.154 C 153.151 86.111,154.434 90.259,155.057 92.371 L 156.190 96.212 152.109 95.744 C 129.510 93.153,116.487 90.975,116.487 89.789 C 116.487 88.702,145.056 59.158,145.305 59.986 C 145.402 60.309,146.608 64.444,147.985 69.176 M261.315 67.838 C 262.370 69.221,267.591 74.703,272.916 80.019 C 278.241 85.335,282.426 89.856,282.215 90.067 C 281.007 91.274,242.294 96.848,242.294 95.815 C 242.294 95.642,243.098 92.642,244.081 89.148 C 245.064 85.654,246.386 80.860,247.019 78.495 C 247.652 76.129,248.593 73.387,249.109 72.401 C 249.625 71.416,250.590 68.516,251.253 65.956 C 251.916 63.397,252.612 61.055,252.800 60.750 C 253.264 60.000,258.942 64.727,261.315 67.838 M63.365 79.868 C 61.842 83.837,63.006 84.834,71.807 87.097 C 76.408 88.280,80.413 89.489,80.708 89.785 C 81.746 90.829,86.566 90.373,87.020 89.189 C 87.757 87.269,87.502 84.557,86.559 84.276 C 86.066 84.130,84.050 83.476,82.079 82.824 C 70.468 78.985,64.090 77.977,63.365 79.868 M324.373 80.255 C 311.006 84.127,309.315 85.174,311.086 88.484 C 312.139 90.450,315.006 90.967,317.393 89.621 C 318.078 89.235,322.007 88.093,326.125 87.084 C 334.327 85.074,335.484 84.462,335.484 82.134 C 335.484 78.617,332.039 78.034,324.373 80.255 M130.968 100.328 C 136.409 101.140,145.004 102.208,150.069 102.702 L 159.278 103.600 161.787 110.761 C 163.167 114.699,164.472 118.566,164.687 119.355 C 164.901 120.143,165.468 121.272,165.947 121.864 C 166.425 122.455,168.188 126.971,169.864 131.900 C 171.541 136.828,173.145 141.022,173.429 141.219 C 173.714 141.416,175.335 145.609,177.032 150.538 C 178.728 155.466,180.525 160.163,181.025 160.975 C 181.987 162.539,187.168 177.229,186.865 177.532 C 186.766 177.630,184.008 174.580,180.735 170.755 C 169.622 157.765,168.819 156.842,165.731 153.510 C 164.033 151.678,162.183 149.318,161.620 148.264 C 161.056 147.211,159.623 145.657,158.434 144.811 C 157.245 143.964,156.268 142.890,156.263 142.424 C 156.258 141.958,154.564 139.758,152.499 137.535 C 148.722 133.469,145.317 129.558,139.788 122.939 C 130.380 111.675,123.571 103.792,121.180 101.394 C 118.836 99.042,118.356 97.809,120.037 98.454 C 120.609 98.673,125.528 99.517,130.968 100.328 M278.668 99.104 C 278.021 99.597,276.496 101.290,275.279 102.867 C 272.801 106.079,268.978 110.530,265.259 114.532 C 263.894 116.002,261.634 118.656,260.237 120.430 C 258.841 122.204,256.818 124.624,255.743 125.806 C 254.668 126.989,251.499 130.699,248.701 134.050 C 245.904 137.401,242.823 141.013,241.854 142.077 C 240.886 143.140,238.957 145.398,237.569 147.095 C 234.421 150.942,230.409 155.575,227.599 158.610 C 226.416 159.887,224.288 162.456,222.870 164.318 C 221.453 166.181,219.431 168.600,218.377 169.694 C 217.324 170.789,215.023 173.297,213.265 175.269 C 211.507 177.240,210.062 178.473,210.052 178.008 C 210.043 177.544,210.459 176.737,210.976 176.216 C 211.493 175.695,213.348 171.075,215.098 165.950 C 216.848 160.824,218.525 156.448,218.825 156.225 C 219.125 156.002,220.875 151.486,222.714 146.190 C 224.553 140.893,226.280 136.398,226.552 136.201 C 226.824 136.004,227.933 133.262,229.016 130.108 C 231.903 121.697,232.960 118.927,234.355 116.129 C 235.042 114.749,236.352 111.352,237.267 108.579 L 238.928 103.539 251.543 102.255 C 258.481 101.549,267.384 100.393,271.326 99.687 C 275.269 98.980,278.798 98.358,279.169 98.305 C 279.540 98.252,279.315 98.611,278.668 99.104 M170.968 104.659 C 171.250 105.117,181.116 105.376,198.208 105.376 C 215.299 105.376,225.165 105.117,225.448 104.659 C 225.958 103.834,230.827 103.671,230.819 104.480 C 230.809 105.615,227.252 115.449,226.289 117.004 C 225.733 117.903,223.890 122.670,222.193 127.599 C 220.496 132.527,218.877 136.720,218.595 136.918 C 218.313 137.115,216.885 140.824,215.421 145.161 C 213.957 149.498,212.350 153.697,211.849 154.492 C 211.349 155.287,209.429 160.278,207.583 165.584 C 205.738 170.889,203.969 175.400,203.654 175.608 C 203.338 175.816,202.382 178.082,201.529 180.645 C 199.320 187.281,198.958 187.646,197.942 184.255 C 197.465 182.664,196.803 181.362,196.471 181.362 C 196.138 181.362,195.703 180.636,195.504 179.749 C 194.830 176.743,189.153 160.959,188.612 160.586 C 188.316 160.382,186.677 156.183,184.969 151.254 C 183.260 146.326,181.641 142.133,181.370 141.935 C 181.099 141.738,179.368 137.238,177.524 131.935 C 175.681 126.632,173.935 122.116,173.645 121.899 C 173.355 121.683,171.939 118.118,170.498 113.978 C 169.057 109.839,167.651 105.887,167.375 105.197 C 166.812 103.793,170.126 103.297,170.968 104.659 M323.477 225.555 C 322.984 225.759,322.581 226.867,322.581 228.017 L 322.581 230.108 327.172 230.108 L 331.763 230.108 332.037 243.548 C 332.187 250.941,332.296 257.046,332.277 257.116 C 332.259 257.185,331.013 256.147,329.509 254.808 C 323.153 249.153,309.694 250.961,303.482 258.304 C 295.280 268.001,295.467 288.664,303.837 297.536 C 310.910 305.032,323.919 304.928,330.410 297.324 L 332.975 294.319 333.333 297.876 L 333.692 301.434 343.190 301.634 L 352.688 301.834 352.688 298.946 L 352.688 296.057 348.752 296.057 L 344.816 296.057 344.630 260.753 L 344.444 225.448 334.409 225.316 C 328.889 225.243,323.970 225.350,323.477 225.555 M202.799 230.075 C 200.987 230.404,198.890 230.997,198.139 231.392 C 197.389 231.788,195.325 232.709,193.554 233.439 C 173.386 241.757,170.265 283.953,188.897 296.416 C 190.665 297.599,192.112 298.799,192.113 299.083 C 192.127 303.528,223.140 303.689,224.842 299.253 C 225.062 298.678,225.629 298.208,226.101 298.208 C 230.519 298.208,238.056 282.303,234.107 281.312 C 231.095 280.556,230.001 281.237,228.878 284.564 C 223.663 300.024,200.707 301.588,194.413 286.912 C 190.933 278.800,190.442 258.401,193.494 248.746 C 199.217 230.636,225.748 230.866,227.240 249.039 L 227.599 253.405 230.287 253.628 L 232.975 253.850 232.987 250.402 C 232.993 248.505,233.611 243.572,234.360 239.440 C 235.903 230.925,235.884 230.824,232.729 230.824 C 230.935 230.824,230.140 231.293,229.182 232.915 L 227.947 235.006 223.113 232.586 C 217.783 229.917,209.376 228.878,202.799 230.075 M0.000 233.692 L 0.000 236.559 3.144 236.559 C 6.991 236.559,6.968 236.518,13.800 255.556 C 14.224 256.738,14.782 257.867,15.039 258.065 C 15.295 258.262,16.586 261.487,17.906 265.233 C 19.227 268.978,21.017 273.495,21.885 275.269 C 22.753 277.043,24.502 281.398,25.772 284.946 C 27.041 288.495,28.820 293.011,29.724 294.982 C 30.627 296.953,31.730 299.472,32.174 300.579 C 32.902 302.393,33.275 302.569,35.965 302.371 L 38.949 302.151 41.674 293.907 C 43.173 289.373,44.772 285.040,45.227 284.277 C 45.682 283.515,47.498 278.515,49.264 273.166 C 51.029 267.817,52.721 263.118,53.023 262.724 C 53.324 262.330,54.955 257.814,56.646 252.688 C 58.337 247.563,60.116 242.724,60.599 241.935 C 61.083 241.147,61.684 239.615,61.936 238.530 C 62.372 236.648,62.588 236.559,66.724 236.559 L 71.054 236.559 70.832 233.871 L 70.609 231.183 59.498 231.183 L 48.387 231.183 48.387 233.692 C 48.387 236.191,48.402 236.202,52.106 236.559 L 55.825 236.918 54.486 240.502 C 53.749 242.473,51.504 248.763,49.495 254.480 C 47.487 260.197,45.249 266.165,44.522 267.742 C 43.794 269.319,42.467 272.948,41.572 275.806 C 40.676 278.665,39.744 281.004,39.499 281.004 C 38.869 281.004,37.204 278.212,36.536 276.035 C 35.447 272.489,31.731 262.693,30.216 259.373 C 29.375 257.530,27.564 252.920,26.192 249.129 C 24.820 245.338,23.204 241.533,22.601 240.672 C 20.474 237.635,21.125 236.559,25.090 236.559 L 28.674 236.559 28.674 233.692 L 28.674 230.824 14.337 230.824 L 0.000 230.824 0.000 233.692 M72.401 233.692 L 72.401 236.559 77.061 236.559 L 81.720 236.559 81.720 266.308 L 81.720 296.057 77.061 296.057 L 72.401 296.057 72.401 298.925 L 72.401 301.792 88.875 301.792 L 105.349 301.792 105.798 300.002 C 106.632 296.682,105.830 296.057,100.739 296.057 L 96.057 296.057 96.057 266.308 L 96.057 236.559 100.739 236.559 C 105.830 236.559,106.632 235.934,105.798 232.615 L 105.349 230.824 88.875 230.824 L 72.401 230.824 72.401 233.692 M112.306 231.302 C 112.043 231.565,111.828 232.855,111.828 234.170 L 111.828 236.559 116.846 236.559 L 121.864 236.559 121.864 266.308 L 121.864 296.057 116.846 296.057 L 111.828 296.057 111.828 298.937 L 111.828 301.818 129.211 301.626 L 146.595 301.434 146.817 298.746 L 147.040 296.057 141.262 296.057 L 135.484 296.057 135.484 266.308 L 135.484 236.559 140.036 236.559 C 152.132 236.559,157.053 243.359,154.837 257.012 C 153.530 265.068,151.141 267.554,143.730 268.570 C 139.958 269.087,138.708 273.199,142.057 274.075 C 151.674 276.589,166.025 268.678,168.800 259.331 C 173.177 244.595,166.809 235.401,149.821 231.925 C 144.295 230.795,113.328 230.281,112.306 231.302 M258.781 252.101 C 252.874 254.164,246.954 258.839,245.185 262.838 C 240.479 273.476,242.802 292.937,249.284 297.184 C 250.347 297.881,251.826 299.018,252.569 299.711 C 258.570 305.302,276.573 303.494,283.378 296.616 C 294.302 285.577,291.919 258.100,279.749 254.767 C 278.862 254.524,278.136 254.076,278.136 253.771 C 278.136 252.181,262.433 250.827,258.781 252.101 M372.143 252.396 C 359.672 256.188,353.652 272.567,358.655 289.092 C 363.935 306.529,393.038 308.003,398.887 291.129 C 400.730 285.810,396.094 284.284,393.716 289.427 C 391.437 294.356,387.200 296.950,381.251 297.059 C 374.143 297.188,371.537 293.768,370.792 283.333 L 370.421 278.136 385.306 278.136 L 400.192 278.136 399.819 271.147 C 399.364 262.623,396.373 255.197,393.394 255.197 C 393.053 255.197,391.807 254.482,390.625 253.608 C 388.165 251.790,376.627 251.033,372.143 252.396 M272.243 258.555 C 277.793 262.698,278.445 288.896,273.146 294.826 C 268.640 299.869,259.813 297.961,257.937 291.539 C 257.454 289.884,256.758 288.323,256.389 288.070 C 255.465 287.434,255.359 267.470,256.276 266.820 C 256.673 266.538,257.438 265.018,257.977 263.441 C 260.223 256.874,266.919 254.580,272.243 258.555 M383.527 257.714 C 386.403 259.201,387.152 260.917,387.619 267.090 L 388.021 272.401 379.234 272.401 L 370.447 272.401 370.935 268.996 C 372.457 258.388,376.985 254.330,383.527 257.714 M327.315 260.604 C 328.632 262.000,330.071 264.500,330.513 266.159 C 330.955 267.818,331.609 269.736,331.967 270.420 C 332.796 272.010,332.818 280.794,331.994 281.304 C 331.651 281.515,331.153 282.905,330.887 284.393 C 329.003 294.908,317.580 300.848,313.694 293.334 C 310.462 287.083,310.286 269.463,313.394 263.201 C 316.327 257.292,323.015 256.044,327.315 260.604 M93.004 314.739 C 91.449 315.666,89.606 319.922,89.606 322.585 C 89.606 323.961,89.169 324.678,88.172 324.939 C 87.384 325.145,86.738 325.825,86.738 326.450 C 86.738 327.075,87.384 327.989,88.172 328.482 C 89.493 329.307,89.606 330.153,89.606 339.241 L 89.606 349.104 92.115 349.104 L 94.624 349.104 94.624 339.068 L 94.624 329.032 97.074 329.032 C 100.617 329.032,101.792 328.388,101.792 326.447 C 101.792 324.866,101.510 324.731,98.208 324.731 C 94.726 324.731,94.624 324.672,94.624 322.639 C 94.624 318.843,95.196 318.280,99.049 318.280 C 102.504 318.280,102.598 318.224,102.377 316.308 C 102.127 314.130,95.802 313.072,93.004 314.739 M282.437 331.900 L 282.437 349.104 284.946 349.104 L 287.455 349.104 287.455 331.900 L 287.455 314.695 284.946 314.695 L 282.437 314.695 282.437 331.900 M248.162 317.742 C 248.361 319.803,248.635 320.072,250.538 320.072 C 252.440 320.072,252.714 319.803,252.913 317.742 C 253.129 315.500,253.039 315.412,250.538 315.412 C 248.036 315.412,247.946 315.500,248.162 317.742 M109.955 324.507 C 105.736 325.337,104.301 328.512,104.301 337.023 L 104.301 344.920 106.585 346.961 C 114.847 354.343,125.021 348.801,124.973 336.944 C 124.930 326.204,120.401 322.453,109.955 324.507 M137.455 325.475 C 134.589 326.639,134.050 326.689,134.050 325.794 C 134.050 325.091,133.323 324.731,131.900 324.731 L 129.749 324.731 129.749 336.918 L 129.749 349.104 131.878 349.104 L 134.006 349.104 134.207 340.381 L 134.409 331.658 138.530 330.286 C 142.476 328.971,142.652 328.808,142.652 326.464 C 142.652 323.628,142.210 323.544,137.455 325.475 M159.375 325.059 C 152.686 327.969,154.325 336.847,161.833 338.368 C 168.304 339.679,169.176 340.180,169.176 342.589 C 169.176 345.270,167.820 345.740,161.043 345.411 C 155.966 345.164,155.912 345.180,155.696 347.045 C 155.274 350.681,168.746 350.772,172.360 347.158 C 177.047 342.470,173.664 335.420,166.235 334.399 C 164.299 334.132,162.020 333.352,161.171 332.664 L 159.626 331.413 161.207 329.833 C 162.593 328.447,163.423 328.278,167.953 328.463 C 173.048 328.671,173.121 328.648,173.335 326.805 C 173.654 324.059,164.350 322.895,159.375 325.059 M186.024 324.674 C 185.237 324.981,183.221 325.077,181.544 324.888 L 178.495 324.545 178.495 341.484 L 178.495 358.423 181.004 358.423 L 183.513 358.423 183.513 353.924 L 183.513 349.424 186.249 349.685 C 193.833 350.409,197.740 347.516,198.726 340.448 C 200.402 328.435,194.659 321.303,186.024 324.674 M208.059 325.085 C 206.700 325.676,205.408 326.932,204.968 328.089 C 204.552 329.183,203.828 330.315,203.360 330.604 C 201.313 331.870,202.306 342.984,204.734 345.991 C 208.380 350.504,222.222 351.504,222.222 347.255 C 222.222 345.556,222.094 345.520,216.180 345.520 C 210.039 345.520,207.885 344.684,207.885 342.301 C 207.885 341.770,207.690 340.826,207.450 340.202 C 207.070 339.210,208.011 339.068,214.977 339.068 L 222.939 339.068 222.939 335.213 C 222.939 325.974,216.344 321.485,208.059 325.085 M232.616 324.527 C 226.355 326.042,224.322 342.211,229.715 347.604 C 233.048 350.937,245.287 350.084,244.197 346.595 C 244.074 346.201,241.675 345.717,238.866 345.520 C 232.415 345.067,231.965 344.583,231.656 337.766 C 231.311 330.177,232.461 328.674,238.610 328.674 C 243.146 328.674,244.780 327.874,244.064 326.007 C 243.407 324.295,236.999 323.467,232.616 324.527 M261.111 324.491 C 259.089 324.778,258.781 325.099,258.781 326.918 L 258.781 329.014 264.291 328.844 C 269.643 328.679,269.834 328.731,270.922 330.663 C 272.331 333.164,271.321 334.023,266.953 334.039 C 260.566 334.063,257.348 336.913,257.348 342.544 C 257.348 347.498,259.750 349.512,265.352 349.251 C 267.849 349.135,270.860 349.001,272.043 348.953 C 273.226 348.906,275.242 349.122,276.523 349.434 C 279.067 350.052,280.213 346.713,277.778 345.779 C 276.925 345.452,276.702 343.934,276.699 338.454 C 276.691 325.071,274.002 322.662,261.111 324.491 M295.381 325.389 C 291.885 327.251,290.765 331.091,292.566 335.043 C 293.466 337.017,295.099 337.781,301.434 339.188 C 305.035 339.988,305.773 340.412,305.969 341.796 C 306.428 345.030,304.914 345.738,298.403 345.331 L 292.473 344.962 292.473 346.960 C 292.473 348.904,292.607 348.972,297.369 349.450 C 313.666 351.087,317.435 337.264,301.567 334.056 C 293.470 332.418,296.078 328.112,304.950 328.469 C 309.960 328.671,310.039 328.646,310.253 326.802 C 310.601 323.804,300.212 322.816,295.381 325.389 M248.029 336.918 L 248.029 349.104 250.538 349.104 L 253.047 349.104 253.047 336.918 L 253.047 324.731 250.538 324.731 L 248.029 324.731 248.029 336.918 M118.459 330.576 C 122.183 334.977,119.532 345.054,114.565 345.377 C 107.686 345.824,105.920 331.337,112.545 328.809 C 114.292 328.142,117.112 328.985,118.459 330.576 M216.162 330.075 C 219.613 333.526,218.657 334.767,212.545 334.767 C 209.588 334.767,207.168 334.654,207.168 334.516 C 207.168 329.542,212.832 326.746,216.162 330.075 M192.452 330.442 C 196.642 335.073,193.412 345.074,187.628 345.376 L 183.513 345.591 183.513 338.064 C 183.513 331.652,183.698 330.429,184.767 329.807 C 186.917 328.554,191.053 328.897,192.452 330.442 M270.968 341.500 C 270.968 345.017,270.351 345.520,266.035 345.520 C 262.992 345.520,261.649 344.503,261.649 342.202 C 261.649 339.600,263.526 338.351,267.435 338.351 L 270.968 338.351 270.968 341.500 " stroke="none" fill="#ffffff" fill-rule="evenodd"></path><path id="path2" d="M196.416 1.434 C 192.842 5.008,194.960 24.373,198.926 24.373 C 202.010 24.373,204.093 3.662,201.290 0.860 C 200.013 -0.417,198.034 -0.184,196.416 1.434 M116.729 16.099 C 115.888 17.944,117.860 23.978,120.155 26.585 C 120.705 27.210,122.128 29.729,123.317 32.183 C 125.443 36.571,125.521 36.640,128.151 36.422 C 131.399 36.153,132.034 33.883,129.969 29.922 C 121.961 14.562,121.806 14.337,119.228 14.337 C 118.122 14.337,117.253 14.950,116.729 16.099 M275.740 15.950 C 266.013 31.712,264.693 37.126,270.745 36.432 C 272.362 36.246,273.134 35.463,274.654 32.465 C 275.695 30.411,277.711 26.649,279.134 24.105 C 281.820 19.302,282.331 16.667,280.860 15.197 C 279.471 13.808,276.822 14.197,275.740 15.950 M134.681 60.036 C 128.588 66.246,119.582 75.505,114.669 80.613 C 109.755 85.721,105.260 90.285,104.680 90.756 C 103.572 91.654,103.292 91.252,112.127 101.434 C 113.495 103.011,115.800 105.753,117.249 107.527 C 118.698 109.301,120.087 110.914,120.336 111.111 C 120.585 111.308,122.400 113.405,124.369 115.771 C 126.338 118.136,128.548 120.717,129.280 121.505 C 130.013 122.294,131.465 124.068,132.508 125.448 C 133.551 126.828,135.211 128.784,136.198 129.795 C 137.185 130.807,140.090 134.136,142.652 137.194 C 145.215 140.251,148.268 143.779,149.438 145.033 C 150.607 146.286,152.672 148.763,154.027 150.538 C 155.382 152.312,157.408 154.731,158.530 155.914 C 159.651 157.097,163.013 160.968,166.000 164.516 C 168.987 168.065,172.939 172.711,174.783 174.841 C 178.366 178.979,184.093 185.644,188.087 190.323 C 194.396 197.713,195.375 198.834,197.372 200.957 C 199.002 202.691,199.591 202.974,199.870 202.157 C 200.070 201.570,201.230 200.120,202.447 198.936 C 203.664 197.751,205.143 196.090,205.735 195.243 C 206.326 194.396,208.479 191.814,210.519 189.504 C 212.559 187.194,216.688 182.401,219.695 178.853 C 222.702 175.305,226.570 170.789,228.290 168.817 C 230.011 166.846,233.073 163.297,235.094 160.932 C 237.116 158.566,239.629 155.663,240.680 154.480 C 241.731 153.297,243.901 150.717,245.504 148.746 C 247.106 146.774,249.292 144.194,250.362 143.011 C 251.432 141.828,254.770 137.957,257.779 134.409 C 260.788 130.860,264.745 126.215,266.572 124.086 C 268.398 121.958,271.438 118.409,273.328 116.201 C 275.217 113.993,277.619 111.219,278.665 110.036 C 279.712 108.853,281.853 106.272,283.423 104.301 C 284.993 102.330,286.673 100.476,287.155 100.183 C 289.625 98.678,293.323 92.259,292.614 90.705 C 292.006 89.369,281.315 78.146,257.614 53.960 L 252.504 48.746 199.132 48.746 L 145.760 48.746 134.681 60.036 M186.644 61.470 C 176.433 73.086,174.745 75.000,171.943 78.136 C 167.116 83.538,162.042 88.889,161.746 88.889 C 161.592 88.889,160.881 86.631,160.165 83.871 C 159.449 81.111,158.629 78.853,158.342 78.853 C 158.055 78.853,157.597 77.805,157.324 76.523 C 157.051 75.242,155.735 70.336,154.399 65.621 C 153.064 60.906,151.971 56.793,151.971 56.481 C 151.971 56.169,160.871 55.914,171.749 55.914 L 191.527 55.914 186.644 61.470 M244.748 62.186 C 243.785 65.636,242.790 69.265,242.535 70.251 C 242.281 71.237,241.855 72.204,241.587 72.401 C 241.320 72.599,240.220 76.001,239.142 79.962 C 238.064 83.923,236.913 87.599,236.585 88.131 C 235.892 89.252,233.954 87.237,218.757 69.593 C 216.918 67.456,214.041 64.353,212.366 62.696 C 210.690 61.039,209.319 59.425,209.319 59.110 C 209.319 58.794,208.785 57.946,208.133 57.225 C 206.986 55.958,207.609 55.914,226.723 55.914 L 246.499 55.914 244.748 62.186 M208.593 69.118 C 211.325 72.533,214.369 75.900,217.742 79.238 C 219.418 80.895,220.789 82.474,220.789 82.745 C 220.789 83.016,223.561 86.307,226.949 90.059 C 230.337 93.810,232.925 97.063,232.700 97.288 C 231.344 98.645,166.478 98.616,165.120 97.259 C 164.936 97.075,166.065 95.519,167.629 93.802 C 170.496 90.657,175.835 84.600,181.976 77.529 C 183.807 75.421,186.595 72.287,188.172 70.565 C 189.749 68.844,192.805 65.386,194.963 62.882 L 198.888 58.330 202.839 62.598 C 205.013 64.946,207.602 67.880,208.593 69.118 M147.985 69.176 C 149.361 73.907,151.261 80.197,152.206 83.154 C 153.151 86.111,154.434 90.259,155.057 92.371 L 156.190 96.212 152.109 95.744 C 129.510 93.153,116.487 90.975,116.487 89.789 C 116.487 88.702,145.056 59.158,145.305 59.986 C 145.402 60.309,146.608 64.444,147.985 69.176 M261.315 67.838 C 262.370 69.221,267.591 74.703,272.916 80.019 C 278.241 85.335,282.426 89.856,282.215 90.067 C 281.007 91.274,242.294 96.848,242.294 95.815 C 242.294 95.642,243.098 92.642,244.081 89.148 C 245.064 85.654,246.386 80.860,247.019 78.495 C 247.652 76.129,248.593 73.387,249.109 72.401 C 249.625 71.416,250.590 68.516,251.253 65.956 C 251.916 63.397,252.612 61.055,252.800 60.750 C 253.264 60.000,258.942 64.727,261.315 67.838 M63.365 79.868 C 61.842 83.837,63.006 84.834,71.807 87.097 C 76.408 88.280,80.413 89.489,80.708 89.785 C 81.746 90.829,86.566 90.373,87.020 89.189 C 87.757 87.269,87.502 84.557,86.559 84.276 C 86.066 84.130,84.050 83.476,82.079 82.824 C 70.468 78.985,64.090 77.977,63.365 79.868 M324.373 80.255 C 311.006 84.127,309.315 85.174,311.086 88.484 C 312.139 90.450,315.006 90.967,317.393 89.621 C 318.078 89.235,322.007 88.093,326.125 87.084 C 334.327 85.074,335.484 84.462,335.484 82.134 C 335.484 78.617,332.039 78.034,324.373 80.255 M130.968 100.328 C 136.409 101.140,145.004 102.208,150.069 102.702 L 159.278 103.600 161.787 110.761 C 163.167 114.699,164.472 118.566,164.687 119.355 C 164.901 120.143,165.468 121.272,165.947 121.864 C 166.425 122.455,168.188 126.971,169.864 131.900 C 171.541 136.828,173.145 141.022,173.429 141.219 C 173.714 141.416,175.335 145.609,177.032 150.538 C 178.728 155.466,180.525 160.163,181.025 160.975 C 181.987 162.539,187.168 177.229,186.865 177.532 C 186.766 177.630,184.008 174.580,180.735 170.755 C 169.622 157.765,168.819 156.842,165.731 153.510 C 164.033 151.678,162.183 149.318,161.620 148.264 C 161.056 147.211,159.623 145.657,158.434 144.811 C 157.245 143.964,156.268 142.890,156.263 142.424 C 156.258 141.958,154.564 139.758,152.499 137.535 C 148.722 133.469,145.317 129.558,139.788 122.939 C 130.380 111.675,123.571 103.792,121.180 101.394 C 118.836 99.042,118.356 97.809,120.037 98.454 C 120.609 98.673,125.528 99.517,130.968 100.328 M278.668 99.104 C 278.021 99.597,276.496 101.290,275.279 102.867 C 272.801 106.079,268.978 110.530,265.259 114.532 C 263.894 116.002,261.634 118.656,260.237 120.430 C 258.841 122.204,256.818 124.624,255.743 125.806 C 254.668 126.989,251.499 130.699,248.701 134.050 C 245.904 137.401,242.823 141.013,241.854 142.077 C 240.886 143.140,238.957 145.398,237.569 147.095 C 234.421 150.942,230.409 155.575,227.599 158.610 C 226.416 159.887,224.288 162.456,222.870 164.318 C 221.453 166.181,219.431 168.600,218.377 169.694 C 217.324 170.789,215.023 173.297,213.265 175.269 C 211.507 177.240,210.062 178.473,210.052 178.008 C 210.043 177.544,210.459 176.737,210.976 176.216 C 211.493 175.695,213.348 171.075,215.098 165.950 C 216.848 160.824,218.525 156.448,218.825 156.225 C 219.125 156.002,220.875 151.486,222.714 146.190 C 224.553 140.893,226.280 136.398,226.552 136.201 C 226.824 136.004,227.933 133.262,229.016 130.108 C 231.903 121.697,232.960 118.927,234.355 116.129 C 235.042 114.749,236.352 111.352,237.267 108.579 L 238.928 103.539 251.543 102.255 C 258.481 101.549,267.384 100.393,271.326 99.687 C 275.269 98.980,278.798 98.358,279.169 98.305 C 279.540 98.252,279.315 98.611,278.668 99.104 M170.968 104.659 C 171.250 105.117,181.116 105.376,198.208 105.376 C 215.299 105.376,225.165 105.117,225.448 104.659 C 225.958 103.834,230.827 103.671,230.819 104.480 C 230.809 105.615,227.252 115.449,226.289 117.004 C 225.733 117.903,223.890 122.670,222.193 127.599 C 220.496 132.527,218.877 136.720,218.595 136.918 C 218.313 137.115,216.885 140.824,215.421 145.161 C 213.957 149.498,212.350 153.697,211.849 154.492 C 211.349 155.287,209.429 160.278,207.583 165.584 C 205.738 170.889,203.969 175.400,203.654 175.608 C 203.338 175.816,202.382 178.082,201.529 180.645 C 199.320 187.281,198.958 187.646,197.942 184.255 C 197.465 182.664,196.803 181.362,196.471 181.362 C 196.138 181.362,195.703 180.636,195.504 179.749 C 194.830 176.743,189.153 160.959,188.612 160.586 C 188.316 160.382,186.677 156.183,184.969 151.254 C 183.260 146.326,181.641 142.133,181.370 141.935 C 181.099 141.738,179.368 137.238,177.524 131.935 C 175.681 126.632,173.935 122.116,173.645 121.899 C 173.355 121.683,171.939 118.118,170.498 113.978 C 169.057 109.839,167.651 105.887,167.375 105.197 C 166.812 103.793,170.126 103.297,170.968 104.659 M323.477 225.555 C 322.984 225.759,322.581 226.867,322.581 228.017 L 322.581 230.108 327.172 230.108 L 331.763 230.108 332.037 243.548 C 332.187 250.941,332.296 257.046,332.277 257.116 C 332.259 257.185,331.013 256.147,329.509 254.808 C 323.153 249.153,309.694 250.961,303.482 258.304 C 295.280 268.001,295.467 288.664,303.837 297.536 C 310.910 305.032,323.919 304.928,330.410 297.324 L 332.975 294.319 333.333 297.876 L 333.692 301.434 343.190 301.634 L 352.688 301.834 352.688 298.946 L 352.688 296.057 348.752 296.057 L 344.816 296.057 344.630 260.753 L 344.444 225.448 334.409 225.316 C 328.889 225.243,323.970 225.350,323.477 225.555 M202.799 230.075 C 200.987 230.404,198.890 230.997,198.139 231.392 C 197.389 231.788,195.325 232.709,193.554 233.439 C 173.386 241.757,170.265 283.953,188.897 296.416 C 190.665 297.599,192.112 298.799,192.113 299.083 C 192.127 303.528,223.140 303.689,224.842 299.253 C 225.062 298.678,225.629 298.208,226.101 298.208 C 230.519 298.208,238.056 282.303,234.107 281.312 C 231.095 280.556,230.001 281.237,228.878 284.564 C 223.663 300.024,200.707 301.588,194.413 286.912 C 190.933 278.800,190.442 258.401,193.494 248.746 C 199.217 230.636,225.748 230.866,227.240 249.039 L 227.599 253.405 230.287 253.628 L 232.975 253.850 232.987 250.402 C 232.993 248.505,233.611 243.572,234.360 239.440 C 235.903 230.925,235.884 230.824,232.729 230.824 C 230.935 230.824,230.140 231.293,229.182 232.915 L 227.947 235.006 223.113 232.586 C 217.783 229.917,209.376 228.878,202.799 230.075 M0.000 233.692 L 0.000 236.559 3.144 236.559 C 6.991 236.559,6.968 236.518,13.800 255.556 C 14.224 256.738,14.782 257.867,15.039 258.065 C 15.295 258.262,16.586 261.487,17.906 265.233 C 19.227 268.978,21.017 273.495,21.885 275.269 C 22.753 277.043,24.502 281.398,25.772 284.946 C 27.041 288.495,28.820 293.011,29.724 294.982 C 30.627 296.953,31.730 299.472,32.174 300.579 C 32.902 302.393,33.275 302.569,35.965 302.371 L 38.949 302.151 41.674 293.907 C 43.173 289.373,44.772 285.040,45.227 284.277 C 45.682 283.515,47.498 278.515,49.264 273.166 C 51.029 267.817,52.721 263.118,53.023 262.724 C 53.324 262.330,54.955 257.814,56.646 252.688 C 58.337 247.563,60.116 242.724,60.599 241.935 C 61.083 241.147,61.684 239.615,61.936 238.530 C 62.372 236.648,62.588 236.559,66.724 236.559 L 71.054 236.559 70.832 233.871 L 70.609 231.183 59.498 231.183 L 48.387 231.183 48.387 233.692 C 48.387 236.191,48.402 236.202,52.106 236.559 L 55.825 236.918 54.486 240.502 C 53.749 242.473,51.504 248.763,49.495 254.480 C 47.487 260.197,45.249 266.165,44.522 267.742 C 43.794 269.319,42.467 272.948,41.572 275.806 C 40.676 278.665,39.744 281.004,39.499 281.004 C 38.869 281.004,37.204 278.212,36.536 276.035 C 35.447 272.489,31.731 262.693,30.216 259.373 C 29.375 257.530,27.564 252.920,26.192 249.129 C 24.820 245.338,23.204 241.533,22.601 240.672 C 20.474 237.635,21.125 236.559,25.090 236.559 L 28.674 236.559 28.674 233.692 L 28.674 230.824 14.337 230.824 L 0.000 230.824 0.000 233.692 M72.401 233.692 L 72.401 236.559 77.061 236.559 L 81.720 236.559 81.720 266.308 L 81.720 296.057 77.061 296.057 L 72.401 296.057 72.401 298.925 L 72.401 301.792 88.875 301.792 L 105.349 301.792 105.798 300.002 C 106.632 296.682,105.830 296.057,100.739 296.057 L 96.057 296.057 96.057 266.308 L 96.057 236.559 100.739 236.559 C 105.830 236.559,106.632 235.934,105.798 232.615 L 105.349 230.824 88.875 230.824 L 72.401 230.824 72.401 233.692 M112.306 231.302 C 112.043 231.565,111.828 232.855,111.828 234.170 L 111.828 236.559 116.846 236.559 L 121.864 236.559 121.864 266.308 L 121.864 296.057 116.846 296.057 L 111.828 296.057 111.828 298.937 L 111.828 301.818 129.211 301.626 L 146.595 301.434 146.817 298.746 L 147.040 296.057 141.262 296.057 L 135.484 296.057 135.484 266.308 L 135.484 236.559 140.036 236.559 C 152.132 236.559,157.053 243.359,154.837 257.012 C 153.530 265.068,151.141 267.554,143.730 268.570 C 139.958 269.087,138.708 273.199,142.057 274.075 C 151.674 276.589,166.025 268.678,168.800 259.331 C 173.177 244.595,166.809 235.401,149.821 231.925 C 144.295 230.795,113.328 230.281,112.306 231.302 M258.781 252.101 C 252.874 254.164,246.954 258.839,245.185 262.838 C 240.479 273.476,242.802 292.937,249.284 297.184 C 250.347 297.881,251.826 299.018,252.569 299.711 C 258.570 305.302,276.573 303.494,283.378 296.616 C 294.302 285.577,291.919 258.100,279.749 254.767 C 278.862 254.524,278.136 254.076,278.136 253.771 C 278.136 252.181,262.433 250.827,258.781 252.101 M372.143 252.396 C 359.672 256.188,353.652 272.567,358.655 289.092 C 363.935 306.529,393.038 308.003,398.887 291.129 C 400.730 285.810,396.094 284.284,393.716 289.427 C 391.437 294.356,387.200 296.950,381.251 297.059 C 374.143 297.188,371.537 293.768,370.792 283.333 L 370.421 278.136 385.306 278.136 L 400.192 278.136 399.819 271.147 C 399.364 262.623,396.373 255.197,393.394 255.197 C 393.053 255.197,391.807 254.482,390.625 253.608 C 388.165 251.790,376.627 251.033,372.143 252.396 M272.243 258.555 C 277.793 262.698,278.445 288.896,273.146 294.826 C 268.640 299.869,259.813 297.961,257.937 291.539 C 257.454 289.884,256.758 288.323,256.389 288.070 C 255.465 287.434,255.359 267.470,256.276 266.820 C 256.673 266.538,257.438 265.018,257.977 263.441 C 260.223 256.874,266.919 254.580,272.243 258.555 M383.527 257.714 C 386.403 259.201,387.152 260.917,387.619 267.090 L 388.021 272.401 379.234 272.401 L 370.447 272.401 370.935 268.996 C 372.457 258.388,376.985 254.330,383.527 257.714 M327.315 260.604 C 328.632 262.000,330.071 264.500,330.513 266.159 C 330.955 267.818,331.609 269.736,331.967 270.420 C 332.796 272.010,332.818 280.794,331.994 281.304 C 331.651 281.515,331.153 282.905,330.887 284.393 C 329.003 294.908,317.580 300.848,313.694 293.334 C 310.462 287.083,310.286 269.463,313.394 263.201 C 316.327 257.292,323.015 256.044,327.315 260.604 M93.004 314.739 C 91.449 315.666,89.606 319.922,89.606 322.585 C 89.606 323.961,89.169 324.678,88.172 324.939 C 87.384 325.145,86.738 325.825,86.738 326.450 C 86.738 327.075,87.384 327.989,88.172 328.482 C 89.493 329.307,89.606 330.153,89.606 339.241 L 89.606 349.104 92.115 349.104 L 94.624 349.104 94.624 339.068 L 94.624 329.032 97.074 329.032 C 100.617 329.032,101.792 328.388,101.792 326.447 C 101.792 324.866,101.510 324.731,98.208 324.731 C 94.726 324.731,94.624 324.672,94.624 322.639 C 94.624 318.843,95.196 318.280,99.049 318.280 C 102.504 318.280,102.598 318.224,102.377 316.308 C 102.127 314.130,95.802 313.072,93.004 314.739 M282.437 331.900 L 282.437 349.104 284.946 349.104 L 287.455 349.104 287.455 331.900 L 287.455 314.695 284.946 314.695 L 282.437 314.695 282.437 331.900 M248.162 317.742 C 248.361 319.803,248.635 320.072,250.538 320.072 C 252.440 320.072,252.714 319.803,252.913 317.742 C 253.129 315.500,253.039 315.412,250.538 315.412 C 248.036 315.412,247.946 315.500,248.162 317.742 M109.955 324.507 C 105.736 325.337,104.301 328.512,104.301 337.023 L 104.301 344.920 106.585 346.961 C 114.847 354.343,125.021 348.801,124.973 336.944 C 124.930 326.204,120.401 322.453,109.955 324.507 M137.455 325.475 C 134.589 326.639,134.050 326.689,134.050 325.794 C 134.050 325.091,133.323 324.731,131.900 324.731 L 129.749 324.731 129.749 336.918 L 129.749 349.104 131.878 349.104 L 134.006 349.104 134.207 340.381 L 134.409 331.658 138.530 330.286 C 142.476 328.971,142.652 328.808,142.652 326.464 C 142.652 323.628,142.210 323.544,137.455 325.475 M159.375 325.059 C 152.686 327.969,154.325 336.847,161.833 338.368 C 168.304 339.679,169.176 340.180,169.176 342.589 C 169.176 345.270,167.820 345.740,161.043 345.411 C 155.966 345.164,155.912 345.180,155.696 347.045 C 155.274 350.681,168.746 350.772,172.360 347.158 C 177.047 342.470,173.664 335.420,166.235 334.399 C 164.299 334.132,162.020 333.352,161.171 332.664 L 159.626 331.413 161.207 329.833 C 162.593 328.447,163.423 328.278,167.953 328.463 C 173.048 328.671,173.121 328.648,173.335 326.805 C 173.654 324.059,164.350 322.895,159.375 325.059 M186.024 324.674 C 185.237 324.981,183.221 325.077,181.544 324.888 L 178.495 324.545 178.495 341.484 L 178.495 358.423 181.004 358.423 L 183.513 358.423 183.513 353.924 L 183.513 349.424 186.249 349.685 C 193.833 350.409,197.740 347.516,198.726 340.448 C 200.402 328.435,194.659 321.303,186.024 324.674 M208.059 325.085 C 206.700 325.676,205.408 326.932,204.968 328.089 C 204.552 329.183,203.828 330.315,203.360 330.604 C 201.313 331.870,202.306 342.984,204.734 345.991 C 208.380 350.504,222.222 351.504,222.222 347.255 C 222.222 345.556,222.094 345.520,216.180 345.520 C 210.039 345.520,207.885 344.684,207.885 342.301 C 207.885 341.770,207.690 340.826,207.450 340.202 C 207.070 339.210,208.011 339.068,214.977 339.068 L 222.939 339.068 222.939 335.213 C 222.939 325.974,216.344 321.485,208.059 325.085 M232.616 324.527 C 226.355 326.042,224.322 342.211,229.715 347.604 C 233.048 350.937,245.287 350.084,244.197 346.595 C 244.074 346.201,241.675 345.717,238.866 345.520 C 232.415 345.067,231.965 344.583,231.656 337.766 C 231.311 330.177,232.461 328.674,238.610 328.674 C 243.146 328.674,244.780 327.874,244.064 326.007 C 243.407 324.295,236.999 323.467,232.616 324.527 M261.111 324.491 C 259.089 324.778,258.781 325.099,258.781 326.918 L 258.781 329.014 264.291 328.844 C 269.643 328.679,269.834 328.731,270.922 330.663 C 272.331 333.164,271.321 334.023,266.953 334.039 C 260.566 334.063,257.348 336.913,257.348 342.544 C 257.348 347.498,259.750 349.512,265.352 349.251 C 267.849 349.135,270.860 349.001,272.043 348.953 C 273.226 348.906,275.242 349.122,276.523 349.434 C 279.067 350.052,280.213 346.713,277.778 345.779 C 276.925 345.452,276.702 343.934,276.699 338.454 C 276.691 325.071,274.002 322.662,261.111 324.491 M295.381 325.389 C 291.885 327.251,290.765 331.091,292.566 335.043 C 293.466 337.017,295.099 337.781,301.434 339.188 C 305.035 339.988,305.773 340.412,305.969 341.796 C 306.428 345.030,304.914 345.738,298.403 345.331 L 292.473 344.962 292.473 346.960 C 292.473 348.904,292.607 348.972,297.369 349.450 C 313.666 351.087,317.435 337.264,301.567 334.056 C 293.470 332.418,296.078 328.112,304.950 328.469 C 309.960 328.671,310.039 328.646,310.253 326.802 C 310.601 323.804,300.212 322.816,295.381 325.389 M248.029 336.918 L 248.029 349.104 250.538 349.104 L 253.047 349.104 253.047 336.918 L 253.047 324.731 250.538 324.731 L 248.029 324.731 248.029 336.918 M118.459 330.576 C 122.183 334.977,119.532 345.054,114.565 345.377 C 107.686 345.824,105.920 331.337,112.545 328.809 C 114.292 328.142,117.112 328.985,118.459 330.576 M216.162 330.075 C 219.613 333.526,218.657 334.767,212.545 334.767 C 209.588 334.767,207.168 334.654,207.168 334.516 C 207.168 329.542,212.832 326.746,216.162 330.075 M192.452 330.442 C 196.642 335.073,193.412 345.074,187.628 345.376 L 183.513 345.591 183.513 338.064 C 183.513 331.652,183.698 330.429,184.767 329.807 C 186.917 328.554,191.053 328.897,192.452 330.442 M270.968 341.500 C 270.968 345.017,270.351 345.520,266.035 345.520 C 262.992 345.520,261.649 344.503,261.649 342.202 C 261.649 339.600,263.526 338.351,267.435 338.351 L 270.968 338.351 270.968 341.500 " stroke="none" fill="#ffffff" fill-rule="evenodd"></path><path id="path3" d="M196.416 1.434 C 192.842 5.008,194.960 24.373,198.926 24.373 C 202.010 24.373,204.093 3.662,201.290 0.860 C 200.013 -0.417,198.034 -0.184,196.416 1.434 M116.729 16.099 C 115.888 17.944,117.860 23.978,120.155 26.585 C 120.705 27.210,122.128 29.729,123.317 32.183 C 125.443 36.571,125.521 36.640,128.151 36.422 C 131.399 36.153,132.034 33.883,129.969 29.922 C 121.961 14.562,121.806 14.337,119.228 14.337 C 118.122 14.337,117.253 14.950,116.729 16.099 M275.740 15.950 C 266.013 31.712,264.693 37.126,270.745 36.432 C 272.362 36.246,273.134 35.463,274.654 32.465 C 275.695 30.411,277.711 26.649,279.134 24.105 C 281.820 19.302,282.331 16.667,280.860 15.197 C 279.471 13.808,276.822 14.197,275.740 15.950 M134.681 60.036 C 128.588 66.246,119.582 75.505,114.669 80.613 C 109.755 85.721,105.260 90.285,104.680 90.756 C 103.572 91.654,103.292 91.252,112.127 101.434 C 113.495 103.011,115.800 105.753,117.249 107.527 C 118.698 109.301,120.087 110.914,120.336 111.111 C 120.585 111.308,122.400 113.405,124.369 115.771 C 126.338 118.136,128.548 120.717,129.280 121.505 C 130.013 122.294,131.465 124.068,132.508 125.448 C 133.551 126.828,135.211 128.784,136.198 129.795 C 137.185 130.807,140.090 134.136,142.652 137.194 C 145.215 140.251,148.268 143.779,149.438 145.033 C 150.607 146.286,152.672 148.763,154.027 150.538 C 155.382 152.312,157.408 154.731,158.530 155.914 C 159.651 157.097,163.013 160.968,166.000 164.516 C 168.987 168.065,172.939 172.711,174.783 174.841 C 178.366 178.979,184.093 185.644,188.087 190.323 C 194.396 197.713,195.375 198.834,197.372 200.957 C 199.002 202.691,199.591 202.974,199.870 202.157 C 200.070 201.570,201.230 200.120,202.447 198.936 C 203.664 197.751,205.143 196.090,205.735 195.243 C 206.326 194.396,208.479 191.814,210.519 189.504 C 212.559 187.194,216.688 182.401,219.695 178.853 C 222.702 175.305,226.570 170.789,228.290 168.817 C 230.011 166.846,233.073 163.297,235.094 160.932 C 237.116 158.566,239.629 155.663,240.680 154.480 C 241.731 153.297,243.901 150.717,245.504 148.746 C 247.106 146.774,249.292 144.194,250.362 143.011 C 251.432 141.828,254.770 137.957,257.779 134.409 C 260.788 130.860,264.745 126.215,266.572 124.086 C 268.398 121.958,271.438 118.409,273.328 116.201 C 275.217 113.993,277.619 111.219,278.665 110.036 C 279.712 108.853,281.853 106.272,283.423 104.301 C 284.993 102.330,286.673 100.476,287.155 100.183 C 289.625 98.678,293.323 92.259,292.614 90.705 C 292.006 89.369,281.315 78.146,257.614 53.960 L 252.504 48.746 199.132 48.746 L 145.760 48.746 134.681 60.036 M186.644 61.470 C 176.433 73.086,174.745 75.000,171.943 78.136 C 167.116 83.538,162.042 88.889,161.746 88.889 C 161.592 88.889,160.881 86.631,160.165 83.871 C 159.449 81.111,158.629 78.853,158.342 78.853 C 158.055 78.853,157.597 77.805,157.324 76.523 C 157.051 75.242,155.735 70.336,154.399 65.621 C 153.064 60.906,151.971 56.793,151.971 56.481 C 151.971 56.169,160.871 55.914,171.749 55.914 L 191.527 55.914 186.644 61.470 M244.748 62.186 C 243.785 65.636,242.790 69.265,242.535 70.251 C 242.281 71.237,241.855 72.204,241.587 72.401 C 241.320 72.599,240.220 76.001,239.142 79.962 C 238.064 83.923,236.913 87.599,236.585 88.131 C 235.892 89.252,233.954 87.237,218.757 69.593 C 216.918 67.456,214.041 64.353,212.366 62.696 C 210.690 61.039,209.319 59.425,209.319 59.110 C 209.319 58.794,208.785 57.946,208.133 57.225 C 206.986 55.958,207.609 55.914,226.723 55.914 L 246.499 55.914 244.748 62.186 M208.593 69.118 C 211.325 72.533,214.369 75.900,217.742 79.238 C 219.418 80.895,220.789 82.474,220.789 82.745 C 220.789 83.016,223.561 86.307,226.949 90.059 C 230.337 93.810,232.925 97.063,232.700 97.288 C 231.344 98.645,166.478 98.616,165.120 97.259 C 164.936 97.075,166.065 95.519,167.629 93.802 C 170.496 90.657,175.835 84.600,181.976 77.529 C 183.807 75.421,186.595 72.287,188.172 70.565 C 189.749 68.844,192.805 65.386,194.963 62.882 L 198.888 58.330 202.839 62.598 C 205.013 64.946,207.602 67.880,208.593 69.118 M147.985 69.176 C 149.361 73.907,151.261 80.197,152.206 83.154 C 153.151 86.111,154.434 90.259,155.057 92.371 L 156.190 96.212 152.109 95.744 C 129.510 93.153,116.487 90.975,116.487 89.789 C 116.487 88.702,145.056 59.158,145.305 59.986 C 145.402 60.309,146.608 64.444,147.985 69.176 M261.315 67.838 C 262.370 69.221,267.591 74.703,272.916 80.019 C 278.241 85.335,282.426 89.856,282.215 90.067 C 281.007 91.274,242.294 96.848,242.294 95.815 C 242.294 95.642,243.098 92.642,244.081 89.148 C 245.064 85.654,246.386 80.860,247.019 78.495 C 247.652 76.129,248.593 73.387,249.109 72.401 C 249.625 71.416,250.590 68.516,251.253 65.956 C 251.916 63.397,252.612 61.055,252.800 60.750 C 253.264 60.000,258.942 64.727,261.315 67.838 M63.365 79.868 C 61.842 83.837,63.006 84.834,71.807 87.097 C 76.408 88.280,80.413 89.489,80.708 89.785 C 81.746 90.829,86.566 90.373,87.020 89.189 C 87.757 87.269,87.502 84.557,86.559 84.276 C 86.066 84.130,84.050 83.476,82.079 82.824 C 70.468 78.985,64.090 77.977,63.365 79.868 M324.373 80.255 C 311.006 84.127,309.315 85.174,311.086 88.484 C 312.139 90.450,315.006 90.967,317.393 89.621 C 318.078 89.235,322.007 88.093,326.125 87.084 C 334.327 85.074,335.484 84.462,335.484 82.134 C 335.484 78.617,332.039 78.034,324.373 80.255 M130.968 100.328 C 136.409 101.140,145.004 102.208,150.069 102.702 L 159.278 103.600 161.787 110.761 C 163.167 114.699,164.472 118.566,164.687 119.355 C 164.901 120.143,165.468 121.272,165.947 121.864 C 166.425 122.455,168.188 126.971,169.864 131.900 C 171.541 136.828,173.145 141.022,173.429 141.219 C 173.714 141.416,175.335 145.609,177.032 150.538 C 178.728 155.466,180.525 160.163,181.025 160.975 C 181.987 162.539,187.168 177.229,186.865 177.532 C 186.766 177.630,184.008 174.580,180.735 170.755 C 169.622 157.765,168.819 156.842,165.731 153.510 C 164.033 151.678,162.183 149.318,161.620 148.264 C 161.056 147.211,159.623 145.657,158.434 144.811 C 157.245 143.964,156.268 142.890,156.263 142.424 C 156.258 141.958,154.564 139.758,152.499 137.535 C 148.722 133.469,145.317 129.558,139.788 122.939 C 130.380 111.675,123.571 103.792,121.180 101.394 C 118.836 99.042,118.356 97.809,120.037 98.454 C 120.609 98.673,125.528 99.517,130.968 100.328 M278.668 99.104 C 278.021 99.597,276.496 101.290,275.279 102.867 C 272.801 106.079,268.978 110.530,265.259 114.532 C 263.894 116.002,261.634 118.656,260.237 120.430 C 258.841 122.204,256.818 124.624,255.743 125.806 C 254.668 126.989,251.499 130.699,248.701 134.050 C 245.904 137.401,242.823 141.013,241.854 142.077 C 240.886 143.140,238.957 145.398,237.569 147.095 C 234.421 150.942,230.409 155.575,227.599 158.610 C 226.416 159.887,224.288 162.456,222.870 164.318 C 221.453 166.181,219.431 168.600,218.377 169.694 C 217.324 170.789,215.023 173.297,213.265 175.269 C 211.507 177.240,210.062 178.473,210.052 178.008 C 210.043 177.544,210.459 176.737,210.976 176.216 C 211.493 175.695,213.348 171.075,215.098 165.950 C 216.848 160.824,218.525 156.448,218.825 156.225 C 219.125 156.002,220.875 151.486,222.714 146.190 C 224.553 140.893,226.280 136.398,226.552 136.201 C 226.824 136.004,227.933 133.262,229.016 130.108 C 231.903 121.697,232.960 118.927,234.355 116.129 C 235.042 114.749,236.352 111.352,237.267 108.579 L 238.928 103.539 251.543 102.255 C 258.481 101.549,267.384 100.393,271.326 99.687 C 275.269 98.980,278.798 98.358,279.169 98.305 C 279.540 98.252,279.315 98.611,278.668 99.104 M170.968 104.659 C 171.250 105.117,181.116 105.376,198.208 105.376 C 215.299 105.376,225.165 105.117,225.448 104.659 C 225.958 103.834,230.827 103.671,230.819 104.480 C 230.809 105.615,227.252 115.449,226.289 117.004 C 225.733 117.903,223.890 122.670,222.193 127.599 C 220.496 132.527,218.877 136.720,218.595 136.918 C 218.313 137.115,216.885 140.824,215.421 145.161 C 213.957 149.498,212.350 153.697,211.849 154.492 C 211.349 155.287,209.429 160.278,207.583 165.584 C 205.738 170.889,203.969 175.400,203.654 175.608 C 203.338 175.816,202.382 178.082,201.529 180.645 C 199.320 187.281,198.958 187.646,197.942 184.255 C 197.465 182.664,196.803 181.362,196.471 181.362 C 196.138 181.362,195.703 180.636,195.504 179.749 C 194.830 176.743,189.153 160.959,188.612 160.586 C 188.316 160.382,186.677 156.183,184.969 151.254 C 183.260 146.326,181.641 142.133,181.370 141.935 C 181.099 141.738,179.368 137.238,177.524 131.935 C 175.681 126.632,173.935 122.116,173.645 121.899 C 173.355 121.683,171.939 118.118,170.498 113.978 C 169.057 109.839,167.651 105.887,167.375 105.197 C 166.812 103.793,170.126 103.297,170.968 104.659 M323.477 225.555 C 322.984 225.759,322.581 226.867,322.581 228.017 L 322.581 230.108 327.172 230.108 L 331.763 230.108 332.037 243.548 C 332.187 250.941,332.296 257.046,332.277 257.116 C 332.259 257.185,331.013 256.147,329.509 254.808 C 323.153 249.153,309.694 250.961,303.482 258.304 C 295.280 268.001,295.467 288.664,303.837 297.536 C 310.910 305.032,323.919 304.928,330.410 297.324 L 332.975 294.319 333.333 297.876 L 333.692 301.434 343.190 301.634 L 352.688 301.834 352.688 298.946 L 352.688 296.057 348.752 296.057 L 344.816 296.057 344.630 260.753 L 344.444 225.448 334.409 225.316 C 328.889 225.243,323.970 225.350,323.477 225.555 M202.799 230.075 C 200.987 230.404,198.890 230.997,198.139 231.392 C 197.389 231.788,195.325 232.709,193.554 233.439 C 173.386 241.757,170.265 283.953,188.897 296.416 C 190.665 297.599,192.112 298.799,192.113 299.083 C 192.127 303.528,223.140 303.689,224.842 299.253 C 225.062 298.678,225.629 298.208,226.101 298.208 C 230.519 298.208,238.056 282.303,234.107 281.312 C 231.095 280.556,230.001 281.237,228.878 284.564 C 223.663 300.024,200.707 301.588,194.413 286.912 C 190.933 278.800,190.442 258.401,193.494 248.746 C 199.217 230.636,225.748 230.866,227.240 249.039 L 227.599 253.405 230.287 253.628 L 232.975 253.850 232.987 250.402 C 232.993 248.505,233.611 243.572,234.360 239.440 C 235.903 230.925,235.884 230.824,232.729 230.824 C 230.935 230.824,230.140 231.293,229.182 232.915 L 227.947 235.006 223.113 232.586 C 217.783 229.917,209.376 228.878,202.799 230.075 M0.000 233.692 L 0.000 236.559 3.144 236.559 C 6.991 236.559,6.968 236.518,13.800 255.556 C 14.224 256.738,14.782 257.867,15.039 258.065 C 15.295 258.262,16.586 261.487,17.906 265.233 C 19.227 268.978,21.017 273.495,21.885 275.269 C 22.753 277.043,24.502 281.398,25.772 284.946 C 27.041 288.495,28.820 293.011,29.724 294.982 C 30.627 296.953,31.730 299.472,32.174 300.579 C 32.902 302.393,33.275 302.569,35.965 302.371 L 38.949 302.151 41.674 293.907 C 43.173 289.373,44.772 285.040,45.227 284.277 C 45.682 283.515,47.498 278.515,49.264 273.166 C 51.029 267.817,52.721 263.118,53.023 262.724 C 53.324 262.330,54.955 257.814,56.646 252.688 C 58.337 247.563,60.116 242.724,60.599 241.935 C 61.083 241.147,61.684 239.615,61.936 238.530 C 62.372 236.648,62.588 236.559,66.724 236.559 L 71.054 236.559 70.832 233.871 L 70.609 231.183 59.498 231.183 L 48.387 231.183 48.387 233.692 C 48.387 236.191,48.402 236.202,52.106 236.559 L 55.825 236.918 54.486 240.502 C 53.749 242.473,51.504 248.763,49.495 254.480 C 47.487 260.197,45.249 266.165,44.522 267.742 C 43.794 269.319,42.467 272.948,41.572 275.806 C 40.676 278.665,39.744 281.004,39.499 281.004 C 38.869 281.004,37.204 278.212,36.536 276.035 C 35.447 272.489,31.731 262.693,30.216 259.373 C 29.375 257.530,27.564 252.920,26.192 249.129 C 24.820 245.338,23.204 241.533,22.601 240.672 C 20.474 237.635,21.125 236.559,25.090 236.559 L 28.674 236.559 28.674 233.692 L 28.674 230.824 14.337 230.824 L 0.000 230.824 0.000 233.692 M72.401 233.692 L 72.401 236.559 77.061 236.559 L 81.720 236.559 81.720 266.308 L 81.720 296.057 77.061 296.057 L 72.401 296.057 72.401 298.925 L 72.401 301.792 88.875 301.792 L 105.349 301.792 105.798 300.002 C 106.632 296.682,105.830 296.057,100.739 296.057 L 96.057 296.057 96.057 266.308 L 96.057 236.559 100.739 236.559 C 105.830 236.559,106.632 235.934,105.798 232.615 L 105.349 230.824 88.875 230.824 L 72.401 230.824 72.401 233.692 M112.306 231.302 C 112.043 231.565,111.828 232.855,111.828 234.170 L 111.828 236.559 116.846 236.559 L 121.864 236.559 121.864 266.308 L 121.864 296.057 116.846 296.057 L 111.828 296.057 111.828 298.937 L 111.828 301.818 129.211 301.626 L 146.595 301.434 146.817 298.746 L 147.040 296.057 141.262 296.057 L 135.484 296.057 135.484 266.308 L 135.484 236.559 140.036 236.559 C 152.132 236.559,157.053 243.359,154.837 257.012 C 153.530 265.068,151.141 267.554,143.730 268.570 C 139.958 269.087,138.708 273.199,142.057 274.075 C 151.674 276.589,166.025 268.678,168.800 259.331 C 173.177 244.595,166.809 235.401,149.821 231.925 C 144.295 230.795,113.328 230.281,112.306 231.302 M258.781 252.101 C 252.874 254.164,246.954 258.839,245.185 262.838 C 240.479 273.476,242.802 292.937,249.284 297.184 C 250.347 297.881,251.826 299.018,252.569 299.711 C 258.570 305.302,276.573 303.494,283.378 296.616 C 294.302 285.577,291.919 258.100,279.749 254.767 C 278.862 254.524,278.136 254.076,278.136 253.771 C 278.136 252.181,262.433 250.827,258.781 252.101 M372.143 252.396 C 359.672 256.188,353.652 272.567,358.655 289.092 C 363.935 306.529,393.038 308.003,398.887 291.129 C 400.730 285.810,396.094 284.284,393.716 289.427 C 391.437 294.356,387.200 296.950,381.251 297.059 C 374.143 297.188,371.537 293.768,370.792 283.333 L 370.421 278.136 385.306 278.136 L 400.192 278.136 399.819 271.147 C 399.364 262.623,396.373 255.197,393.394 255.197 C 393.053 255.197,391.807 254.482,390.625 253.608 C 388.165 251.790,376.627 251.033,372.143 252.396 M272.243 258.555 C 277.793 262.698,278.445 288.896,273.146 294.826 C 268.640 299.869,259.813 297.961,257.937 291.539 C 257.454 289.884,256.758 288.323,256.389 288.070 C 255.465 287.434,255.359 267.470,256.276 266.820 C 256.673 266.538,257.438 265.018,257.977 263.441 C 260.223 256.874,266.919 254.580,272.243 258.555 M383.527 257.714 C 386.403 259.201,387.152 260.917,387.619 267.090 L 388.021 272.401 379.234 272.401 L 370.447 272.401 370.935 268.996 C 372.457 258.388,376.985 254.330,383.527 257.714 M327.315 260.604 C 328.632 262.000,330.071 264.500,330.513 266.159 C 330.955 267.818,331.609 269.736,331.967 270.420 C 332.796 272.010,332.818 280.794,331.994 281.304 C 331.651 281.515,331.153 282.905,330.887 284.393 C 329.003 294.908,317.580 300.848,313.694 293.334 C 310.462 287.083,310.286 269.463,313.394 263.201 C 316.327 257.292,323.015 256.044,327.315 260.604 M93.004 314.739 C 91.449 315.666,89.606 319.922,89.606 322.585 C 89.606 323.961,89.169 324.678,88.172 324.939 C 87.384 325.145,86.738 325.825,86.738 326.450 C 86.738 327.075,87.384 327.989,88.172 328.482 C 89.493 329.307,89.606 330.153,89.606 339.241 L 89.606 349.104 92.115 349.104 L 94.624 349.104 94.624 339.068 L 94.624 329.032 97.074 329.032 C 100.617 329.032,101.792 328.388,101.792 326.447 C 101.792 324.866,101.510 324.731,98.208 324.731 C 94.726 324.731,94.624 324.672,94.624 322.639 C 94.624 318.843,95.196 318.280,99.049 318.280 C 102.504 318.280,102.598 318.224,102.377 316.308 C 102.127 314.130,95.802 313.072,93.004 314.739 M282.437 331.900 L 282.437 349.104 284.946 349.104 L 287.455 349.104 287.455 331.900 L 287.455 314.695 284.946 314.695 L 282.437 314.695 282.437 331.900 M248.162 317.742 C 248.361 319.803,248.635 320.072,250.538 320.072 C 252.440 320.072,252.714 319.803,252.913 317.742 C 253.129 315.500,253.039 315.412,250.538 315.412 C 248.036 315.412,247.946 315.500,248.162 317.742 M109.955 324.507 C 105.736 325.337,104.301 328.512,104.301 337.023 L 104.301 344.920 106.585 346.961 C 114.847 354.343,125.021 348.801,124.973 336.944 C 124.930 326.204,120.401 322.453,109.955 324.507 M137.455 325.475 C 134.589 326.639,134.050 326.689,134.050 325.794 C 134.050 325.091,133.323 324.731,131.900 324.731 L 129.749 324.731 129.749 336.918 L 129.749 349.104 131.878 349.104 L 134.006 349.104 134.207 340.381 L 134.409 331.658 138.530 330.286 C 142.476 328.971,142.652 328.808,142.652 326.464 C 142.652 323.628,142.210 323.544,137.455 325.475 M159.375 325.059 C 152.686 327.969,154.325 336.847,161.833 338.368 C 168.304 339.679,169.176 340.180,169.176 342.589 C 169.176 345.270,167.820 345.740,161.043 345.411 C 155.966 345.164,155.912 345.180,155.696 347.045 C 155.274 350.681,168.746 350.772,172.360 347.158 C 177.047 342.470,173.664 335.420,166.235 334.399 C 164.299 334.132,162.020 333.352,161.171 332.664 L 159.626 331.413 161.207 329.833 C 162.593 328.447,163.423 328.278,167.953 328.463 C 173.048 328.671,173.121 328.648,173.335 326.805 C 173.654 324.059,164.350 322.895,159.375 325.059 M186.024 324.674 C 185.237 324.981,183.221 325.077,181.544 324.888 L 178.495 324.545 178.495 341.484 L 178.495 358.423 181.004 358.423 L 183.513 358.423 183.513 353.924 L 183.513 349.424 186.249 349.685 C 193.833 350.409,197.740 347.516,198.726 340.448 C 200.402 328.435,194.659 321.303,186.024 324.674 M208.059 325.085 C 206.700 325.676,205.408 326.932,204.968 328.089 C 204.552 329.183,203.828 330.315,203.360 330.604 C 201.313 331.870,202.306 342.984,204.734 345.991 C 208.380 350.504,222.222 351.504,222.222 347.255 C 222.222 345.556,222.094 345.520,216.180 345.520 C 210.039 345.520,207.885 344.684,207.885 342.301 C 207.885 341.770,207.690 340.826,207.450 340.202 C 207.070 339.210,208.011 339.068,214.977 339.068 L 222.939 339.068 222.939 335.213 C 222.939 325.974,216.344 321.485,208.059 325.085 M232.616 324.527 C 226.355 326.042,224.322 342.211,229.715 347.604 C 233.048 350.937,245.287 350.084,244.197 346.595 C 244.074 346.201,241.675 345.717,238.866 345.520 C 232.415 345.067,231.965 344.583,231.656 337.766 C 231.311 330.177,232.461 328.674,238.610 328.674 C 243.146 328.674,244.780 327.874,244.064 326.007 C 243.407 324.295,236.999 323.467,232.616 324.527 M261.111 324.491 C 259.089 324.778,258.781 325.099,258.781 326.918 L 258.781 329.014 264.291 328.844 C 269.643 328.679,269.834 328.731,270.922 330.663 C 272.331 333.164,271.321 334.023,266.953 334.039 C 260.566 334.063,257.348 336.913,257.348 342.544 C 257.348 347.498,259.750 349.512,265.352 349.251 C 267.849 349.135,270.860 349.001,272.043 348.953 C 273.226 348.906,275.242 349.122,276.523 349.434 C 279.067 350.052,280.213 346.713,277.778 345.779 C 276.925 345.452,276.702 343.934,276.699 338.454 C 276.691 325.071,274.002 322.662,261.111 324.491 M295.381 325.389 C 291.885 327.251,290.765 331.091,292.566 335.043 C 293.466 337.017,295.099 337.781,301.434 339.188 C 305.035 339.988,305.773 340.412,305.969 341.796 C 306.428 345.030,304.914 345.738,298.403 345.331 L 292.473 344.962 292.473 346.960 C 292.473 348.904,292.607 348.972,297.369 349.450 C 313.666 351.087,317.435 337.264,301.567 334.056 C 293.470 332.418,296.078 328.112,304.950 328.469 C 309.960 328.671,310.039 328.646,310.253 326.802 C 310.601 323.804,300.212 322.816,295.381 325.389 M248.029 336.918 L 248.029 349.104 250.538 349.104 L 253.047 349.104 253.047 336.918 L 253.047 324.731 250.538 324.731 L 248.029 324.731 248.029 336.918 M118.459 330.576 C 122.183 334.977,119.532 345.054,114.565 345.377 C 107.686 345.824,105.920 331.337,112.545 328.809 C 114.292 328.142,117.112 328.985,118.459 330.576 M216.162 330.075 C 219.613 333.526,218.657 334.767,212.545 334.767 C 209.588 334.767,207.168 334.654,207.168 334.516 C 207.168 329.542,212.832 326.746,216.162 330.075 M192.452 330.442 C 196.642 335.073,193.412 345.074,187.628 345.376 L 183.513 345.591 183.513 338.064 C 183.513 331.652,183.698 330.429,184.767 329.807 C 186.917 328.554,191.053 328.897,192.452 330.442 M270.968 341.500 C 270.968 345.017,270.351 345.520,266.035 345.520 C 262.992 345.520,261.649 344.503,261.649 342.202 C 261.649 339.600,263.526 338.351,267.435 338.351 L 270.968 338.351 270.968 341.500 " stroke="none" fill="#ffffff" fill-rule="evenodd"></path><path id="path4" d="M196.416 1.434 C 192.842 5.008,194.960 24.373,198.926 24.373 C 202.010 24.373,204.093 3.662,201.290 0.860 C 200.013 -0.417,198.034 -0.184,196.416 1.434 M116.729 16.099 C 115.888 17.944,117.860 23.978,120.155 26.585 C 120.705 27.210,122.128 29.729,123.317 32.183 C 125.443 36.571,125.521 36.640,128.151 36.422 C 131.399 36.153,132.034 33.883,129.969 29.922 C 121.961 14.562,121.806 14.337,119.228 14.337 C 118.122 14.337,117.253 14.950,116.729 16.099 M275.740 15.950 C 266.013 31.712,264.693 37.126,270.745 36.432 C 272.362 36.246,273.134 35.463,274.654 32.465 C 275.695 30.411,277.711 26.649,279.134 24.105 C 281.820 19.302,282.331 16.667,280.860 15.197 C 279.471 13.808,276.822 14.197,275.740 15.950 M134.681 60.036 C 128.588 66.246,119.582 75.505,114.669 80.613 C 109.755 85.721,105.260 90.285,104.680 90.756 C 103.572 91.654,103.292 91.252,112.127 101.434 C 113.495 103.011,115.800 105.753,117.249 107.527 C 118.698 109.301,120.087 110.914,120.336 111.111 C 120.585 111.308,122.400 113.405,124.369 115.771 C 126.338 118.136,128.548 120.717,129.280 121.505 C 130.013 122.294,131.465 124.068,132.508 125.448 C 133.551 126.828,135.211 128.784,136.198 129.795 C 137.185 130.807,140.090 134.136,142.652 137.194 C 145.215 140.251,148.268 143.779,149.438 145.033 C 150.607 146.286,152.672 148.763,154.027 150.538 C 155.382 152.312,157.408 154.731,158.530 155.914 C 159.651 157.097,163.013 160.968,166.000 164.516 C 168.987 168.065,172.939 172.711,174.783 174.841 C 178.366 178.979,184.093 185.644,188.087 190.323 C 194.396 197.713,195.375 198.834,197.372 200.957 C 199.002 202.691,199.591 202.974,199.870 202.157 C 200.070 201.570,201.230 200.120,202.447 198.936 C 203.664 197.751,205.143 196.090,205.735 195.243 C 206.326 194.396,208.479 191.814,210.519 189.504 C 212.559 187.194,216.688 182.401,219.695 178.853 C 222.702 175.305,226.570 170.789,228.290 168.817 C 230.011 166.846,233.073 163.297,235.094 160.932 C 237.116 158.566,239.629 155.663,240.680 154.480 C 241.731 153.297,243.901 150.717,245.504 148.746 C 247.106 146.774,249.292 144.194,250.362 143.011 C 251.432 141.828,254.770 137.957,257.779 134.409 C 260.788 130.860,264.745 126.215,266.572 124.086 C 268.398 121.958,271.438 118.409,273.328 116.201 C 275.217 113.993,277.619 111.219,278.665 110.036 C 279.712 108.853,281.853 106.272,283.423 104.301 C 284.993 102.330,286.673 100.476,287.155 100.183 C 289.625 98.678,293.323 92.259,292.614 90.705 C 292.006 89.369,281.315 78.146,257.614 53.960 L 252.504 48.746 199.132 48.746 L 145.760 48.746 134.681 60.036 M186.644 61.470 C 176.433 73.086,174.745 75.000,171.943 78.136 C 167.116 83.538,162.042 88.889,161.746 88.889 C 161.592 88.889,160.881 86.631,160.165 83.871 C 159.449 81.111,158.629 78.853,158.342 78.853 C 158.055 78.853,157.597 77.805,157.324 76.523 C 157.051 75.242,155.735 70.336,154.399 65.621 C 153.064 60.906,151.971 56.793,151.971 56.481 C 151.971 56.169,160.871 55.914,171.749 55.914 L 191.527 55.914 186.644 61.470 M244.748 62.186 C 243.785 65.636,242.790 69.265,242.535 70.251 C 242.281 71.237,241.855 72.204,241.587 72.401 C 241.320 72.599,240.220 76.001,239.142 79.962 C 238.064 83.923,236.913 87.599,236.585 88.131 C 235.892 89.252,233.954 87.237,218.757 69.593 C 216.918 67.456,214.041 64.353,212.366 62.696 C 210.690 61.039,209.319 59.425,209.319 59.110 C 209.319 58.794,208.785 57.946,208.133 57.225 C 206.986 55.958,207.609 55.914,226.723 55.914 L 246.499 55.914 244.748 62.186 M208.593 69.118 C 211.325 72.533,214.369 75.900,217.742 79.238 C 219.418 80.895,220.789 82.474,220.789 82.745 C 220.789 83.016,223.561 86.307,226.949 90.059 C 230.337 93.810,232.925 97.063,232.700 97.288 C 231.344 98.645,166.478 98.616,165.120 97.259 C 164.936 97.075,166.065 95.519,167.629 93.802 C 170.496 90.657,175.835 84.600,181.976 77.529 C 183.807 75.421,186.595 72.287,188.172 70.565 C 189.749 68.844,192.805 65.386,194.963 62.882 L 198.888 58.330 202.839 62.598 C 205.013 64.946,207.602 67.880,208.593 69.118 M147.985 69.176 C 149.361 73.907,151.261 80.197,152.206 83.154 C 153.151 86.111,154.434 90.259,155.057 92.371 L 156.190 96.212 152.109 95.744 C 129.510 93.153,116.487 90.975,116.487 89.789 C 116.487 88.702,145.056 59.158,145.305 59.986 C 145.402 60.309,146.608 64.444,147.985 69.176 M261.315 67.838 C 262.370 69.221,267.591 74.703,272.916 80.019 C 278.241 85.335,282.426 89.856,282.215 90.067 C 281.007 91.274,242.294 96.848,242.294 95.815 C 242.294 95.642,243.098 92.642,244.081 89.148 C 245.064 85.654,246.386 80.860,247.019 78.495 C 247.652 76.129,248.593 73.387,249.109 72.401 C 249.625 71.416,250.590 68.516,251.253 65.956 C 251.916 63.397,252.612 61.055,252.800 60.750 C 253.264 60.000,258.942 64.727,261.315 67.838 M63.365 79.868 C 61.842 83.837,63.006 84.834,71.807 87.097 C 76.408 88.280,80.413 89.489,80.708 89.785 C 81.746 90.829,86.566 90.373,87.020 89.189 C 87.757 87.269,87.502 84.557,86.559 84.276 C 86.066 84.130,84.050 83.476,82.079 82.824 C 70.468 78.985,64.090 77.977,63.365 79.868 M324.373 80.255 C 311.006 84.127,309.315 85.174,311.086 88.484 C 312.139 90.450,315.006 90.967,317.393 89.621 C 318.078 89.235,322.007 88.093,326.125 87.084 C 334.327 85.074,335.484 84.462,335.484 82.134 C 335.484 78.617,332.039 78.034,324.373 80.255 M130.968 100.328 C 136.409 101.140,145.004 102.208,150.069 102.702 L 159.278 103.600 161.787 110.761 C 163.167 114.699,164.472 118.566,164.687 119.355 C 164.901 120.143,165.468 121.272,165.947 121.864 C 166.425 122.455,168.188 126.971,169.864 131.900 C 171.541 136.828,173.145 141.022,173.429 141.219 C 173.714 141.416,175.335 145.609,177.032 150.538 C 178.728 155.466,180.525 160.163,181.025 160.975 C 181.987 162.539,187.168 177.229,186.865 177.532 C 186.766 177.630,184.008 174.580,180.735 170.755 C 169.622 157.765,168.819 156.842,165.731 153.510 C 164.033 151.678,162.183 149.318,161.620 148.264 C 161.056 147.211,159.623 145.657,158.434 144.811 C 157.245 143.964,156.268 142.890,156.263 142.424 C 156.258 141.958,154.564 139.758,152.499 137.535 C 148.722 133.469,145.317 129.558,139.788 122.939 C 130.380 111.675,123.571 103.792,121.180 101.394 C 118.836 99.042,118.356 97.809,120.037 98.454 C 120.609 98.673,125.528 99.517,130.968 100.328 M278.668 99.104 C 278.021 99.597,276.496 101.290,275.279 102.867 C 272.801 106.079,268.978 110.530,265.259 114.532 C 263.894 116.002,261.634 118.656,260.237 120.430 C 258.841 122.204,256.818 124.624,255.743 125.806 C 254.668 126.989,251.499 130.699,248.701 134.050 C 245.904 137.401,242.823 141.013,241.854 142.077 C 240.886 143.140,238.957 145.398,237.569 147.095 C 234.421 150.942,230.409 155.575,227.599 158.610 C 226.416 159.887,224.288 162.456,222.870 164.318 C 221.453 166.181,219.431 168.600,218.377 169.694 C 217.324 170.789,215.023 173.297,213.265 175.269 C 211.507 177.240,210.062 178.473,210.052 178.008 C 210.043 177.544,210.459 176.737,210.976 176.216 C 211.493 175.695,213.348 171.075,215.098 165.950 C 216.848 160.824,218.525 156.448,218.825 156.225 C 219.125 156.002,220.875 151.486,222.714 146.190 C 224.553 140.893,226.280 136.398,226.552 136.201 C 226.824 136.004,227.933 133.262,229.016 130.108 C 231.903 121.697,232.960 118.927,234.355 116.129 C 235.042 114.749,236.352 111.352,237.267 108.579 L 238.928 103.539 251.543 102.255 C 258.481 101.549,267.384 100.393,271.326 99.687 C 275.269 98.980,278.798 98.358,279.169 98.305 C 279.540 98.252,279.315 98.611,278.668 99.104 M170.968 104.659 C 171.250 105.117,181.116 105.376,198.208 105.376 C 215.299 105.376,225.165 105.117,225.448 104.659 C 225.958 103.834,230.827 103.671,230.819 104.480 C 230.809 105.615,227.252 115.449,226.289 117.004 C 225.733 117.903,223.890 122.670,222.193 127.599 C 220.496 132.527,218.877 136.720,218.595 136.918 C 218.313 137.115,216.885 140.824,215.421 145.161 C 213.957 149.498,212.350 153.697,211.849 154.492 C 211.349 155.287,209.429 160.278,207.583 165.584 C 205.738 170.889,203.969 175.400,203.654 175.608 C 203.338 175.816,202.382 178.082,201.529 180.645 C 199.320 187.281,198.958 187.646,197.942 184.255 C 197.465 182.664,196.803 181.362,196.471 181.362 C 196.138 181.362,195.703 180.636,195.504 179.749 C 194.830 176.743,189.153 160.959,188.612 160.586 C 188.316 160.382,186.677 156.183,184.969 151.254 C 183.260 146.326,181.641 142.133,181.370 141.935 C 181.099 141.738,179.368 137.238,177.524 131.935 C 175.681 126.632,173.935 122.116,173.645 121.899 C 173.355 121.683,171.939 118.118,170.498 113.978 C 169.057 109.839,167.651 105.887,167.375 105.197 C 166.812 103.793,170.126 103.297,170.968 104.659 M323.477 225.555 C 322.984 225.759,322.581 226.867,322.581 228.017 L 322.581 230.108 327.172 230.108 L 331.763 230.108 332.037 243.548 C 332.187 250.941,332.296 257.046,332.277 257.116 C 332.259 257.185,331.013 256.147,329.509 254.808 C 323.153 249.153,309.694 250.961,303.482 258.304 C 295.280 268.001,295.467 288.664,303.837 297.536 C 310.910 305.032,323.919 304.928,330.410 297.324 L 332.975 294.319 333.333 297.876 L 333.692 301.434 343.190 301.634 L 352.688 301.834 352.688 298.946 L 352.688 296.057 348.752 296.057 L 344.816 296.057 344.630 260.753 L 344.444 225.448 334.409 225.316 C 328.889 225.243,323.970 225.350,323.477 225.555 M202.799 230.075 C 200.987 230.404,198.890 230.997,198.139 231.392 C 197.389 231.788,195.325 232.709,193.554 233.439 C 173.386 241.757,170.265 283.953,188.897 296.416 C 190.665 297.599,192.112 298.799,192.113 299.083 C 192.127 303.528,223.140 303.689,224.842 299.253 C 225.062 298.678,225.629 298.208,226.101 298.208 C 230.519 298.208,238.056 282.303,234.107 281.312 C 231.095 280.556,230.001 281.237,228.878 284.564 C 223.663 300.024,200.707 301.588,194.413 286.912 C 190.933 278.800,190.442 258.401,193.494 248.746 C 199.217 230.636,225.748 230.866,227.240 249.039 L 227.599 253.405 230.287 253.628 L 232.975 253.850 232.987 250.402 C 232.993 248.505,233.611 243.572,234.360 239.440 C 235.903 230.925,235.884 230.824,232.729 230.824 C 230.935 230.824,230.140 231.293,229.182 232.915 L 227.947 235.006 223.113 232.586 C 217.783 229.917,209.376 228.878,202.799 230.075 M0.000 233.692 L 0.000 236.559 3.144 236.559 C 6.991 236.559,6.968 236.518,13.800 255.556 C 14.224 256.738,14.782 257.867,15.039 258.065 C 15.295 258.262,16.586 261.487,17.906 265.233 C 19.227 268.978,21.017 273.495,21.885 275.269 C 22.753 277.043,24.502 281.398,25.772 284.946 C 27.041 288.495,28.820 293.011,29.724 294.982 C 30.627 296.953,31.730 299.472,32.174 300.579 C 32.902 302.393,33.275 302.569,35.965 302.371 L 38.949 302.151 41.674 293.907 C 43.173 289.373,44.772 285.040,45.227 284.277 C 45.682 283.515,47.498 278.515,49.264 273.166 C 51.029 267.817,52.721 263.118,53.023 262.724 C 53.324 262.330,54.955 257.814,56.646 252.688 C 58.337 247.563,60.116 242.724,60.599 241.935 C 61.083 241.147,61.684 239.615,61.936 238.530 C 62.372 236.648,62.588 236.559,66.724 236.559 L 71.054 236.559 70.832 233.871 L 70.609 231.183 59.498 231.183 L 48.387 231.183 48.387 233.692 C 48.387 236.191,48.402 236.202,52.106 236.559 L 55.825 236.918 54.486 240.502 C 53.749 242.473,51.504 248.763,49.495 254.480 C 47.487 260.197,45.249 266.165,44.522 267.742 C 43.794 269.319,42.467 272.948,41.572 275.806 C 40.676 278.665,39.744 281.004,39.499 281.004 C 38.869 281.004,37.204 278.212,36.536 276.035 C 35.447 272.489,31.731 262.693,30.216 259.373 C 29.375 257.530,27.564 252.920,26.192 249.129 C 24.820 245.338,23.204 241.533,22.601 240.672 C 20.474 237.635,21.125 236.559,25.090 236.559 L 28.674 236.559 28.674 233.692 L 28.674 230.824 14.337 230.824 L 0.000 230.824 0.000 233.692 M72.401 233.692 L 72.401 236.559 77.061 236.559 L 81.720 236.559 81.720 266.308 L 81.720 296.057 77.061 296.057 L 72.401 296.057 72.401 298.925 L 72.401 301.792 88.875 301.792 L 105.349 301.792 105.798 300.002 C 106.632 296.682,105.830 296.057,100.739 296.057 L 96.057 296.057 96.057 266.308 L 96.057 236.559 100.739 236.559 C 105.830 236.559,106.632 235.934,105.798 232.615 L 105.349 230.824 88.875 230.824 L 72.401 230.824 72.401 233.692 M112.306 231.302 C 112.043 231.565,111.828 232.855,111.828 234.170 L 111.828 236.559 116.846 236.559 L 121.864 236.559 121.864 266.308 L 121.864 296.057 116.846 296.057 L 111.828 296.057 111.828 298.937 L 111.828 301.818 129.211 301.626 L 146.595 301.434 146.817 298.746 L 147.040 296.057 141.262 296.057 L 135.484 296.057 135.484 266.308 L 135.484 236.559 140.036 236.559 C 152.132 236.559,157.053 243.359,154.837 257.012 C 153.530 265.068,151.141 267.554,143.730 268.570 C 139.958 269.087,138.708 273.199,142.057 274.075 C 151.674 276.589,166.025 268.678,168.800 259.331 C 173.177 244.595,166.809 235.401,149.821 231.925 C 144.295 230.795,113.328 230.281,112.306 231.302 M258.781 252.101 C 252.874 254.164,246.954 258.839,245.185 262.838 C 240.479 273.476,242.802 292.937,249.284 297.184 C 250.347 297.881,251.826 299.018,252.569 299.711 C 258.570 305.302,276.573 303.494,283.378 296.616 C 294.302 285.577,291.919 258.100,279.749 254.767 C 278.862 254.524,278.136 254.076,278.136 253.771 C 278.136 252.181,262.433 250.827,258.781 252.101 M372.143 252.396 C 359.672 256.188,353.652 272.567,358.655 289.092 C 363.935 306.529,393.038 308.003,398.887 291.129 C 400.730 285.810,396.094 284.284,393.716 289.427 C 391.437 294.356,387.200 296.950,381.251 297.059 C 374.143 297.188,371.537 293.768,370.792 283.333 L 370.421 278.136 385.306 278.136 L 400.192 278.136 399.819 271.147 C 399.364 262.623,396.373 255.197,393.394 255.197 C 393.053 255.197,391.807 254.482,390.625 253.608 C 388.165 251.790,376.627 251.033,372.143 252.396 M272.243 258.555 C 277.793 262.698,278.445 288.896,273.146 294.826 C 268.640 299.869,259.813 297.961,257.937 291.539 C 257.454 289.884,256.758 288.323,256.389 288.070 C 255.465 287.434,255.359 267.470,256.276 266.820 C 256.673 266.538,257.438 265.018,257.977 263.441 C 260.223 256.874,266.919 254.580,272.243 258.555 M383.527 257.714 C 386.403 259.201,387.152 260.917,387.619 267.090 L 388.021 272.401 379.234 272.401 L 370.447 272.401 370.935 268.996 C 372.457 258.388,376.985 254.330,383.527 257.714 M327.315 260.604 C 328.632 262.000,330.071 264.500,330.513 266.159 C 330.955 267.818,331.609 269.736,331.967 270.420 C 332.796 272.010,332.818 280.794,331.994 281.304 C 331.651 281.515,331.153 282.905,330.887 284.393 C 329.003 294.908,317.580 300.848,313.694 293.334 C 310.462 287.083,310.286 269.463,313.394 263.201 C 316.327 257.292,323.015 256.044,327.315 260.604 M93.004 314.739 C 91.449 315.666,89.606 319.922,89.606 322.585 C 89.606 323.961,89.169 324.678,88.172 324.939 C 87.384 325.145,86.738 325.825,86.738 326.450 C 86.738 327.075,87.384 327.989,88.172 328.482 C 89.493 329.307,89.606 330.153,89.606 339.241 L 89.606 349.104 92.115 349.104 L 94.624 349.104 94.624 339.068 L 94.624 329.032 97.074 329.032 C 100.617 329.032,101.792 328.388,101.792 326.447 C 101.792 324.866,101.510 324.731,98.208 324.731 C 94.726 324.731,94.624 324.672,94.624 322.639 C 94.624 318.843,95.196 318.280,99.049 318.280 C 102.504 318.280,102.598 318.224,102.377 316.308 C 102.127 314.130,95.802 313.072,93.004 314.739 M282.437 331.900 L 282.437 349.104 284.946 349.104 L 287.455 349.104 287.455 331.900 L 287.455 314.695 284.946 314.695 L 282.437 314.695 282.437 331.900 M248.162 317.742 C 248.361 319.803,248.635 320.072,250.538 320.072 C 252.440 320.072,252.714 319.803,252.913 317.742 C 253.129 315.500,253.039 315.412,250.538 315.412 C 248.036 315.412,247.946 315.500,248.162 317.742 M109.955 324.507 C 105.736 325.337,104.301 328.512,104.301 337.023 L 104.301 344.920 106.585 346.961 C 114.847 354.343,125.021 348.801,124.973 336.944 C 124.930 326.204,120.401 322.453,109.955 324.507 M137.455 325.475 C 134.589 326.639,134.050 326.689,134.050 325.794 C 134.050 325.091,133.323 324.731,131.900 324.731 L 129.749 324.731 129.749 336.918 L 129.749 349.104 131.878 349.104 L 134.006 349.104 134.207 340.381 L 134.409 331.658 138.530 330.286 C 142.476 328.971,142.652 328.808,142.652 326.464 C 142.652 323.628,142.210 323.544,137.455 325.475 M159.375 325.059 C 152.686 327.969,154.325 336.847,161.833 338.368 C 168.304 339.679,169.176 340.180,169.176 342.589 C 169.176 345.270,167.820 345.740,161.043 345.411 C 155.966 345.164,155.912 345.180,155.696 347.045 C 155.274 350.681,168.746 350.772,172.360 347.158 C 177.047 342.470,173.664 335.420,166.235 334.399 C 164.299 334.132,162.020 333.352,161.171 332.664 L 159.626 331.413 161.207 329.833 C 162.593 328.447,163.423 328.278,167.953 328.463 C 173.048 328.671,173.121 328.648,173.335 326.805 C 173.654 324.059,164.350 322.895,159.375 325.059 M186.024 324.674 C 185.237 324.981,183.221 325.077,181.544 324.888 L 178.495 324.545 178.495 341.484 L 178.495 358.423 181.004 358.423 L 183.513 358.423 183.513 353.924 L 183.513 349.424 186.249 349.685 C 193.833 350.409,197.740 347.516,198.726 340.448 C 200.402 328.435,194.659 321.303,186.024 324.674 M208.059 325.085 C 206.700 325.676,205.408 326.932,204.968 328.089 C 204.552 329.183,203.828 330.315,203.360 330.604 C 201.313 331.870,202.306 342.984,204.734 345.991 C 208.380 350.504,222.222 351.504,222.222 347.255 C 222.222 345.556,222.094 345.520,216.180 345.520 C 210.039 345.520,207.885 344.684,207.885 342.301 C 207.885 341.770,207.690 340.826,207.450 340.202 C 207.070 339.210,208.011 339.068,214.977 339.068 L 222.939 339.068 222.939 335.213 C 222.939 325.974,216.344 321.485,208.059 325.085 M232.616 324.527 C 226.355 326.042,224.322 342.211,229.715 347.604 C 233.048 350.937,245.287 350.084,244.197 346.595 C 244.074 346.201,241.675 345.717,238.866 345.520 C 232.415 345.067,231.965 344.583,231.656 337.766 C 231.311 330.177,232.461 328.674,238.610 328.674 C 243.146 328.674,244.780 327.874,244.064 326.007 C 243.407 324.295,236.999 323.467,232.616 324.527 M261.111 324.491 C 259.089 324.778,258.781 325.099,258.781 326.918 L 258.781 329.014 264.291 328.844 C 269.643 328.679,269.834 328.731,270.922 330.663 C 272.331 333.164,271.321 334.023,266.953 334.039 C 260.566 334.063,257.348 336.913,257.348 342.544 C 257.348 347.498,259.750 349.512,265.352 349.251 C 267.849 349.135,270.860 349.001,272.043 348.953 C 273.226 348.906,275.242 349.122,276.523 349.434 C 279.067 350.052,280.213 346.713,277.778 345.779 C 276.925 345.452,276.702 343.934,276.699 338.454 C 276.691 325.071,274.002 322.662,261.111 324.491 M295.381 325.389 C 291.885 327.251,290.765 331.091,292.566 335.043 C 293.466 337.017,295.099 337.781,301.434 339.188 C 305.035 339.988,305.773 340.412,305.969 341.796 C 306.428 345.030,304.914 345.738,298.403 345.331 L 292.473 344.962 292.473 346.960 C 292.473 348.904,292.607 348.972,297.369 349.450 C 313.666 351.087,317.435 337.264,301.567 334.056 C 293.470 332.418,296.078 328.112,304.950 328.469 C 309.960 328.671,310.039 328.646,310.253 326.802 C 310.601 323.804,300.212 322.816,295.381 325.389 M248.029 336.918 L 248.029 349.104 250.538 349.104 L 253.047 349.104 253.047 336.918 L 253.047 324.731 250.538 324.731 L 248.029 324.731 248.029 336.918 M118.459 330.576 C 122.183 334.977,119.532 345.054,114.565 345.377 C 107.686 345.824,105.920 331.337,112.545 328.809 C 114.292 328.142,117.112 328.985,118.459 330.576 M216.162 330.075 C 219.613 333.526,218.657 334.767,212.545 334.767 C 209.588 334.767,207.168 334.654,207.168 334.516 C 207.168 329.542,212.832 326.746,216.162 330.075 M192.452 330.442 C 196.642 335.073,193.412 345.074,187.628 345.376 L 183.513 345.591 183.513 338.064 C 183.513 331.652,183.698 330.429,184.767 329.807 C 186.917 328.554,191.053 328.897,192.452 330.442 M270.968 341.500 C 270.968 345.017,270.351 345.520,266.035 345.520 C 262.992 345.520,261.649 344.503,261.649 342.202 C 261.649 339.600,263.526 338.351,267.435 338.351 L 270.968 338.351 270.968 341.500 " stroke="none" fill="#ffffff" fill-rule="evenodd"></path></g></svg>